G04 EAGLE Gerber RS-274X export*
G75*
%MOIN*%
%FSLAX34Y34*%
%LPD*%
%INBottom Copper*%
%IPPOS*%
%AMOC8*
5,1,8,0,0,1.08239X$1,22.5*%
G01*
%ADD10C,0.074000*%
%ADD11R,0.062992X0.062992*%
%ADD12C,0.062992*%
%ADD13C,0.029780*%
%ADD14C,0.006000*%

G36*
X32872Y8401D02*
X32872Y8401D01*
X32873Y8401D01*
X32945Y8406D01*
X32952Y8407D01*
X32955Y8407D01*
X33093Y8444D01*
X33105Y8449D01*
X33230Y8521D01*
X33239Y8529D01*
X33240Y8529D01*
X33341Y8630D01*
X33349Y8640D01*
X33349Y8641D01*
X33421Y8765D01*
X33426Y8776D01*
X33426Y8777D01*
X33463Y8915D01*
X33464Y8923D01*
X33465Y8925D01*
X33469Y8997D01*
X33469Y8999D01*
X33469Y9000D01*
X33469Y9185D01*
X33469Y9190D01*
X33468Y9196D01*
X33468Y9197D01*
X33466Y9202D01*
X33464Y9207D01*
X33463Y9208D01*
X33463Y9209D01*
X33460Y9213D01*
X33457Y9218D01*
X33456Y9218D01*
X33456Y9219D01*
X33451Y9222D01*
X33447Y9226D01*
X33446Y9226D01*
X33441Y9229D01*
X33436Y9231D01*
X33435Y9231D01*
X33435Y9232D01*
X33429Y9233D01*
X33424Y9234D01*
X33423Y9234D01*
X33417Y9233D01*
X33412Y9233D01*
X33411Y9233D01*
X33410Y9233D01*
X33405Y9231D01*
X33400Y9230D01*
X33399Y9229D01*
X33398Y9229D01*
X33388Y9222D01*
X33386Y9220D01*
X33385Y9220D01*
X33267Y9101D01*
X33094Y9029D01*
X32906Y9029D01*
X32733Y9101D01*
X32601Y9233D01*
X32544Y9371D01*
X32543Y9372D01*
X32543Y9373D01*
X32540Y9377D01*
X32538Y9381D01*
X32537Y9382D01*
X32536Y9383D01*
X32533Y9387D01*
X32529Y9390D01*
X32528Y9391D01*
X32527Y9392D01*
X32523Y9394D01*
X32519Y9397D01*
X32517Y9397D01*
X32516Y9398D01*
X32511Y9399D01*
X32507Y9400D01*
X32505Y9400D01*
X32504Y9401D01*
X32499Y9401D01*
X32494Y9401D01*
X32493Y9401D01*
X32492Y9400D01*
X32487Y9399D01*
X32482Y9398D01*
X32481Y9398D01*
X32480Y9397D01*
X32475Y9395D01*
X32471Y9393D01*
X32470Y9392D01*
X32469Y9391D01*
X32465Y9388D01*
X32462Y9384D01*
X32461Y9383D01*
X32460Y9382D01*
X32459Y9380D01*
X32455Y9374D01*
X32453Y9369D01*
X32452Y9367D01*
X32436Y9319D01*
X32403Y9253D01*
X32359Y9193D01*
X32307Y9141D01*
X32247Y9097D01*
X32181Y9064D01*
X32110Y9041D01*
X32099Y9039D01*
X32099Y9450D01*
X32099Y9455D01*
X32098Y9460D01*
X32098Y9461D01*
X32098Y9462D01*
X32096Y9467D01*
X32094Y9472D01*
X32094Y9473D01*
X32093Y9474D01*
X32090Y9478D01*
X32087Y9482D01*
X32086Y9483D01*
X32086Y9484D01*
X32082Y9487D01*
X32078Y9490D01*
X32077Y9491D01*
X32076Y9492D01*
X32072Y9494D01*
X32067Y9496D01*
X32066Y9496D01*
X32065Y9497D01*
X32053Y9499D01*
X32051Y9499D01*
X32050Y9499D01*
X31950Y9499D01*
X31945Y9499D01*
X31940Y9498D01*
X31939Y9498D01*
X31938Y9498D01*
X31933Y9496D01*
X31928Y9494D01*
X31927Y9494D01*
X31926Y9493D01*
X31922Y9490D01*
X31918Y9487D01*
X31917Y9486D01*
X31916Y9486D01*
X31913Y9482D01*
X31910Y9478D01*
X31909Y9477D01*
X31908Y9476D01*
X31906Y9472D01*
X31904Y9467D01*
X31904Y9466D01*
X31903Y9465D01*
X31901Y9453D01*
X31901Y9451D01*
X31901Y9450D01*
X31901Y9039D01*
X31890Y9041D01*
X31819Y9064D01*
X31753Y9097D01*
X31693Y9141D01*
X31641Y9193D01*
X31597Y9253D01*
X31564Y9319D01*
X31548Y9367D01*
X31548Y9368D01*
X31547Y9369D01*
X31545Y9374D01*
X31543Y9378D01*
X31542Y9379D01*
X31542Y9380D01*
X31538Y9384D01*
X31535Y9388D01*
X31534Y9388D01*
X31533Y9389D01*
X31529Y9392D01*
X31525Y9395D01*
X31524Y9395D01*
X31523Y9396D01*
X31518Y9398D01*
X31513Y9400D01*
X31512Y9400D01*
X31511Y9400D01*
X31506Y9400D01*
X31501Y9401D01*
X31500Y9401D01*
X31498Y9401D01*
X31494Y9400D01*
X31489Y9399D01*
X31487Y9399D01*
X31486Y9399D01*
X31482Y9396D01*
X31477Y9395D01*
X31476Y9394D01*
X31475Y9393D01*
X31471Y9390D01*
X31467Y9387D01*
X31466Y9386D01*
X31465Y9385D01*
X31464Y9383D01*
X31459Y9377D01*
X31457Y9373D01*
X31456Y9371D01*
X31399Y9233D01*
X31267Y9101D01*
X31094Y9029D01*
X30906Y9029D01*
X30733Y9101D01*
X30601Y9233D01*
X30529Y9406D01*
X30529Y9594D01*
X30601Y9767D01*
X30733Y9899D01*
X30906Y9971D01*
X31094Y9971D01*
X31267Y9899D01*
X31399Y9767D01*
X31456Y9629D01*
X31457Y9628D01*
X31457Y9627D01*
X31460Y9623D01*
X31462Y9619D01*
X31463Y9618D01*
X31464Y9617D01*
X31467Y9613D01*
X31471Y9610D01*
X31472Y9609D01*
X31473Y9608D01*
X31477Y9606D01*
X31481Y9603D01*
X31483Y9603D01*
X31484Y9602D01*
X31489Y9601D01*
X31493Y9600D01*
X31495Y9600D01*
X31496Y9599D01*
X31501Y9599D01*
X31506Y9599D01*
X31507Y9599D01*
X31508Y9600D01*
X31513Y9601D01*
X31518Y9602D01*
X31519Y9602D01*
X31520Y9603D01*
X31525Y9605D01*
X31529Y9607D01*
X31530Y9608D01*
X31531Y9609D01*
X31535Y9612D01*
X31538Y9616D01*
X31539Y9617D01*
X31540Y9618D01*
X31541Y9620D01*
X31545Y9626D01*
X31547Y9631D01*
X31548Y9633D01*
X31564Y9681D01*
X31597Y9747D01*
X31641Y9807D01*
X31693Y9859D01*
X31753Y9903D01*
X31819Y9936D01*
X31890Y9959D01*
X31901Y9961D01*
X31901Y9550D01*
X31901Y9545D01*
X31902Y9540D01*
X31902Y9539D01*
X31902Y9538D01*
X31904Y9533D01*
X31906Y9528D01*
X31906Y9527D01*
X31907Y9526D01*
X31910Y9522D01*
X31913Y9518D01*
X31914Y9517D01*
X31914Y9516D01*
X31918Y9513D01*
X31922Y9510D01*
X31923Y9509D01*
X31924Y9508D01*
X31928Y9506D01*
X31933Y9504D01*
X31934Y9504D01*
X31935Y9503D01*
X31947Y9501D01*
X31949Y9501D01*
X31950Y9501D01*
X32050Y9501D01*
X32055Y9501D01*
X32060Y9502D01*
X32061Y9502D01*
X32062Y9502D01*
X32067Y9504D01*
X32072Y9506D01*
X32073Y9506D01*
X32074Y9507D01*
X32078Y9510D01*
X32082Y9513D01*
X32083Y9514D01*
X32084Y9514D01*
X32087Y9518D01*
X32090Y9522D01*
X32091Y9523D01*
X32092Y9524D01*
X32094Y9528D01*
X32096Y9533D01*
X32096Y9534D01*
X32097Y9535D01*
X32099Y9547D01*
X32099Y9549D01*
X32099Y9550D01*
X32099Y9961D01*
X32110Y9959D01*
X32181Y9936D01*
X32247Y9903D01*
X32307Y9859D01*
X32359Y9807D01*
X32403Y9747D01*
X32436Y9681D01*
X32452Y9633D01*
X32452Y9632D01*
X32453Y9631D01*
X32455Y9626D01*
X32457Y9622D01*
X32458Y9621D01*
X32458Y9620D01*
X32462Y9616D01*
X32465Y9612D01*
X32466Y9612D01*
X32467Y9611D01*
X32471Y9608D01*
X32475Y9605D01*
X32476Y9605D01*
X32477Y9604D01*
X32482Y9602D01*
X32487Y9600D01*
X32488Y9600D01*
X32489Y9600D01*
X32494Y9600D01*
X32499Y9599D01*
X32500Y9599D01*
X32502Y9599D01*
X32506Y9600D01*
X32511Y9601D01*
X32513Y9601D01*
X32514Y9601D01*
X32518Y9604D01*
X32523Y9605D01*
X32524Y9606D01*
X32525Y9607D01*
X32529Y9610D01*
X32533Y9613D01*
X32534Y9614D01*
X32535Y9615D01*
X32536Y9617D01*
X32541Y9623D01*
X32543Y9627D01*
X32544Y9629D01*
X32601Y9767D01*
X32733Y9899D01*
X32906Y9971D01*
X33094Y9971D01*
X33267Y9899D01*
X33385Y9780D01*
X33390Y9777D01*
X33394Y9774D01*
X33395Y9773D01*
X33400Y9771D01*
X33405Y9768D01*
X33406Y9768D01*
X33407Y9768D01*
X33412Y9767D01*
X33417Y9766D01*
X33418Y9766D01*
X33419Y9766D01*
X33424Y9767D01*
X33430Y9767D01*
X33431Y9767D01*
X33436Y9769D01*
X33442Y9771D01*
X33443Y9772D01*
X33447Y9775D01*
X33452Y9778D01*
X33453Y9779D01*
X33457Y9783D01*
X33460Y9787D01*
X33461Y9788D01*
X33464Y9793D01*
X33466Y9798D01*
X33466Y9799D01*
X33467Y9799D01*
X33469Y9811D01*
X33469Y9814D01*
X33469Y9815D01*
X33469Y30996D01*
X33469Y30998D01*
X33469Y30999D01*
X33465Y31071D01*
X33463Y31078D01*
X33463Y31081D01*
X33426Y31219D01*
X33421Y31231D01*
X33349Y31356D01*
X33342Y31365D01*
X33341Y31366D01*
X33240Y31467D01*
X33230Y31475D01*
X33105Y31547D01*
X33094Y31552D01*
X33093Y31552D01*
X32955Y31589D01*
X32948Y31590D01*
X32945Y31591D01*
X32873Y31595D01*
X32871Y31595D01*
X32870Y31595D01*
X22250Y31595D01*
X22248Y31595D01*
X22247Y31595D01*
X22175Y31591D01*
X22168Y31589D01*
X22165Y31589D01*
X22027Y31552D01*
X22015Y31547D01*
X21891Y31475D01*
X21881Y31468D01*
X21881Y31467D01*
X21880Y31467D01*
X21779Y31366D01*
X21771Y31356D01*
X21699Y31231D01*
X21697Y31226D01*
X21695Y31221D01*
X21695Y31220D01*
X21694Y31220D01*
X21694Y31219D01*
X21657Y31081D01*
X21656Y31074D01*
X21656Y31071D01*
X21651Y30999D01*
X21651Y30997D01*
X21651Y30996D01*
X21651Y9000D01*
X21651Y8998D01*
X21651Y8997D01*
X21656Y8925D01*
X21657Y8918D01*
X21657Y8915D01*
X21694Y8777D01*
X21699Y8765D01*
X21771Y8641D01*
X21779Y8631D01*
X21779Y8630D01*
X21880Y8529D01*
X21890Y8521D01*
X21891Y8521D01*
X22015Y8449D01*
X22026Y8444D01*
X22027Y8444D01*
X22165Y8407D01*
X22173Y8406D01*
X22175Y8406D01*
X22247Y8401D01*
X22249Y8401D01*
X22250Y8401D01*
X32870Y8401D01*
X32872Y8401D01*
G37*
%LPC*%
G36*
X22406Y9029D02*
X22406Y9029D01*
X22233Y9101D01*
X22101Y9233D01*
X22029Y9406D01*
X22029Y9594D01*
X22101Y9767D01*
X22233Y9899D01*
X22406Y9971D01*
X22594Y9971D01*
X22699Y9927D01*
X22701Y9927D01*
X22702Y9926D01*
X22707Y9925D01*
X22711Y9924D01*
X22713Y9924D01*
X22714Y9923D01*
X22719Y9924D01*
X22724Y9924D01*
X22725Y9924D01*
X22727Y9924D01*
X22731Y9925D01*
X22736Y9927D01*
X22737Y9927D01*
X22738Y9928D01*
X22740Y9929D01*
X22747Y9932D01*
X22751Y9936D01*
X22753Y9938D01*
X25542Y12727D01*
X25545Y12731D01*
X25548Y12734D01*
X25549Y12736D01*
X25550Y12737D01*
X25552Y12741D01*
X25554Y12745D01*
X25554Y12746D01*
X25555Y12748D01*
X25557Y12761D01*
X25557Y12762D01*
X25557Y18679D01*
X26196Y19318D01*
X27492Y19318D01*
X27568Y19242D01*
X27568Y18955D01*
X27568Y18953D01*
X27568Y18952D01*
X27569Y18947D01*
X27570Y18942D01*
X27570Y18941D01*
X27571Y18939D01*
X27573Y18935D01*
X27574Y18931D01*
X27575Y18930D01*
X27576Y18928D01*
X27579Y18925D01*
X27582Y18921D01*
X27583Y18920D01*
X27584Y18919D01*
X27586Y18917D01*
X27591Y18913D01*
X27597Y18910D01*
X27599Y18909D01*
X27735Y18852D01*
X27852Y18735D01*
X27916Y18583D01*
X27916Y18417D01*
X27852Y18265D01*
X27735Y18148D01*
X27583Y18084D01*
X27417Y18084D01*
X27265Y18148D01*
X27148Y18265D01*
X27084Y18417D01*
X27084Y18583D01*
X27148Y18735D01*
X27265Y18852D01*
X27276Y18857D01*
X27278Y18858D01*
X27279Y18859D01*
X27283Y18861D01*
X27287Y18863D01*
X27288Y18865D01*
X27289Y18865D01*
X27293Y18869D01*
X27296Y18872D01*
X27297Y18873D01*
X27298Y18875D01*
X27300Y18879D01*
X27302Y18883D01*
X27303Y18884D01*
X27304Y18886D01*
X27304Y18888D01*
X27306Y18895D01*
X27306Y18900D01*
X27307Y18903D01*
X27307Y19008D01*
X27306Y19012D01*
X27306Y19017D01*
X27305Y19019D01*
X27305Y19020D01*
X27303Y19024D01*
X27302Y19029D01*
X27301Y19030D01*
X27301Y19031D01*
X27298Y19035D01*
X27295Y19039D01*
X27294Y19040D01*
X27293Y19041D01*
X27289Y19045D01*
X27286Y19048D01*
X27285Y19048D01*
X27284Y19049D01*
X27279Y19051D01*
X27275Y19054D01*
X27274Y19054D01*
X27272Y19054D01*
X27260Y19057D01*
X27259Y19057D01*
X27258Y19057D01*
X26325Y19057D01*
X26320Y19056D01*
X26316Y19056D01*
X26314Y19055D01*
X26312Y19055D01*
X26308Y19054D01*
X26304Y19052D01*
X26303Y19051D01*
X26301Y19051D01*
X26291Y19043D01*
X26290Y19043D01*
X26290Y19042D01*
X25833Y18585D01*
X25830Y18582D01*
X25827Y18579D01*
X25826Y18577D01*
X25825Y18575D01*
X25823Y18571D01*
X25821Y18568D01*
X25821Y18566D01*
X25820Y18564D01*
X25818Y18552D01*
X25818Y18551D01*
X25818Y18550D01*
X25818Y18122D01*
X25819Y18117D01*
X25820Y18111D01*
X25820Y18110D01*
X25822Y18105D01*
X25824Y18099D01*
X25824Y18098D01*
X25828Y18094D01*
X25831Y18089D01*
X25832Y18088D01*
X25836Y18085D01*
X25840Y18081D01*
X25841Y18081D01*
X25841Y18080D01*
X25846Y18078D01*
X25851Y18075D01*
X25852Y18075D01*
X25853Y18075D01*
X25858Y18074D01*
X25864Y18073D01*
X25865Y18073D01*
X25870Y18073D01*
X25876Y18074D01*
X25877Y18074D01*
X25883Y18076D01*
X25888Y18077D01*
X25888Y18078D01*
X25889Y18078D01*
X25899Y18085D01*
X25901Y18086D01*
X25902Y18087D01*
X26104Y18289D01*
X26105Y18291D01*
X26106Y18291D01*
X26109Y18295D01*
X26112Y18299D01*
X26113Y18301D01*
X26113Y18302D01*
X26115Y18306D01*
X26117Y18311D01*
X26117Y18312D01*
X26118Y18313D01*
X26118Y18318D01*
X26119Y18323D01*
X26119Y18324D01*
X26119Y18326D01*
X26118Y18328D01*
X26118Y18335D01*
X26116Y18340D01*
X26115Y18343D01*
X26084Y18417D01*
X26084Y18583D01*
X26148Y18735D01*
X26265Y18852D01*
X26417Y18916D01*
X26583Y18916D01*
X26735Y18852D01*
X26852Y18735D01*
X26916Y18583D01*
X26916Y18417D01*
X26852Y18265D01*
X26735Y18148D01*
X26583Y18084D01*
X26417Y18084D01*
X26343Y18115D01*
X26342Y18115D01*
X26340Y18116D01*
X26336Y18117D01*
X26331Y18118D01*
X26329Y18118D01*
X26328Y18119D01*
X26323Y18118D01*
X26319Y18119D01*
X26317Y18118D01*
X26316Y18118D01*
X26311Y18117D01*
X26306Y18116D01*
X26305Y18115D01*
X26304Y18114D01*
X26302Y18113D01*
X26296Y18110D01*
X26291Y18106D01*
X26289Y18104D01*
X25958Y17773D01*
X25955Y17769D01*
X25952Y17766D01*
X25951Y17764D01*
X25950Y17763D01*
X25948Y17759D01*
X25946Y17755D01*
X25946Y17754D01*
X25945Y17752D01*
X25943Y17739D01*
X25943Y17738D01*
X25943Y15935D01*
X25944Y15929D01*
X25944Y15926D01*
X25945Y15923D01*
X25945Y15922D01*
X25947Y15917D01*
X25949Y15912D01*
X25949Y15911D01*
X25953Y15906D01*
X25956Y15902D01*
X25956Y15901D01*
X25957Y15901D01*
X25961Y15897D01*
X25965Y15893D01*
X25966Y15893D01*
X25971Y15890D01*
X25976Y15888D01*
X25977Y15888D01*
X25978Y15888D01*
X25983Y15887D01*
X25989Y15885D01*
X25990Y15885D01*
X25995Y15886D01*
X26001Y15886D01*
X26002Y15886D01*
X26008Y15888D01*
X26013Y15890D01*
X26014Y15890D01*
X26024Y15897D01*
X26026Y15899D01*
X26027Y15900D01*
X28235Y18107D01*
X28238Y18111D01*
X28241Y18115D01*
X28242Y18116D01*
X28243Y18117D01*
X28245Y18122D01*
X28247Y18126D01*
X28247Y18127D01*
X28248Y18129D01*
X28248Y18134D01*
X28249Y18138D01*
X28249Y18140D01*
X28249Y18141D01*
X28249Y18146D01*
X28249Y18151D01*
X28248Y18152D01*
X28248Y18153D01*
X28246Y18158D01*
X28245Y18163D01*
X28244Y18164D01*
X28244Y18165D01*
X28237Y18175D01*
X28236Y18176D01*
X28235Y18177D01*
X28148Y18265D01*
X28084Y18417D01*
X28084Y18583D01*
X28148Y18735D01*
X28265Y18852D01*
X28417Y18916D01*
X28583Y18916D01*
X28735Y18852D01*
X28852Y18735D01*
X28916Y18583D01*
X28916Y18417D01*
X28852Y18265D01*
X28735Y18148D01*
X28590Y18087D01*
X28589Y18087D01*
X28588Y18087D01*
X28587Y18085D01*
X28579Y18081D01*
X28576Y18078D01*
X28574Y18077D01*
X26208Y15710D01*
X26205Y15707D01*
X26202Y15704D01*
X26201Y15702D01*
X26200Y15700D01*
X26198Y15696D01*
X26196Y15693D01*
X26196Y15691D01*
X26195Y15689D01*
X26193Y15677D01*
X26193Y15676D01*
X26193Y15675D01*
X26193Y12897D01*
X26194Y12894D01*
X26193Y12892D01*
X26194Y12888D01*
X26195Y12884D01*
X26196Y12882D01*
X26196Y12880D01*
X26198Y12877D01*
X26199Y12873D01*
X26201Y12871D01*
X26202Y12869D01*
X26204Y12866D01*
X26207Y12863D01*
X26208Y12861D01*
X26210Y12860D01*
X26213Y12857D01*
X26216Y12855D01*
X26218Y12854D01*
X26220Y12853D01*
X26224Y12851D01*
X26228Y12850D01*
X26230Y12849D01*
X26232Y12849D01*
X26236Y12848D01*
X26240Y12847D01*
X26242Y12848D01*
X26244Y12847D01*
X26247Y12848D01*
X26252Y12848D01*
X26259Y12851D01*
X26261Y12851D01*
X26417Y12916D01*
X26583Y12916D01*
X26735Y12852D01*
X26852Y12735D01*
X26916Y12583D01*
X26916Y12417D01*
X26852Y12265D01*
X26735Y12148D01*
X26583Y12084D01*
X26417Y12084D01*
X26386Y12097D01*
X26384Y12098D01*
X26382Y12099D01*
X26378Y12099D01*
X26374Y12100D01*
X26372Y12100D01*
X26370Y12101D01*
X26366Y12100D01*
X26362Y12101D01*
X26360Y12100D01*
X26358Y12100D01*
X26354Y12099D01*
X26350Y12098D01*
X26348Y12097D01*
X26346Y12096D01*
X26342Y12094D01*
X26339Y12092D01*
X26337Y12090D01*
X26336Y12089D01*
X26333Y12086D01*
X26330Y12083D01*
X26329Y12081D01*
X26327Y12080D01*
X26325Y12076D01*
X26323Y12073D01*
X26322Y12071D01*
X26321Y12069D01*
X26321Y12066D01*
X26319Y12061D01*
X26319Y12054D01*
X26318Y12052D01*
X26318Y11946D01*
X24958Y10585D01*
X24955Y10582D01*
X24952Y10579D01*
X24951Y10577D01*
X24950Y10575D01*
X24948Y10571D01*
X24946Y10568D01*
X24946Y10566D01*
X24945Y10564D01*
X24943Y10552D01*
X24943Y10551D01*
X24943Y10550D01*
X24943Y9962D01*
X24943Y9961D01*
X24943Y9959D01*
X24944Y9955D01*
X24945Y9950D01*
X24945Y9949D01*
X24946Y9947D01*
X24948Y9943D01*
X24949Y9939D01*
X24950Y9937D01*
X24951Y9936D01*
X24954Y9932D01*
X24957Y9928D01*
X24958Y9928D01*
X24959Y9926D01*
X24961Y9925D01*
X24966Y9921D01*
X24972Y9918D01*
X24974Y9917D01*
X25017Y9899D01*
X25149Y9767D01*
X25204Y9633D01*
X25207Y9628D01*
X25210Y9623D01*
X25211Y9622D01*
X25215Y9618D01*
X25218Y9614D01*
X25219Y9614D01*
X25219Y9613D01*
X25224Y9610D01*
X25229Y9607D01*
X25230Y9607D01*
X25235Y9605D01*
X25241Y9603D01*
X25242Y9603D01*
X25247Y9603D01*
X25253Y9603D01*
X25254Y9603D01*
X25260Y9604D01*
X25265Y9605D01*
X25266Y9605D01*
X25271Y9608D01*
X25276Y9610D01*
X25277Y9611D01*
X25278Y9611D01*
X25282Y9615D01*
X25286Y9618D01*
X25286Y9619D01*
X25287Y9619D01*
X25294Y9629D01*
X25295Y9632D01*
X25295Y9633D01*
X25351Y9767D01*
X25483Y9899D01*
X25651Y9969D01*
X25653Y9969D01*
X25654Y9970D01*
X25658Y9973D01*
X25662Y9975D01*
X25663Y9976D01*
X25664Y9977D01*
X25668Y9980D01*
X25671Y9984D01*
X25672Y9985D01*
X25673Y9986D01*
X25675Y9990D01*
X25677Y9994D01*
X25678Y9996D01*
X25679Y9997D01*
X25679Y9999D01*
X25681Y10006D01*
X25681Y10012D01*
X25682Y10014D01*
X25682Y10867D01*
X25773Y10958D01*
X27104Y12289D01*
X27105Y12291D01*
X27106Y12291D01*
X27109Y12295D01*
X27112Y12299D01*
X27113Y12301D01*
X27113Y12302D01*
X27115Y12306D01*
X27117Y12311D01*
X27117Y12312D01*
X27118Y12313D01*
X27118Y12318D01*
X27119Y12323D01*
X27119Y12324D01*
X27119Y12326D01*
X27118Y12328D01*
X27118Y12335D01*
X27116Y12340D01*
X27115Y12343D01*
X27084Y12417D01*
X27084Y12583D01*
X27148Y12735D01*
X27265Y12852D01*
X27417Y12916D01*
X27583Y12916D01*
X27735Y12852D01*
X27852Y12735D01*
X27916Y12583D01*
X27916Y12417D01*
X27852Y12265D01*
X27735Y12148D01*
X27583Y12084D01*
X27417Y12084D01*
X27343Y12115D01*
X27342Y12115D01*
X27340Y12116D01*
X27336Y12117D01*
X27331Y12118D01*
X27329Y12118D01*
X27328Y12119D01*
X27323Y12118D01*
X27319Y12119D01*
X27317Y12118D01*
X27316Y12118D01*
X27311Y12117D01*
X27306Y12116D01*
X27305Y12115D01*
X27304Y12114D01*
X27302Y12113D01*
X27296Y12110D01*
X27291Y12106D01*
X27289Y12104D01*
X25958Y10773D01*
X25955Y10769D01*
X25952Y10766D01*
X25951Y10764D01*
X25950Y10763D01*
X25948Y10759D01*
X25946Y10755D01*
X25946Y10754D01*
X25945Y10752D01*
X25943Y10739D01*
X25943Y10738D01*
X25943Y9962D01*
X25943Y9961D01*
X25943Y9959D01*
X25944Y9955D01*
X25945Y9950D01*
X25945Y9949D01*
X25946Y9947D01*
X25948Y9943D01*
X25949Y9939D01*
X25950Y9937D01*
X25951Y9936D01*
X25954Y9932D01*
X25957Y9928D01*
X25958Y9928D01*
X25959Y9926D01*
X25961Y9925D01*
X25966Y9921D01*
X25972Y9918D01*
X25974Y9917D01*
X26017Y9899D01*
X26149Y9767D01*
X26204Y9633D01*
X26207Y9628D01*
X26210Y9623D01*
X26211Y9622D01*
X26215Y9618D01*
X26218Y9614D01*
X26219Y9614D01*
X26219Y9613D01*
X26224Y9610D01*
X26229Y9607D01*
X26230Y9607D01*
X26235Y9605D01*
X26241Y9603D01*
X26242Y9603D01*
X26247Y9603D01*
X26253Y9603D01*
X26254Y9603D01*
X26260Y9604D01*
X26265Y9605D01*
X26266Y9605D01*
X26271Y9608D01*
X26276Y9610D01*
X26277Y9611D01*
X26278Y9611D01*
X26282Y9615D01*
X26286Y9618D01*
X26286Y9619D01*
X26287Y9619D01*
X26294Y9629D01*
X26295Y9632D01*
X26295Y9633D01*
X26351Y9767D01*
X26483Y9899D01*
X26651Y9969D01*
X26653Y9969D01*
X26654Y9970D01*
X26658Y9973D01*
X26662Y9975D01*
X26663Y9976D01*
X26664Y9977D01*
X26668Y9980D01*
X26671Y9984D01*
X26672Y9985D01*
X26673Y9986D01*
X26675Y9990D01*
X26677Y9994D01*
X26678Y9996D01*
X26679Y9997D01*
X26679Y9999D01*
X26681Y10006D01*
X26681Y10012D01*
X26682Y10014D01*
X26682Y10867D01*
X26773Y10958D01*
X28104Y12289D01*
X28105Y12291D01*
X28106Y12291D01*
X28109Y12295D01*
X28112Y12299D01*
X28113Y12301D01*
X28113Y12302D01*
X28115Y12306D01*
X28117Y12311D01*
X28117Y12312D01*
X28118Y12313D01*
X28118Y12318D01*
X28119Y12323D01*
X28119Y12324D01*
X28119Y12326D01*
X28118Y12328D01*
X28118Y12335D01*
X28116Y12340D01*
X28115Y12343D01*
X28084Y12417D01*
X28084Y12583D01*
X28148Y12735D01*
X28265Y12852D01*
X28417Y12916D01*
X28583Y12916D01*
X28735Y12852D01*
X28852Y12735D01*
X28916Y12583D01*
X28916Y12417D01*
X28852Y12265D01*
X28735Y12148D01*
X28583Y12084D01*
X28417Y12084D01*
X28343Y12115D01*
X28342Y12115D01*
X28340Y12116D01*
X28336Y12117D01*
X28331Y12118D01*
X28329Y12118D01*
X28328Y12119D01*
X28323Y12118D01*
X28319Y12119D01*
X28317Y12118D01*
X28316Y12118D01*
X28311Y12117D01*
X28306Y12116D01*
X28305Y12115D01*
X28304Y12114D01*
X28302Y12113D01*
X28296Y12110D01*
X28291Y12106D01*
X28289Y12104D01*
X26958Y10773D01*
X26955Y10769D01*
X26952Y10766D01*
X26951Y10764D01*
X26950Y10763D01*
X26948Y10759D01*
X26946Y10755D01*
X26946Y10754D01*
X26945Y10752D01*
X26943Y10739D01*
X26943Y10738D01*
X26943Y9962D01*
X26943Y9961D01*
X26943Y9959D01*
X26944Y9955D01*
X26945Y9950D01*
X26945Y9949D01*
X26946Y9947D01*
X26948Y9943D01*
X26949Y9939D01*
X26950Y9937D01*
X26951Y9936D01*
X26954Y9932D01*
X26957Y9928D01*
X26958Y9928D01*
X26959Y9926D01*
X26961Y9925D01*
X26966Y9921D01*
X26972Y9918D01*
X26974Y9917D01*
X27017Y9899D01*
X27149Y9767D01*
X27204Y9633D01*
X27207Y9628D01*
X27210Y9623D01*
X27211Y9622D01*
X27215Y9618D01*
X27218Y9614D01*
X27219Y9614D01*
X27219Y9613D01*
X27224Y9610D01*
X27229Y9607D01*
X27230Y9607D01*
X27235Y9605D01*
X27241Y9603D01*
X27242Y9603D01*
X27247Y9603D01*
X27253Y9603D01*
X27254Y9603D01*
X27260Y9604D01*
X27265Y9605D01*
X27266Y9605D01*
X27271Y9608D01*
X27276Y9610D01*
X27277Y9611D01*
X27278Y9611D01*
X27282Y9615D01*
X27286Y9618D01*
X27286Y9619D01*
X27287Y9619D01*
X27294Y9629D01*
X27295Y9632D01*
X27295Y9633D01*
X27351Y9767D01*
X27483Y9899D01*
X27651Y9969D01*
X27653Y9969D01*
X27654Y9970D01*
X27658Y9973D01*
X27662Y9975D01*
X27663Y9976D01*
X27664Y9977D01*
X27668Y9980D01*
X27671Y9984D01*
X27672Y9985D01*
X27673Y9986D01*
X27675Y9990D01*
X27677Y9994D01*
X27678Y9996D01*
X27679Y9997D01*
X27679Y9999D01*
X27681Y10006D01*
X27681Y10012D01*
X27682Y10014D01*
X27682Y10867D01*
X27773Y10958D01*
X29104Y12289D01*
X29105Y12291D01*
X29106Y12291D01*
X29109Y12295D01*
X29112Y12299D01*
X29113Y12301D01*
X29113Y12302D01*
X29115Y12306D01*
X29117Y12311D01*
X29117Y12312D01*
X29118Y12313D01*
X29118Y12318D01*
X29119Y12323D01*
X29119Y12324D01*
X29119Y12326D01*
X29118Y12328D01*
X29118Y12335D01*
X29116Y12340D01*
X29115Y12343D01*
X29084Y12417D01*
X29084Y12583D01*
X29148Y12735D01*
X29265Y12852D01*
X29417Y12916D01*
X29583Y12916D01*
X29739Y12851D01*
X29741Y12851D01*
X29743Y12850D01*
X29747Y12849D01*
X29751Y12848D01*
X29753Y12848D01*
X29755Y12847D01*
X29759Y12848D01*
X29763Y12848D01*
X29765Y12848D01*
X29767Y12848D01*
X29771Y12850D01*
X29775Y12851D01*
X29777Y12852D01*
X29779Y12852D01*
X29783Y12855D01*
X29786Y12857D01*
X29788Y12858D01*
X29789Y12859D01*
X29792Y12862D01*
X29795Y12865D01*
X29796Y12867D01*
X29798Y12868D01*
X29800Y12872D01*
X29802Y12875D01*
X29803Y12877D01*
X29804Y12879D01*
X29804Y12882D01*
X29806Y12887D01*
X29806Y12894D01*
X29807Y12897D01*
X29807Y17988D01*
X29806Y17992D01*
X29806Y17996D01*
X29805Y17998D01*
X29805Y18000D01*
X29804Y18004D01*
X29802Y18008D01*
X29801Y18010D01*
X29801Y18012D01*
X29793Y18022D01*
X29792Y18023D01*
X29711Y18104D01*
X29709Y18105D01*
X29709Y18106D01*
X29705Y18109D01*
X29701Y18112D01*
X29699Y18113D01*
X29698Y18113D01*
X29694Y18115D01*
X29689Y18117D01*
X29688Y18117D01*
X29687Y18118D01*
X29682Y18118D01*
X29677Y18119D01*
X29676Y18119D01*
X29674Y18119D01*
X29672Y18118D01*
X29665Y18118D01*
X29660Y18116D01*
X29657Y18115D01*
X29583Y18084D01*
X29417Y18084D01*
X29265Y18148D01*
X29148Y18265D01*
X29084Y18417D01*
X29084Y18583D01*
X29148Y18735D01*
X29265Y18852D01*
X29417Y18916D01*
X29583Y18916D01*
X29735Y18852D01*
X29852Y18735D01*
X29916Y18583D01*
X29916Y18417D01*
X29885Y18343D01*
X29885Y18342D01*
X29884Y18340D01*
X29883Y18336D01*
X29882Y18331D01*
X29882Y18329D01*
X29881Y18328D01*
X29882Y18323D01*
X29881Y18319D01*
X29882Y18317D01*
X29882Y18316D01*
X29883Y18311D01*
X29884Y18306D01*
X29885Y18305D01*
X29886Y18304D01*
X29887Y18302D01*
X29890Y18296D01*
X29894Y18291D01*
X29896Y18289D01*
X29977Y18208D01*
X30068Y18117D01*
X30068Y17607D01*
X30069Y17605D01*
X30068Y17603D01*
X30069Y17599D01*
X30070Y17595D01*
X30071Y17593D01*
X30071Y17591D01*
X30073Y17587D01*
X30074Y17583D01*
X30076Y17581D01*
X30077Y17579D01*
X30079Y17576D01*
X30082Y17573D01*
X30083Y17572D01*
X30085Y17570D01*
X30088Y17568D01*
X30091Y17565D01*
X30093Y17564D01*
X30095Y17563D01*
X30099Y17562D01*
X30103Y17560D01*
X30105Y17560D01*
X30107Y17559D01*
X30111Y17559D01*
X30115Y17558D01*
X30117Y17558D01*
X30119Y17558D01*
X30122Y17558D01*
X30127Y17559D01*
X30134Y17561D01*
X30136Y17562D01*
X30138Y17562D01*
X30195Y17562D01*
X30200Y17563D01*
X30205Y17563D01*
X30206Y17564D01*
X30207Y17564D01*
X30212Y17566D01*
X30217Y17567D01*
X30218Y17568D01*
X30219Y17568D01*
X30223Y17571D01*
X30227Y17574D01*
X30228Y17575D01*
X30229Y17576D01*
X30232Y17579D01*
X30235Y17583D01*
X30236Y17584D01*
X30237Y17585D01*
X30239Y17590D01*
X30241Y17594D01*
X30241Y17595D01*
X30242Y17597D01*
X30244Y17609D01*
X30244Y17610D01*
X30244Y17611D01*
X30244Y18147D01*
X30244Y18152D01*
X30244Y18156D01*
X30243Y18158D01*
X30243Y18160D01*
X30241Y18164D01*
X30240Y18168D01*
X30239Y18169D01*
X30238Y18171D01*
X30231Y18181D01*
X30230Y18182D01*
X30148Y18265D01*
X30084Y18417D01*
X30084Y18583D01*
X30148Y18735D01*
X30265Y18852D01*
X30417Y18916D01*
X30583Y18916D01*
X30735Y18852D01*
X30852Y18735D01*
X30916Y18583D01*
X30916Y18417D01*
X30852Y18265D01*
X30735Y18148D01*
X30583Y18084D01*
X30555Y18084D01*
X30550Y18084D01*
X30545Y18083D01*
X30544Y18083D01*
X30543Y18083D01*
X30538Y18081D01*
X30533Y18079D01*
X30532Y18079D01*
X30531Y18078D01*
X30527Y18075D01*
X30523Y18072D01*
X30522Y18072D01*
X30521Y18071D01*
X30518Y18067D01*
X30515Y18063D01*
X30514Y18062D01*
X30513Y18061D01*
X30511Y18057D01*
X30509Y18052D01*
X30509Y18051D01*
X30508Y18050D01*
X30506Y18038D01*
X30506Y18036D01*
X30506Y18035D01*
X30506Y17857D01*
X30506Y17855D01*
X30506Y17853D01*
X30507Y17849D01*
X30507Y17845D01*
X30508Y17843D01*
X30509Y17841D01*
X30510Y17837D01*
X30512Y17833D01*
X30513Y17831D01*
X30514Y17829D01*
X30517Y17826D01*
X30519Y17823D01*
X30521Y17822D01*
X30522Y17820D01*
X30526Y17818D01*
X30529Y17815D01*
X30531Y17814D01*
X30533Y17813D01*
X30536Y17812D01*
X30540Y17810D01*
X30542Y17810D01*
X30544Y17809D01*
X30548Y17809D01*
X30552Y17808D01*
X30555Y17808D01*
X30557Y17808D01*
X30559Y17808D01*
X30565Y17809D01*
X30571Y17811D01*
X30574Y17812D01*
X30575Y17812D01*
X30669Y17812D01*
X30674Y17813D01*
X30678Y17813D01*
X30680Y17813D01*
X30682Y17814D01*
X30686Y17815D01*
X30690Y17817D01*
X30691Y17817D01*
X30693Y17818D01*
X30703Y17826D01*
X30704Y17826D01*
X30704Y17827D01*
X31123Y18245D01*
X31124Y18246D01*
X31125Y18247D01*
X31127Y18251D01*
X31130Y18255D01*
X31131Y18256D01*
X31132Y18258D01*
X31133Y18262D01*
X31135Y18266D01*
X31135Y18268D01*
X31136Y18269D01*
X31136Y18274D01*
X31137Y18279D01*
X31137Y18280D01*
X31137Y18282D01*
X31137Y18284D01*
X31136Y18291D01*
X31134Y18296D01*
X31133Y18299D01*
X31084Y18417D01*
X31084Y18583D01*
X31148Y18735D01*
X31265Y18852D01*
X31417Y18916D01*
X31583Y18916D01*
X31735Y18852D01*
X31852Y18735D01*
X31916Y18583D01*
X31916Y18417D01*
X31852Y18265D01*
X31735Y18148D01*
X31583Y18084D01*
X31417Y18084D01*
X31387Y18097D01*
X31386Y18097D01*
X31384Y18098D01*
X31380Y18099D01*
X31375Y18100D01*
X31374Y18100D01*
X31372Y18100D01*
X31367Y18100D01*
X31363Y18100D01*
X31361Y18100D01*
X31360Y18100D01*
X31355Y18098D01*
X31351Y18097D01*
X31349Y18097D01*
X31348Y18096D01*
X31346Y18095D01*
X31340Y18091D01*
X31336Y18088D01*
X31334Y18086D01*
X30889Y17642D01*
X30886Y17638D01*
X30884Y17635D01*
X30883Y17633D01*
X30881Y17632D01*
X30880Y17628D01*
X30878Y17624D01*
X30878Y17623D01*
X30877Y17620D01*
X30875Y17608D01*
X30875Y17607D01*
X30875Y17513D01*
X30837Y17421D01*
X30766Y17351D01*
X30675Y17313D01*
X30575Y17313D01*
X30505Y17342D01*
X30503Y17342D01*
X30501Y17343D01*
X30497Y17344D01*
X30493Y17345D01*
X30491Y17345D01*
X30489Y17346D01*
X30485Y17345D01*
X30481Y17345D01*
X30479Y17345D01*
X30477Y17345D01*
X30473Y17343D01*
X30469Y17342D01*
X30467Y17341D01*
X30465Y17341D01*
X30461Y17338D01*
X30458Y17336D01*
X30456Y17335D01*
X30454Y17334D01*
X30452Y17331D01*
X30449Y17328D01*
X30448Y17326D01*
X30446Y17325D01*
X30444Y17321D01*
X30442Y17318D01*
X30441Y17316D01*
X30440Y17314D01*
X30440Y17311D01*
X30438Y17306D01*
X30438Y17299D01*
X30437Y17296D01*
X30437Y17263D01*
X30399Y17171D01*
X30329Y17101D01*
X30237Y17063D01*
X30138Y17063D01*
X30136Y17063D01*
X30134Y17064D01*
X30132Y17065D01*
X30128Y17066D01*
X30124Y17067D01*
X30122Y17067D01*
X30120Y17067D01*
X30116Y17067D01*
X30112Y17067D01*
X30110Y17066D01*
X30108Y17066D01*
X30104Y17065D01*
X30100Y17064D01*
X30098Y17063D01*
X30096Y17062D01*
X30092Y17060D01*
X30089Y17058D01*
X30087Y17057D01*
X30086Y17055D01*
X30083Y17052D01*
X30080Y17050D01*
X30079Y17048D01*
X30077Y17046D01*
X30075Y17043D01*
X30073Y17039D01*
X30072Y17037D01*
X30071Y17035D01*
X30071Y17033D01*
X30069Y17027D01*
X30069Y17020D01*
X30068Y17018D01*
X30068Y12775D01*
X30069Y12770D01*
X30070Y12764D01*
X30070Y12763D01*
X30072Y12758D01*
X30074Y12752D01*
X30074Y12751D01*
X30078Y12747D01*
X30081Y12742D01*
X30082Y12741D01*
X30086Y12738D01*
X30090Y12734D01*
X30091Y12734D01*
X30091Y12733D01*
X30096Y12731D01*
X30101Y12728D01*
X30102Y12728D01*
X30103Y12728D01*
X30108Y12727D01*
X30114Y12726D01*
X30115Y12726D01*
X30120Y12726D01*
X30126Y12727D01*
X30127Y12727D01*
X30133Y12729D01*
X30138Y12730D01*
X30138Y12731D01*
X30139Y12731D01*
X30149Y12738D01*
X30151Y12739D01*
X30152Y12740D01*
X30265Y12852D01*
X30417Y12916D01*
X30583Y12916D01*
X30735Y12852D01*
X30852Y12735D01*
X30916Y12583D01*
X30916Y12417D01*
X30852Y12265D01*
X30735Y12148D01*
X30583Y12084D01*
X30417Y12084D01*
X30265Y12148D01*
X30152Y12260D01*
X30148Y12263D01*
X30144Y12267D01*
X30143Y12267D01*
X30142Y12267D01*
X30137Y12270D01*
X30132Y12272D01*
X30131Y12272D01*
X30126Y12273D01*
X30120Y12274D01*
X30119Y12274D01*
X30113Y12274D01*
X30108Y12273D01*
X30107Y12273D01*
X30106Y12273D01*
X30101Y12271D01*
X30096Y12269D01*
X30095Y12269D01*
X30090Y12265D01*
X30086Y12262D01*
X30085Y12262D01*
X30081Y12257D01*
X30077Y12253D01*
X30076Y12252D01*
X30074Y12247D01*
X30071Y12242D01*
X30071Y12241D01*
X30068Y12229D01*
X30069Y12226D01*
X30068Y12225D01*
X30068Y9868D01*
X30069Y9864D01*
X30069Y9859D01*
X30070Y9857D01*
X30070Y9856D01*
X30071Y9852D01*
X30073Y9847D01*
X30074Y9846D01*
X30074Y9844D01*
X30082Y9834D01*
X30082Y9833D01*
X30083Y9833D01*
X30149Y9767D01*
X30221Y9594D01*
X30221Y9406D01*
X30149Y9233D01*
X30017Y9101D01*
X29844Y9029D01*
X29656Y9029D01*
X29483Y9101D01*
X29351Y9233D01*
X29296Y9367D01*
X29293Y9372D01*
X29290Y9377D01*
X29289Y9378D01*
X29285Y9382D01*
X29282Y9386D01*
X29281Y9386D01*
X29281Y9387D01*
X29276Y9390D01*
X29271Y9393D01*
X29270Y9393D01*
X29265Y9395D01*
X29259Y9397D01*
X29258Y9397D01*
X29253Y9397D01*
X29247Y9397D01*
X29246Y9397D01*
X29240Y9396D01*
X29235Y9395D01*
X29234Y9395D01*
X29229Y9392D01*
X29224Y9390D01*
X29223Y9389D01*
X29222Y9389D01*
X29218Y9385D01*
X29214Y9382D01*
X29214Y9381D01*
X29213Y9381D01*
X29206Y9371D01*
X29205Y9368D01*
X29204Y9367D01*
X29149Y9233D01*
X29017Y9101D01*
X28844Y9029D01*
X28656Y9029D01*
X28483Y9101D01*
X28351Y9233D01*
X28295Y9367D01*
X28293Y9372D01*
X28290Y9377D01*
X28289Y9378D01*
X28285Y9382D01*
X28282Y9386D01*
X28281Y9386D01*
X28281Y9387D01*
X28276Y9390D01*
X28271Y9393D01*
X28270Y9393D01*
X28265Y9395D01*
X28259Y9397D01*
X28258Y9397D01*
X28253Y9397D01*
X28247Y9397D01*
X28246Y9397D01*
X28240Y9396D01*
X28235Y9395D01*
X28234Y9395D01*
X28229Y9392D01*
X28224Y9390D01*
X28223Y9389D01*
X28222Y9389D01*
X28218Y9385D01*
X28214Y9382D01*
X28214Y9381D01*
X28213Y9381D01*
X28206Y9371D01*
X28205Y9368D01*
X28204Y9367D01*
X28149Y9233D01*
X28017Y9101D01*
X27844Y9029D01*
X27656Y9029D01*
X27483Y9101D01*
X27351Y9233D01*
X27295Y9367D01*
X27293Y9372D01*
X27290Y9377D01*
X27289Y9378D01*
X27285Y9382D01*
X27282Y9386D01*
X27281Y9386D01*
X27281Y9387D01*
X27276Y9390D01*
X27271Y9393D01*
X27270Y9393D01*
X27265Y9395D01*
X27259Y9397D01*
X27258Y9397D01*
X27253Y9397D01*
X27247Y9397D01*
X27246Y9397D01*
X27240Y9396D01*
X27235Y9395D01*
X27234Y9395D01*
X27229Y9392D01*
X27224Y9390D01*
X27223Y9389D01*
X27222Y9389D01*
X27218Y9385D01*
X27214Y9382D01*
X27214Y9381D01*
X27213Y9381D01*
X27206Y9371D01*
X27205Y9368D01*
X27204Y9367D01*
X27149Y9233D01*
X27017Y9101D01*
X26844Y9029D01*
X26656Y9029D01*
X26483Y9101D01*
X26351Y9233D01*
X26295Y9367D01*
X26293Y9372D01*
X26290Y9377D01*
X26289Y9378D01*
X26285Y9382D01*
X26282Y9386D01*
X26281Y9386D01*
X26281Y9387D01*
X26276Y9390D01*
X26271Y9393D01*
X26270Y9393D01*
X26265Y9395D01*
X26259Y9397D01*
X26258Y9397D01*
X26253Y9397D01*
X26247Y9397D01*
X26246Y9397D01*
X26240Y9396D01*
X26235Y9395D01*
X26234Y9395D01*
X26229Y9392D01*
X26224Y9390D01*
X26223Y9389D01*
X26222Y9389D01*
X26218Y9385D01*
X26214Y9382D01*
X26214Y9381D01*
X26213Y9381D01*
X26206Y9371D01*
X26205Y9368D01*
X26204Y9367D01*
X26149Y9233D01*
X26017Y9101D01*
X25844Y9029D01*
X25656Y9029D01*
X25483Y9101D01*
X25351Y9233D01*
X25295Y9367D01*
X25293Y9372D01*
X25290Y9377D01*
X25289Y9378D01*
X25285Y9382D01*
X25282Y9386D01*
X25281Y9386D01*
X25281Y9387D01*
X25276Y9390D01*
X25271Y9393D01*
X25270Y9393D01*
X25265Y9395D01*
X25259Y9397D01*
X25258Y9397D01*
X25253Y9397D01*
X25247Y9397D01*
X25246Y9397D01*
X25240Y9396D01*
X25235Y9395D01*
X25234Y9395D01*
X25229Y9392D01*
X25224Y9390D01*
X25223Y9389D01*
X25222Y9389D01*
X25218Y9385D01*
X25214Y9382D01*
X25214Y9381D01*
X25213Y9381D01*
X25206Y9371D01*
X25205Y9368D01*
X25204Y9367D01*
X25149Y9233D01*
X25017Y9101D01*
X24844Y9029D01*
X24656Y9029D01*
X24483Y9101D01*
X24351Y9233D01*
X24279Y9406D01*
X24279Y9594D01*
X24351Y9767D01*
X24483Y9899D01*
X24651Y9969D01*
X24653Y9969D01*
X24654Y9970D01*
X24658Y9973D01*
X24662Y9975D01*
X24663Y9976D01*
X24664Y9977D01*
X24668Y9980D01*
X24671Y9984D01*
X24672Y9985D01*
X24673Y9986D01*
X24675Y9990D01*
X24677Y9994D01*
X24678Y9996D01*
X24679Y9997D01*
X24679Y9999D01*
X24681Y10006D01*
X24681Y10012D01*
X24682Y10014D01*
X24682Y10378D01*
X24681Y10383D01*
X24680Y10389D01*
X24680Y10390D01*
X24678Y10395D01*
X24676Y10401D01*
X24676Y10402D01*
X24672Y10406D01*
X24669Y10411D01*
X24668Y10412D01*
X24664Y10415D01*
X24660Y10419D01*
X24659Y10419D01*
X24659Y10420D01*
X24654Y10422D01*
X24649Y10425D01*
X24648Y10425D01*
X24647Y10425D01*
X24642Y10426D01*
X24636Y10427D01*
X24635Y10427D01*
X24630Y10427D01*
X24624Y10426D01*
X24623Y10426D01*
X24617Y10424D01*
X24612Y10423D01*
X24612Y10422D01*
X24611Y10422D01*
X24601Y10415D01*
X24599Y10414D01*
X24598Y10413D01*
X23938Y9753D01*
X23937Y9752D01*
X23936Y9751D01*
X23933Y9747D01*
X23930Y9743D01*
X23930Y9742D01*
X23929Y9740D01*
X23927Y9736D01*
X23925Y9732D01*
X23925Y9730D01*
X23924Y9729D01*
X23924Y9724D01*
X23923Y9719D01*
X23923Y9718D01*
X23923Y9716D01*
X23924Y9714D01*
X23925Y9707D01*
X23927Y9702D01*
X23927Y9699D01*
X23971Y9594D01*
X23971Y9406D01*
X23899Y9233D01*
X23767Y9101D01*
X23594Y9029D01*
X23406Y9029D01*
X23233Y9101D01*
X23101Y9233D01*
X23046Y9367D01*
X23043Y9372D01*
X23040Y9377D01*
X23039Y9378D01*
X23035Y9382D01*
X23032Y9386D01*
X23031Y9386D01*
X23031Y9387D01*
X23026Y9390D01*
X23021Y9393D01*
X23020Y9393D01*
X23015Y9395D01*
X23009Y9397D01*
X23008Y9397D01*
X23003Y9397D01*
X22997Y9397D01*
X22996Y9397D01*
X22990Y9396D01*
X22985Y9395D01*
X22984Y9395D01*
X22979Y9392D01*
X22974Y9390D01*
X22973Y9389D01*
X22972Y9389D01*
X22968Y9385D01*
X22964Y9382D01*
X22964Y9381D01*
X22963Y9381D01*
X22956Y9371D01*
X22955Y9368D01*
X22954Y9367D01*
X22899Y9233D01*
X22767Y9101D01*
X22594Y9029D01*
X22406Y9029D01*
G37*
%LPD*%
%LPC*%
G36*
X31363Y23459D02*
X31363Y23459D01*
X31098Y23530D01*
X30861Y23667D01*
X30667Y23861D01*
X30530Y24098D01*
X30459Y24363D01*
X30459Y24637D01*
X30530Y24902D01*
X30667Y25139D01*
X30862Y25333D01*
X30864Y25336D01*
X30869Y25339D01*
X30870Y25340D01*
X30873Y25344D01*
X30877Y25348D01*
X30877Y25349D01*
X30878Y25350D01*
X30880Y25355D01*
X30882Y25359D01*
X30882Y25360D01*
X30883Y25361D01*
X30884Y25366D01*
X30885Y25372D01*
X30885Y25373D01*
X30884Y25379D01*
X30884Y25384D01*
X30884Y25385D01*
X30884Y25386D01*
X30882Y25391D01*
X30880Y25396D01*
X30880Y25397D01*
X30879Y25397D01*
X30876Y25402D01*
X30874Y25406D01*
X30873Y25407D01*
X30872Y25408D01*
X30863Y25416D01*
X30862Y25417D01*
X30667Y25611D01*
X30530Y25848D01*
X30459Y26113D01*
X30459Y26387D01*
X30530Y26652D01*
X30667Y26889D01*
X30861Y27083D01*
X31098Y27220D01*
X31363Y27291D01*
X31637Y27291D01*
X31902Y27220D01*
X32139Y27083D01*
X32333Y26889D01*
X32470Y26652D01*
X32541Y26387D01*
X32541Y26113D01*
X32470Y25848D01*
X32333Y25611D01*
X32138Y25417D01*
X32136Y25414D01*
X32131Y25411D01*
X32130Y25410D01*
X32127Y25406D01*
X32123Y25402D01*
X32123Y25401D01*
X32122Y25400D01*
X32120Y25395D01*
X32118Y25391D01*
X32118Y25390D01*
X32117Y25389D01*
X32116Y25384D01*
X32115Y25378D01*
X32115Y25377D01*
X32116Y25371D01*
X32116Y25366D01*
X32116Y25365D01*
X32116Y25364D01*
X32118Y25359D01*
X32120Y25354D01*
X32120Y25353D01*
X32121Y25353D01*
X32124Y25348D01*
X32126Y25344D01*
X32127Y25343D01*
X32128Y25342D01*
X32137Y25334D01*
X32138Y25333D01*
X32333Y25139D01*
X32470Y24902D01*
X32541Y24637D01*
X32541Y24363D01*
X32470Y24098D01*
X32333Y23861D01*
X32139Y23667D01*
X31902Y23530D01*
X31637Y23459D01*
X31363Y23459D01*
G37*
%LPD*%
%LPC*%
G36*
X31363Y19459D02*
X31363Y19459D01*
X31098Y19530D01*
X30861Y19667D01*
X30667Y19861D01*
X30530Y20098D01*
X30459Y20363D01*
X30459Y20637D01*
X30530Y20902D01*
X30667Y21139D01*
X30861Y21333D01*
X31098Y21470D01*
X31363Y21541D01*
X31637Y21541D01*
X31902Y21470D01*
X32139Y21333D01*
X32333Y21139D01*
X32470Y20902D01*
X32541Y20637D01*
X32541Y20363D01*
X32470Y20098D01*
X32333Y19861D01*
X32139Y19667D01*
X31902Y19530D01*
X31637Y19459D01*
X31363Y19459D01*
G37*
%LPD*%
%LPC*%
G36*
X31363Y29209D02*
X31363Y29209D01*
X31098Y29280D01*
X30861Y29417D01*
X30667Y29611D01*
X30530Y29848D01*
X30459Y30113D01*
X30459Y30387D01*
X30530Y30652D01*
X30667Y30889D01*
X30861Y31083D01*
X31098Y31220D01*
X31363Y31291D01*
X31637Y31291D01*
X31902Y31220D01*
X32139Y31083D01*
X32333Y30889D01*
X32470Y30652D01*
X32541Y30387D01*
X32541Y30113D01*
X32470Y29848D01*
X32333Y29611D01*
X32139Y29417D01*
X31902Y29280D01*
X31637Y29209D01*
X31363Y29209D01*
G37*
%LPD*%
%LPC*%
G36*
X28906Y27029D02*
X28906Y27029D01*
X28733Y27101D01*
X28601Y27233D01*
X28529Y27406D01*
X28529Y27594D01*
X28601Y27767D01*
X28733Y27899D01*
X28867Y27954D01*
X28872Y27957D01*
X28877Y27960D01*
X28878Y27961D01*
X28882Y27965D01*
X28886Y27968D01*
X28886Y27969D01*
X28887Y27969D01*
X28890Y27974D01*
X28893Y27979D01*
X28893Y27980D01*
X28895Y27985D01*
X28897Y27991D01*
X28897Y27992D01*
X28897Y27997D01*
X28897Y28003D01*
X28897Y28004D01*
X28896Y28010D01*
X28895Y28015D01*
X28895Y28016D01*
X28892Y28021D01*
X28890Y28026D01*
X28889Y28027D01*
X28889Y28028D01*
X28885Y28032D01*
X28882Y28036D01*
X28881Y28036D01*
X28881Y28037D01*
X28871Y28044D01*
X28868Y28045D01*
X28867Y28045D01*
X28733Y28101D01*
X28601Y28233D01*
X28529Y28406D01*
X28529Y28594D01*
X28601Y28767D01*
X28733Y28899D01*
X28867Y28954D01*
X28872Y28957D01*
X28877Y28960D01*
X28878Y28961D01*
X28882Y28965D01*
X28886Y28968D01*
X28886Y28969D01*
X28887Y28969D01*
X28890Y28974D01*
X28893Y28979D01*
X28893Y28980D01*
X28895Y28985D01*
X28897Y28991D01*
X28897Y28992D01*
X28897Y28997D01*
X28897Y29003D01*
X28897Y29004D01*
X28896Y29010D01*
X28895Y29015D01*
X28895Y29016D01*
X28892Y29021D01*
X28890Y29026D01*
X28889Y29027D01*
X28889Y29028D01*
X28885Y29032D01*
X28882Y29036D01*
X28881Y29036D01*
X28881Y29037D01*
X28871Y29044D01*
X28868Y29045D01*
X28867Y29045D01*
X28733Y29101D01*
X28601Y29233D01*
X28529Y29406D01*
X28529Y29594D01*
X28601Y29767D01*
X28733Y29899D01*
X28906Y29971D01*
X29094Y29971D01*
X29267Y29899D01*
X29399Y29767D01*
X29471Y29594D01*
X29471Y29406D01*
X29399Y29233D01*
X29267Y29101D01*
X29133Y29045D01*
X29128Y29043D01*
X29123Y29040D01*
X29122Y29039D01*
X29118Y29035D01*
X29114Y29032D01*
X29114Y29031D01*
X29113Y29031D01*
X29110Y29026D01*
X29107Y29021D01*
X29107Y29020D01*
X29105Y29015D01*
X29103Y29009D01*
X29103Y29008D01*
X29103Y29003D01*
X29103Y28997D01*
X29103Y28996D01*
X29104Y28990D01*
X29105Y28985D01*
X29105Y28984D01*
X29108Y28979D01*
X29110Y28974D01*
X29111Y28973D01*
X29111Y28972D01*
X29115Y28968D01*
X29118Y28964D01*
X29119Y28964D01*
X29119Y28963D01*
X29129Y28956D01*
X29132Y28955D01*
X29133Y28954D01*
X29267Y28899D01*
X29399Y28767D01*
X29471Y28594D01*
X29471Y28406D01*
X29399Y28233D01*
X29267Y28101D01*
X29133Y28045D01*
X29128Y28043D01*
X29123Y28040D01*
X29122Y28039D01*
X29118Y28035D01*
X29114Y28032D01*
X29114Y28031D01*
X29113Y28031D01*
X29110Y28026D01*
X29107Y28021D01*
X29107Y28020D01*
X29105Y28015D01*
X29103Y28009D01*
X29103Y28008D01*
X29103Y28003D01*
X29103Y27997D01*
X29103Y27996D01*
X29104Y27990D01*
X29105Y27985D01*
X29105Y27984D01*
X29108Y27979D01*
X29110Y27974D01*
X29111Y27973D01*
X29111Y27972D01*
X29115Y27968D01*
X29118Y27964D01*
X29119Y27964D01*
X29119Y27963D01*
X29129Y27956D01*
X29132Y27955D01*
X29133Y27954D01*
X29267Y27899D01*
X29399Y27767D01*
X29471Y27594D01*
X29471Y27406D01*
X29399Y27233D01*
X29267Y27101D01*
X29094Y27029D01*
X28906Y27029D01*
G37*
%LPD*%
%LPC*%
G36*
X27906Y20779D02*
X27906Y20779D01*
X27733Y20851D01*
X27601Y20983D01*
X27529Y21156D01*
X27529Y21344D01*
X27601Y21517D01*
X27733Y21649D01*
X27871Y21706D01*
X27872Y21707D01*
X27873Y21707D01*
X27877Y21710D01*
X27881Y21712D01*
X27882Y21713D01*
X27883Y21714D01*
X27887Y21717D01*
X27890Y21721D01*
X27891Y21722D01*
X27892Y21723D01*
X27894Y21727D01*
X27897Y21731D01*
X27897Y21733D01*
X27898Y21734D01*
X27899Y21739D01*
X27900Y21743D01*
X27900Y21745D01*
X27901Y21746D01*
X27901Y21751D01*
X27901Y21756D01*
X27901Y21757D01*
X27900Y21758D01*
X27899Y21763D01*
X27898Y21768D01*
X27898Y21769D01*
X27897Y21770D01*
X27895Y21775D01*
X27893Y21779D01*
X27892Y21780D01*
X27891Y21781D01*
X27888Y21785D01*
X27884Y21788D01*
X27883Y21789D01*
X27882Y21790D01*
X27880Y21791D01*
X27874Y21795D01*
X27869Y21797D01*
X27867Y21798D01*
X27819Y21814D01*
X27753Y21847D01*
X27693Y21891D01*
X27641Y21943D01*
X27597Y22003D01*
X27564Y22069D01*
X27541Y22140D01*
X27539Y22151D01*
X27950Y22151D01*
X27955Y22151D01*
X27960Y22152D01*
X27961Y22152D01*
X27962Y22152D01*
X27967Y22154D01*
X27972Y22156D01*
X27973Y22156D01*
X27974Y22157D01*
X27978Y22160D01*
X27982Y22163D01*
X27983Y22164D01*
X27984Y22164D01*
X27987Y22168D01*
X27990Y22172D01*
X27991Y22173D01*
X27992Y22174D01*
X27994Y22178D01*
X27996Y22183D01*
X27996Y22184D01*
X27997Y22185D01*
X27999Y22197D01*
X27999Y22199D01*
X27999Y22200D01*
X27999Y22300D01*
X27999Y22305D01*
X27998Y22310D01*
X27998Y22311D01*
X27998Y22312D01*
X27996Y22317D01*
X27994Y22322D01*
X27994Y22323D01*
X27993Y22324D01*
X27990Y22328D01*
X27987Y22332D01*
X27986Y22333D01*
X27986Y22334D01*
X27982Y22337D01*
X27978Y22340D01*
X27977Y22341D01*
X27976Y22342D01*
X27972Y22344D01*
X27967Y22346D01*
X27966Y22346D01*
X27965Y22347D01*
X27953Y22349D01*
X27951Y22349D01*
X27950Y22349D01*
X27539Y22349D01*
X27541Y22360D01*
X27564Y22431D01*
X27597Y22497D01*
X27641Y22557D01*
X27693Y22609D01*
X27753Y22653D01*
X27819Y22686D01*
X27867Y22702D01*
X27868Y22702D01*
X27869Y22703D01*
X27874Y22705D01*
X27878Y22707D01*
X27879Y22708D01*
X27880Y22708D01*
X27884Y22712D01*
X27888Y22715D01*
X27888Y22716D01*
X27889Y22717D01*
X27892Y22721D01*
X27895Y22725D01*
X27895Y22726D01*
X27896Y22727D01*
X27898Y22732D01*
X27900Y22737D01*
X27900Y22738D01*
X27900Y22739D01*
X27900Y22744D01*
X27901Y22749D01*
X27901Y22750D01*
X27901Y22752D01*
X27900Y22756D01*
X27899Y22761D01*
X27899Y22763D01*
X27899Y22764D01*
X27896Y22768D01*
X27895Y22773D01*
X27894Y22774D01*
X27893Y22775D01*
X27890Y22779D01*
X27887Y22783D01*
X27886Y22784D01*
X27885Y22785D01*
X27883Y22786D01*
X27877Y22791D01*
X27873Y22793D01*
X27871Y22794D01*
X27733Y22851D01*
X27601Y22983D01*
X27529Y23156D01*
X27529Y23344D01*
X27601Y23517D01*
X27733Y23649D01*
X27906Y23721D01*
X28094Y23721D01*
X28267Y23649D01*
X28399Y23517D01*
X28471Y23344D01*
X28471Y23156D01*
X28399Y22983D01*
X28267Y22851D01*
X28129Y22794D01*
X28128Y22793D01*
X28127Y22793D01*
X28123Y22790D01*
X28119Y22788D01*
X28118Y22787D01*
X28117Y22786D01*
X28113Y22783D01*
X28110Y22779D01*
X28109Y22778D01*
X28108Y22777D01*
X28106Y22773D01*
X28103Y22769D01*
X28103Y22767D01*
X28102Y22766D01*
X28101Y22761D01*
X28100Y22757D01*
X28100Y22755D01*
X28099Y22754D01*
X28099Y22749D01*
X28099Y22744D01*
X28099Y22743D01*
X28100Y22742D01*
X28101Y22737D01*
X28102Y22732D01*
X28102Y22731D01*
X28103Y22730D01*
X28105Y22725D01*
X28107Y22721D01*
X28108Y22720D01*
X28109Y22719D01*
X28112Y22715D01*
X28116Y22712D01*
X28117Y22711D01*
X28118Y22710D01*
X28120Y22709D01*
X28126Y22705D01*
X28131Y22703D01*
X28133Y22702D01*
X28181Y22686D01*
X28247Y22653D01*
X28307Y22609D01*
X28359Y22557D01*
X28403Y22497D01*
X28436Y22431D01*
X28459Y22360D01*
X28461Y22349D01*
X28050Y22349D01*
X28045Y22349D01*
X28040Y22348D01*
X28039Y22348D01*
X28038Y22348D01*
X28033Y22346D01*
X28028Y22344D01*
X28027Y22344D01*
X28026Y22343D01*
X28022Y22340D01*
X28018Y22337D01*
X28017Y22336D01*
X28016Y22336D01*
X28013Y22332D01*
X28010Y22328D01*
X28009Y22327D01*
X28008Y22326D01*
X28006Y22322D01*
X28004Y22317D01*
X28004Y22316D01*
X28003Y22315D01*
X28001Y22303D01*
X28001Y22301D01*
X28001Y22300D01*
X28001Y22200D01*
X28001Y22195D01*
X28002Y22190D01*
X28002Y22189D01*
X28002Y22188D01*
X28004Y22183D01*
X28006Y22178D01*
X28006Y22177D01*
X28007Y22176D01*
X28010Y22172D01*
X28013Y22168D01*
X28014Y22167D01*
X28014Y22166D01*
X28018Y22163D01*
X28022Y22160D01*
X28023Y22159D01*
X28024Y22158D01*
X28028Y22156D01*
X28033Y22154D01*
X28034Y22154D01*
X28035Y22153D01*
X28047Y22151D01*
X28049Y22151D01*
X28050Y22151D01*
X28461Y22151D01*
X28459Y22140D01*
X28436Y22069D01*
X28403Y22003D01*
X28359Y21943D01*
X28307Y21891D01*
X28247Y21847D01*
X28181Y21814D01*
X28133Y21798D01*
X28132Y21798D01*
X28131Y21797D01*
X28126Y21795D01*
X28122Y21793D01*
X28121Y21792D01*
X28120Y21792D01*
X28116Y21788D01*
X28112Y21785D01*
X28112Y21784D01*
X28111Y21783D01*
X28108Y21779D01*
X28105Y21775D01*
X28105Y21774D01*
X28104Y21773D01*
X28102Y21768D01*
X28100Y21763D01*
X28100Y21762D01*
X28100Y21761D01*
X28100Y21756D01*
X28099Y21751D01*
X28099Y21750D01*
X28099Y21748D01*
X28100Y21744D01*
X28101Y21739D01*
X28101Y21737D01*
X28101Y21736D01*
X28104Y21732D01*
X28105Y21727D01*
X28106Y21726D01*
X28107Y21725D01*
X28110Y21721D01*
X28113Y21717D01*
X28114Y21716D01*
X28115Y21715D01*
X28117Y21714D01*
X28123Y21709D01*
X28127Y21707D01*
X28129Y21706D01*
X28267Y21649D01*
X28399Y21517D01*
X28471Y21344D01*
X28471Y21156D01*
X28399Y20983D01*
X28267Y20851D01*
X28094Y20779D01*
X27906Y20779D01*
G37*
%LPD*%
%LPC*%
G36*
X27906Y26529D02*
X27906Y26529D01*
X27733Y26601D01*
X27601Y26733D01*
X27529Y26906D01*
X27529Y27094D01*
X27601Y27267D01*
X27733Y27399D01*
X27871Y27456D01*
X27872Y27457D01*
X27873Y27457D01*
X27877Y27460D01*
X27881Y27462D01*
X27882Y27463D01*
X27883Y27464D01*
X27887Y27467D01*
X27890Y27471D01*
X27891Y27472D01*
X27892Y27473D01*
X27894Y27477D01*
X27897Y27481D01*
X27897Y27483D01*
X27898Y27484D01*
X27899Y27489D01*
X27900Y27493D01*
X27900Y27495D01*
X27901Y27496D01*
X27901Y27501D01*
X27901Y27506D01*
X27901Y27507D01*
X27900Y27508D01*
X27899Y27513D01*
X27898Y27518D01*
X27898Y27519D01*
X27897Y27520D01*
X27895Y27525D01*
X27893Y27529D01*
X27892Y27530D01*
X27891Y27531D01*
X27888Y27535D01*
X27884Y27538D01*
X27883Y27539D01*
X27882Y27540D01*
X27880Y27541D01*
X27874Y27545D01*
X27869Y27547D01*
X27867Y27548D01*
X27819Y27564D01*
X27753Y27597D01*
X27693Y27641D01*
X27641Y27693D01*
X27597Y27753D01*
X27564Y27819D01*
X27541Y27890D01*
X27539Y27901D01*
X27950Y27901D01*
X27955Y27901D01*
X27960Y27902D01*
X27961Y27902D01*
X27962Y27902D01*
X27967Y27904D01*
X27972Y27906D01*
X27973Y27906D01*
X27974Y27907D01*
X27978Y27910D01*
X27982Y27913D01*
X27983Y27914D01*
X27984Y27914D01*
X27987Y27918D01*
X27990Y27922D01*
X27991Y27923D01*
X27992Y27924D01*
X27994Y27928D01*
X27996Y27933D01*
X27996Y27934D01*
X27997Y27935D01*
X27999Y27947D01*
X27999Y27949D01*
X27999Y27950D01*
X27999Y28050D01*
X27999Y28055D01*
X27998Y28060D01*
X27998Y28061D01*
X27998Y28062D01*
X27996Y28067D01*
X27994Y28072D01*
X27994Y28073D01*
X27993Y28074D01*
X27990Y28078D01*
X27987Y28082D01*
X27986Y28083D01*
X27986Y28084D01*
X27982Y28087D01*
X27978Y28090D01*
X27977Y28091D01*
X27976Y28092D01*
X27972Y28094D01*
X27967Y28096D01*
X27966Y28096D01*
X27965Y28097D01*
X27953Y28099D01*
X27951Y28099D01*
X27950Y28099D01*
X27539Y28099D01*
X27541Y28110D01*
X27564Y28181D01*
X27597Y28247D01*
X27641Y28307D01*
X27693Y28359D01*
X27753Y28403D01*
X27819Y28436D01*
X27867Y28452D01*
X27868Y28452D01*
X27869Y28453D01*
X27874Y28455D01*
X27878Y28457D01*
X27879Y28458D01*
X27880Y28458D01*
X27884Y28462D01*
X27888Y28465D01*
X27888Y28466D01*
X27889Y28467D01*
X27892Y28471D01*
X27895Y28475D01*
X27895Y28476D01*
X27896Y28477D01*
X27898Y28482D01*
X27900Y28487D01*
X27900Y28488D01*
X27900Y28489D01*
X27900Y28494D01*
X27901Y28499D01*
X27901Y28500D01*
X27901Y28502D01*
X27900Y28506D01*
X27899Y28511D01*
X27899Y28513D01*
X27899Y28514D01*
X27896Y28518D01*
X27895Y28523D01*
X27894Y28524D01*
X27893Y28525D01*
X27890Y28529D01*
X27887Y28533D01*
X27886Y28534D01*
X27885Y28535D01*
X27883Y28536D01*
X27877Y28541D01*
X27873Y28543D01*
X27871Y28544D01*
X27733Y28601D01*
X27601Y28733D01*
X27529Y28906D01*
X27529Y29094D01*
X27601Y29267D01*
X27733Y29399D01*
X27906Y29471D01*
X28094Y29471D01*
X28267Y29399D01*
X28399Y29267D01*
X28471Y29094D01*
X28471Y28906D01*
X28399Y28733D01*
X28267Y28601D01*
X28129Y28544D01*
X28128Y28543D01*
X28127Y28543D01*
X28123Y28540D01*
X28119Y28538D01*
X28118Y28537D01*
X28117Y28536D01*
X28113Y28533D01*
X28110Y28529D01*
X28109Y28528D01*
X28108Y28527D01*
X28106Y28523D01*
X28103Y28519D01*
X28103Y28517D01*
X28102Y28516D01*
X28101Y28511D01*
X28100Y28507D01*
X28100Y28505D01*
X28099Y28504D01*
X28099Y28499D01*
X28099Y28494D01*
X28099Y28493D01*
X28100Y28492D01*
X28101Y28487D01*
X28102Y28482D01*
X28102Y28481D01*
X28103Y28480D01*
X28105Y28475D01*
X28107Y28471D01*
X28108Y28470D01*
X28109Y28469D01*
X28112Y28465D01*
X28116Y28462D01*
X28117Y28461D01*
X28118Y28460D01*
X28120Y28459D01*
X28126Y28455D01*
X28131Y28453D01*
X28133Y28452D01*
X28181Y28436D01*
X28247Y28403D01*
X28307Y28359D01*
X28359Y28307D01*
X28403Y28247D01*
X28436Y28181D01*
X28459Y28110D01*
X28461Y28099D01*
X28050Y28099D01*
X28045Y28099D01*
X28040Y28098D01*
X28039Y28098D01*
X28038Y28098D01*
X28033Y28096D01*
X28028Y28094D01*
X28027Y28094D01*
X28026Y28093D01*
X28022Y28090D01*
X28018Y28087D01*
X28017Y28086D01*
X28016Y28086D01*
X28013Y28082D01*
X28010Y28078D01*
X28009Y28077D01*
X28008Y28076D01*
X28006Y28072D01*
X28004Y28067D01*
X28004Y28066D01*
X28003Y28065D01*
X28001Y28053D01*
X28001Y28051D01*
X28001Y28050D01*
X28001Y27950D01*
X28001Y27945D01*
X28002Y27940D01*
X28002Y27939D01*
X28002Y27938D01*
X28004Y27933D01*
X28006Y27928D01*
X28006Y27927D01*
X28007Y27926D01*
X28010Y27922D01*
X28013Y27918D01*
X28014Y27917D01*
X28014Y27916D01*
X28018Y27913D01*
X28022Y27910D01*
X28023Y27909D01*
X28024Y27908D01*
X28028Y27906D01*
X28033Y27904D01*
X28034Y27904D01*
X28035Y27903D01*
X28047Y27901D01*
X28049Y27901D01*
X28050Y27901D01*
X28461Y27901D01*
X28459Y27890D01*
X28436Y27819D01*
X28403Y27753D01*
X28359Y27693D01*
X28307Y27641D01*
X28247Y27597D01*
X28181Y27564D01*
X28133Y27548D01*
X28132Y27548D01*
X28131Y27547D01*
X28126Y27545D01*
X28122Y27543D01*
X28121Y27542D01*
X28120Y27542D01*
X28116Y27538D01*
X28112Y27535D01*
X28112Y27534D01*
X28111Y27533D01*
X28108Y27529D01*
X28105Y27525D01*
X28105Y27524D01*
X28104Y27523D01*
X28102Y27518D01*
X28100Y27513D01*
X28100Y27512D01*
X28100Y27511D01*
X28100Y27506D01*
X28099Y27501D01*
X28099Y27500D01*
X28099Y27498D01*
X28100Y27494D01*
X28101Y27489D01*
X28101Y27487D01*
X28101Y27486D01*
X28104Y27482D01*
X28105Y27477D01*
X28106Y27476D01*
X28107Y27475D01*
X28110Y27471D01*
X28113Y27467D01*
X28114Y27466D01*
X28115Y27465D01*
X28117Y27464D01*
X28123Y27459D01*
X28127Y27457D01*
X28129Y27456D01*
X28267Y27399D01*
X28399Y27267D01*
X28471Y27094D01*
X28471Y26906D01*
X28399Y26733D01*
X28267Y26601D01*
X28094Y26529D01*
X27906Y26529D01*
G37*
%LPD*%
%LPC*%
G36*
X28999Y21749D02*
X28999Y21749D01*
X28999Y21800D01*
X28999Y21805D01*
X28998Y21810D01*
X28998Y21811D01*
X28998Y21812D01*
X28996Y21817D01*
X28994Y21822D01*
X28994Y21823D01*
X28993Y21824D01*
X28990Y21828D01*
X28987Y21832D01*
X28986Y21833D01*
X28986Y21834D01*
X28982Y21837D01*
X28978Y21840D01*
X28977Y21841D01*
X28976Y21842D01*
X28972Y21844D01*
X28967Y21846D01*
X28966Y21846D01*
X28965Y21847D01*
X28953Y21849D01*
X28951Y21849D01*
X28950Y21849D01*
X28539Y21849D01*
X28541Y21860D01*
X28564Y21931D01*
X28597Y21997D01*
X28641Y22057D01*
X28693Y22109D01*
X28753Y22153D01*
X28819Y22186D01*
X28867Y22202D01*
X28868Y22202D01*
X28869Y22203D01*
X28874Y22205D01*
X28878Y22207D01*
X28879Y22208D01*
X28880Y22208D01*
X28884Y22212D01*
X28888Y22215D01*
X28888Y22216D01*
X28889Y22217D01*
X28892Y22221D01*
X28895Y22225D01*
X28895Y22226D01*
X28896Y22227D01*
X28898Y22232D01*
X28900Y22237D01*
X28900Y22238D01*
X28900Y22239D01*
X28900Y22244D01*
X28901Y22249D01*
X28901Y22250D01*
X28901Y22252D01*
X28900Y22256D01*
X28899Y22261D01*
X28899Y22263D01*
X28899Y22264D01*
X28896Y22268D01*
X28895Y22273D01*
X28894Y22274D01*
X28893Y22275D01*
X28890Y22279D01*
X28887Y22283D01*
X28886Y22284D01*
X28885Y22285D01*
X28883Y22286D01*
X28877Y22291D01*
X28873Y22293D01*
X28871Y22294D01*
X28733Y22351D01*
X28601Y22483D01*
X28529Y22656D01*
X28529Y22844D01*
X28601Y23017D01*
X28733Y23149D01*
X28867Y23204D01*
X28872Y23207D01*
X28877Y23210D01*
X28878Y23211D01*
X28882Y23215D01*
X28886Y23218D01*
X28886Y23219D01*
X28887Y23219D01*
X28890Y23224D01*
X28893Y23229D01*
X28893Y23230D01*
X28895Y23235D01*
X28897Y23241D01*
X28897Y23242D01*
X28897Y23247D01*
X28897Y23253D01*
X28897Y23254D01*
X28896Y23260D01*
X28895Y23265D01*
X28895Y23266D01*
X28892Y23271D01*
X28890Y23276D01*
X28889Y23277D01*
X28889Y23278D01*
X28885Y23282D01*
X28882Y23286D01*
X28881Y23286D01*
X28881Y23287D01*
X28871Y23294D01*
X28868Y23295D01*
X28867Y23295D01*
X28733Y23351D01*
X28601Y23483D01*
X28529Y23656D01*
X28529Y23844D01*
X28601Y24017D01*
X28733Y24149D01*
X28906Y24221D01*
X29094Y24221D01*
X29267Y24149D01*
X29399Y24017D01*
X29471Y23844D01*
X29471Y23656D01*
X29399Y23483D01*
X29267Y23351D01*
X29133Y23295D01*
X29128Y23293D01*
X29123Y23290D01*
X29122Y23289D01*
X29118Y23285D01*
X29114Y23282D01*
X29114Y23281D01*
X29113Y23281D01*
X29110Y23276D01*
X29107Y23271D01*
X29107Y23270D01*
X29105Y23265D01*
X29103Y23259D01*
X29103Y23258D01*
X29103Y23253D01*
X29103Y23247D01*
X29103Y23246D01*
X29104Y23240D01*
X29105Y23235D01*
X29105Y23234D01*
X29108Y23229D01*
X29110Y23224D01*
X29111Y23223D01*
X29111Y23222D01*
X29115Y23218D01*
X29118Y23214D01*
X29119Y23214D01*
X29119Y23213D01*
X29129Y23206D01*
X29132Y23205D01*
X29133Y23204D01*
X29267Y23149D01*
X29399Y23017D01*
X29471Y22844D01*
X29471Y22656D01*
X29399Y22483D01*
X29267Y22351D01*
X29129Y22294D01*
X29128Y22293D01*
X29127Y22293D01*
X29123Y22290D01*
X29119Y22288D01*
X29118Y22287D01*
X29117Y22286D01*
X29113Y22283D01*
X29110Y22279D01*
X29109Y22278D01*
X29108Y22277D01*
X29106Y22273D01*
X29103Y22269D01*
X29103Y22267D01*
X29102Y22266D01*
X29101Y22261D01*
X29100Y22257D01*
X29100Y22255D01*
X29099Y22254D01*
X29099Y22249D01*
X29099Y22244D01*
X29099Y22243D01*
X29100Y22242D01*
X29101Y22237D01*
X29102Y22232D01*
X29102Y22231D01*
X29103Y22230D01*
X29105Y22225D01*
X29107Y22221D01*
X29108Y22220D01*
X29109Y22219D01*
X29112Y22215D01*
X29116Y22212D01*
X29117Y22211D01*
X29118Y22210D01*
X29120Y22209D01*
X29126Y22205D01*
X29131Y22203D01*
X29133Y22202D01*
X29181Y22186D01*
X29247Y22153D01*
X29307Y22109D01*
X29359Y22057D01*
X29403Y21997D01*
X29436Y21931D01*
X29459Y21860D01*
X29461Y21849D01*
X29050Y21849D01*
X29045Y21849D01*
X29040Y21848D01*
X29039Y21848D01*
X29038Y21848D01*
X29033Y21846D01*
X29028Y21844D01*
X29027Y21844D01*
X29026Y21843D01*
X29022Y21840D01*
X29018Y21837D01*
X29017Y21836D01*
X29016Y21836D01*
X29013Y21832D01*
X29010Y21828D01*
X29009Y21827D01*
X29008Y21826D01*
X29006Y21822D01*
X29004Y21817D01*
X29004Y21816D01*
X29003Y21815D01*
X29001Y21803D01*
X29001Y21801D01*
X29001Y21800D01*
X29001Y21749D01*
X28999Y21749D01*
G37*
%LPD*%
%LPC*%
G36*
X32143Y18084D02*
X32143Y18084D01*
X32084Y18143D01*
X32084Y18857D01*
X32143Y18916D01*
X32857Y18916D01*
X32916Y18857D01*
X32916Y18143D01*
X32857Y18084D01*
X32143Y18084D01*
G37*
%LPD*%
%LPC*%
G36*
X32417Y12084D02*
X32417Y12084D01*
X32265Y12148D01*
X32148Y12265D01*
X32084Y12417D01*
X32084Y12583D01*
X32148Y12735D01*
X32265Y12852D01*
X32417Y12916D01*
X32583Y12916D01*
X32735Y12852D01*
X32852Y12735D01*
X32916Y12583D01*
X32916Y12417D01*
X32852Y12265D01*
X32735Y12148D01*
X32583Y12084D01*
X32417Y12084D01*
G37*
%LPD*%
%LPC*%
G36*
X28890Y21291D02*
X28890Y21291D01*
X28819Y21314D01*
X28753Y21347D01*
X28693Y21391D01*
X28641Y21443D01*
X28597Y21503D01*
X28564Y21569D01*
X28541Y21640D01*
X28539Y21651D01*
X28901Y21651D01*
X28901Y21289D01*
X28890Y21291D01*
G37*
%LPD*%
%LPC*%
G36*
X29099Y21651D02*
X29099Y21651D01*
X29461Y21651D01*
X29459Y21640D01*
X29436Y21569D01*
X29403Y21503D01*
X29359Y21443D01*
X29307Y21391D01*
X29247Y21347D01*
X29181Y21314D01*
X29110Y21291D01*
X29099Y21289D01*
X29099Y21651D01*
G37*
%LPD*%
%LPC*%
G36*
X31095Y12598D02*
X31095Y12598D01*
X31115Y12660D01*
X31144Y12718D01*
X31183Y12771D01*
X31229Y12817D01*
X31282Y12856D01*
X31340Y12885D01*
X31402Y12905D01*
X31402Y12598D01*
X31095Y12598D01*
G37*
%LPD*%
%LPC*%
G36*
X31598Y12598D02*
X31598Y12598D01*
X31598Y12905D01*
X31660Y12885D01*
X31718Y12856D01*
X31771Y12817D01*
X31817Y12771D01*
X31856Y12718D01*
X31885Y12660D01*
X31905Y12598D01*
X31598Y12598D01*
G37*
%LPD*%
%LPC*%
G36*
X31340Y12115D02*
X31340Y12115D01*
X31282Y12144D01*
X31229Y12183D01*
X31183Y12229D01*
X31144Y12282D01*
X31115Y12340D01*
X31095Y12402D01*
X31402Y12402D01*
X31402Y12095D01*
X31340Y12115D01*
G37*
%LPD*%
%LPC*%
G36*
X31598Y12402D02*
X31598Y12402D01*
X31905Y12402D01*
X31885Y12340D01*
X31856Y12282D01*
X31817Y12229D01*
X31771Y12183D01*
X31718Y12144D01*
X31660Y12115D01*
X31598Y12095D01*
X31598Y12402D01*
G37*
%LPD*%
D10*
X28000Y27000D03*
X29000Y27500D03*
X28000Y28000D03*
X29000Y28500D03*
X28000Y29000D03*
X29000Y29500D03*
X28000Y21250D03*
X29000Y21750D03*
X28000Y22250D03*
X29000Y22750D03*
X28000Y23250D03*
X29000Y23750D03*
X24750Y9500D03*
X25750Y9500D03*
X26750Y9500D03*
X27750Y9500D03*
X28750Y9500D03*
X29750Y9500D03*
X23500Y9500D03*
X22500Y9500D03*
X31000Y9500D03*
X32000Y9500D03*
X33000Y9500D03*
D11*
X32500Y18500D03*
D12*
X31500Y18500D03*
X30500Y18500D03*
X29500Y18500D03*
X28500Y18500D03*
X27500Y18500D03*
X26500Y18500D03*
X26500Y12500D03*
X27500Y12500D03*
X28500Y12500D03*
X29500Y12500D03*
X30500Y12500D03*
X31500Y12500D03*
X32500Y12500D03*
D13*
X25688Y24875D03*
X26813Y24875D03*
X26250Y25938D03*
X23938Y21500D03*
X22813Y20000D03*
D14*
X26063Y12063D02*
X23500Y9500D01*
X26063Y12063D02*
X26063Y15750D01*
X28438Y18125D01*
X28438Y18438D01*
X28500Y18500D01*
X25688Y12688D02*
X22500Y9500D01*
X25688Y12688D02*
X25688Y18625D01*
X26250Y19188D01*
X27438Y19188D01*
X27438Y18563D01*
X27500Y18500D01*
X30188Y17313D02*
X30375Y17500D01*
X30375Y18375D01*
X30500Y18500D01*
D13*
X30188Y17313D03*
D14*
X30625Y17563D02*
X31500Y18438D01*
X31500Y18500D01*
D13*
X30625Y17563D03*
D14*
X29938Y18063D02*
X29500Y18500D01*
X29938Y18063D02*
X29938Y9875D01*
X29750Y9688D01*
X29750Y9500D01*
X25813Y17813D02*
X26500Y18500D01*
X25813Y17813D02*
X25813Y12250D01*
D13*
X25813Y12250D03*
D14*
X27813Y10813D02*
X29500Y12500D01*
X27813Y10813D02*
X27813Y9563D01*
X27750Y9500D01*
X26813Y10813D02*
X28500Y12500D01*
X26813Y10813D02*
X26813Y9563D01*
X26750Y9500D01*
X25813Y10813D02*
X27500Y12500D01*
X25813Y10813D02*
X25813Y9563D01*
X25750Y9500D01*
X26188Y12188D02*
X26500Y12500D01*
X26188Y12188D02*
X26188Y12000D01*
X24813Y10625D01*
X24813Y9563D01*
X24750Y9500D01*
M02*
