G04 EAGLE Gerber RS-274X export*
G75*
%MOIN*%
%FSLAX34Y34*%
%LPD*%
%IN*%
%IPPOS*%
%AMOC8*
5,1,8,0,0,1.08239X$1,22.5*%
G01*
%ADD10C,0.010000*%


D10*
X21250Y9000D02*
X21254Y8913D01*
X21265Y8826D01*
X21284Y8741D01*
X21310Y8658D01*
X21344Y8577D01*
X21384Y8500D01*
X21431Y8426D01*
X21484Y8357D01*
X21543Y8293D01*
X21607Y8234D01*
X21676Y8181D01*
X21750Y8134D01*
X21827Y8094D01*
X21908Y8060D01*
X21991Y8034D01*
X22076Y8015D01*
X22163Y8004D01*
X22250Y8000D01*
X32870Y8000D01*
X32957Y8004D01*
X33044Y8015D01*
X33129Y8034D01*
X33212Y8060D01*
X33293Y8094D01*
X33370Y8134D01*
X33444Y8181D01*
X33513Y8234D01*
X33577Y8293D01*
X33636Y8357D01*
X33689Y8426D01*
X33736Y8500D01*
X33776Y8577D01*
X33810Y8658D01*
X33836Y8741D01*
X33855Y8826D01*
X33866Y8913D01*
X33870Y9000D01*
X33870Y30996D01*
X33866Y31083D01*
X33855Y31170D01*
X33836Y31255D01*
X33810Y31338D01*
X33776Y31419D01*
X33736Y31496D01*
X33689Y31570D01*
X33636Y31639D01*
X33577Y31703D01*
X33513Y31762D01*
X33444Y31815D01*
X33370Y31862D01*
X33293Y31902D01*
X33212Y31936D01*
X33129Y31962D01*
X33044Y31981D01*
X32957Y31992D01*
X32870Y31996D01*
X22250Y31996D01*
X22163Y31992D01*
X22076Y31981D01*
X21991Y31962D01*
X21908Y31936D01*
X21827Y31902D01*
X21750Y31862D01*
X21676Y31815D01*
X21607Y31762D01*
X21543Y31703D01*
X21484Y31639D01*
X21431Y31570D01*
X21384Y31496D01*
X21344Y31419D01*
X21310Y31338D01*
X21284Y31255D01*
X21265Y31170D01*
X21254Y31083D01*
X21250Y30996D01*
X21250Y9000D01*
X31521Y26890D02*
X31563Y26887D01*
X31604Y26882D01*
X31645Y26874D01*
X31686Y26863D01*
X31726Y26849D01*
X31764Y26833D01*
X31802Y26815D01*
X31838Y26794D01*
X31873Y26771D01*
X31906Y26745D01*
X31938Y26717D01*
X31967Y26688D01*
X31995Y26656D01*
X32021Y26623D01*
X32044Y26588D01*
X32065Y26552D01*
X32083Y26514D01*
X32099Y26476D01*
X32113Y26436D01*
X32124Y26395D01*
X32132Y26354D01*
X32137Y26313D01*
X32140Y26271D01*
X32140Y26229D01*
X32137Y26187D01*
X32132Y26146D01*
X32124Y26105D01*
X32113Y26064D01*
X32099Y26024D01*
X32083Y25986D01*
X32065Y25948D01*
X32044Y25912D01*
X32021Y25877D01*
X31995Y25844D01*
X31967Y25812D01*
X31938Y25783D01*
X31906Y25755D01*
X31873Y25729D01*
X31838Y25706D01*
X31802Y25685D01*
X31764Y25667D01*
X31726Y25651D01*
X31686Y25637D01*
X31645Y25626D01*
X31604Y25618D01*
X31563Y25613D01*
X31521Y25610D01*
X31479Y25610D01*
X31437Y25613D01*
X31396Y25618D01*
X31355Y25626D01*
X31314Y25637D01*
X31274Y25651D01*
X31236Y25667D01*
X31198Y25685D01*
X31162Y25706D01*
X31127Y25729D01*
X31094Y25755D01*
X31062Y25783D01*
X31033Y25812D01*
X31005Y25844D01*
X30979Y25877D01*
X30956Y25912D01*
X30935Y25948D01*
X30917Y25986D01*
X30901Y26024D01*
X30887Y26064D01*
X30876Y26105D01*
X30868Y26146D01*
X30863Y26187D01*
X30860Y26229D01*
X30860Y26271D01*
X30863Y26313D01*
X30868Y26354D01*
X30876Y26395D01*
X30887Y26436D01*
X30901Y26476D01*
X30917Y26514D01*
X30935Y26552D01*
X30956Y26588D01*
X30979Y26623D01*
X31005Y26656D01*
X31033Y26688D01*
X31062Y26717D01*
X31094Y26745D01*
X31127Y26771D01*
X31162Y26794D01*
X31198Y26815D01*
X31236Y26833D01*
X31274Y26849D01*
X31314Y26863D01*
X31355Y26874D01*
X31396Y26882D01*
X31437Y26887D01*
X31479Y26890D01*
X31521Y26890D01*
X31521Y30890D02*
X31563Y30887D01*
X31604Y30882D01*
X31645Y30874D01*
X31686Y30863D01*
X31726Y30849D01*
X31764Y30833D01*
X31802Y30815D01*
X31838Y30794D01*
X31873Y30771D01*
X31906Y30745D01*
X31938Y30717D01*
X31967Y30688D01*
X31995Y30656D01*
X32021Y30623D01*
X32044Y30588D01*
X32065Y30552D01*
X32083Y30514D01*
X32099Y30476D01*
X32113Y30436D01*
X32124Y30395D01*
X32132Y30354D01*
X32137Y30313D01*
X32140Y30271D01*
X32140Y30229D01*
X32137Y30187D01*
X32132Y30146D01*
X32124Y30105D01*
X32113Y30064D01*
X32099Y30024D01*
X32083Y29986D01*
X32065Y29948D01*
X32044Y29912D01*
X32021Y29877D01*
X31995Y29844D01*
X31967Y29812D01*
X31938Y29783D01*
X31906Y29755D01*
X31873Y29729D01*
X31838Y29706D01*
X31802Y29685D01*
X31764Y29667D01*
X31726Y29651D01*
X31686Y29637D01*
X31645Y29626D01*
X31604Y29618D01*
X31563Y29613D01*
X31521Y29610D01*
X31479Y29610D01*
X31437Y29613D01*
X31396Y29618D01*
X31355Y29626D01*
X31314Y29637D01*
X31274Y29651D01*
X31236Y29667D01*
X31198Y29685D01*
X31162Y29706D01*
X31127Y29729D01*
X31094Y29755D01*
X31062Y29783D01*
X31033Y29812D01*
X31005Y29844D01*
X30979Y29877D01*
X30956Y29912D01*
X30935Y29948D01*
X30917Y29986D01*
X30901Y30024D01*
X30887Y30064D01*
X30876Y30105D01*
X30868Y30146D01*
X30863Y30187D01*
X30860Y30229D01*
X30860Y30271D01*
X30863Y30313D01*
X30868Y30354D01*
X30876Y30395D01*
X30887Y30436D01*
X30901Y30476D01*
X30917Y30514D01*
X30935Y30552D01*
X30956Y30588D01*
X30979Y30623D01*
X31005Y30656D01*
X31033Y30688D01*
X31062Y30717D01*
X31094Y30745D01*
X31127Y30771D01*
X31162Y30794D01*
X31198Y30815D01*
X31236Y30833D01*
X31274Y30849D01*
X31314Y30863D01*
X31355Y30874D01*
X31396Y30882D01*
X31437Y30887D01*
X31479Y30890D01*
X31521Y30890D01*
X31521Y21140D02*
X31563Y21137D01*
X31604Y21132D01*
X31645Y21124D01*
X31686Y21113D01*
X31726Y21099D01*
X31764Y21083D01*
X31802Y21065D01*
X31838Y21044D01*
X31873Y21021D01*
X31906Y20995D01*
X31938Y20967D01*
X31967Y20938D01*
X31995Y20906D01*
X32021Y20873D01*
X32044Y20838D01*
X32065Y20802D01*
X32083Y20764D01*
X32099Y20726D01*
X32113Y20686D01*
X32124Y20645D01*
X32132Y20604D01*
X32137Y20563D01*
X32140Y20521D01*
X32140Y20479D01*
X32137Y20437D01*
X32132Y20396D01*
X32124Y20355D01*
X32113Y20314D01*
X32099Y20274D01*
X32083Y20236D01*
X32065Y20198D01*
X32044Y20162D01*
X32021Y20127D01*
X31995Y20094D01*
X31967Y20062D01*
X31938Y20033D01*
X31906Y20005D01*
X31873Y19979D01*
X31838Y19956D01*
X31802Y19935D01*
X31764Y19917D01*
X31726Y19901D01*
X31686Y19887D01*
X31645Y19876D01*
X31604Y19868D01*
X31563Y19863D01*
X31521Y19860D01*
X31479Y19860D01*
X31437Y19863D01*
X31396Y19868D01*
X31355Y19876D01*
X31314Y19887D01*
X31274Y19901D01*
X31236Y19917D01*
X31198Y19935D01*
X31162Y19956D01*
X31127Y19979D01*
X31094Y20005D01*
X31062Y20033D01*
X31033Y20062D01*
X31005Y20094D01*
X30979Y20127D01*
X30956Y20162D01*
X30935Y20198D01*
X30917Y20236D01*
X30901Y20274D01*
X30887Y20314D01*
X30876Y20355D01*
X30868Y20396D01*
X30863Y20437D01*
X30860Y20479D01*
X30860Y20521D01*
X30863Y20563D01*
X30868Y20604D01*
X30876Y20645D01*
X30887Y20686D01*
X30901Y20726D01*
X30917Y20764D01*
X30935Y20802D01*
X30956Y20838D01*
X30979Y20873D01*
X31005Y20906D01*
X31033Y20938D01*
X31062Y20967D01*
X31094Y20995D01*
X31127Y21021D01*
X31162Y21044D01*
X31198Y21065D01*
X31236Y21083D01*
X31274Y21099D01*
X31314Y21113D01*
X31355Y21124D01*
X31396Y21132D01*
X31437Y21137D01*
X31479Y21140D01*
X31521Y21140D01*
X31521Y25140D02*
X31563Y25137D01*
X31604Y25132D01*
X31645Y25124D01*
X31686Y25113D01*
X31726Y25099D01*
X31764Y25083D01*
X31802Y25065D01*
X31838Y25044D01*
X31873Y25021D01*
X31906Y24995D01*
X31938Y24967D01*
X31967Y24938D01*
X31995Y24906D01*
X32021Y24873D01*
X32044Y24838D01*
X32065Y24802D01*
X32083Y24764D01*
X32099Y24726D01*
X32113Y24686D01*
X32124Y24645D01*
X32132Y24604D01*
X32137Y24563D01*
X32140Y24521D01*
X32140Y24479D01*
X32137Y24437D01*
X32132Y24396D01*
X32124Y24355D01*
X32113Y24314D01*
X32099Y24274D01*
X32083Y24236D01*
X32065Y24198D01*
X32044Y24162D01*
X32021Y24127D01*
X31995Y24094D01*
X31967Y24062D01*
X31938Y24033D01*
X31906Y24005D01*
X31873Y23979D01*
X31838Y23956D01*
X31802Y23935D01*
X31764Y23917D01*
X31726Y23901D01*
X31686Y23887D01*
X31645Y23876D01*
X31604Y23868D01*
X31563Y23863D01*
X31521Y23860D01*
X31479Y23860D01*
X31437Y23863D01*
X31396Y23868D01*
X31355Y23876D01*
X31314Y23887D01*
X31274Y23901D01*
X31236Y23917D01*
X31198Y23935D01*
X31162Y23956D01*
X31127Y23979D01*
X31094Y24005D01*
X31062Y24033D01*
X31033Y24062D01*
X31005Y24094D01*
X30979Y24127D01*
X30956Y24162D01*
X30935Y24198D01*
X30917Y24236D01*
X30901Y24274D01*
X30887Y24314D01*
X30876Y24355D01*
X30868Y24396D01*
X30863Y24437D01*
X30860Y24479D01*
X30860Y24521D01*
X30863Y24563D01*
X30868Y24604D01*
X30876Y24645D01*
X30887Y24686D01*
X30901Y24726D01*
X30917Y24764D01*
X30935Y24802D01*
X30956Y24838D01*
X30979Y24873D01*
X31005Y24906D01*
X31033Y24938D01*
X31062Y24967D01*
X31094Y24995D01*
X31127Y25021D01*
X31162Y25044D01*
X31198Y25065D01*
X31236Y25083D01*
X31274Y25099D01*
X31314Y25113D01*
X31355Y25124D01*
X31396Y25132D01*
X31437Y25137D01*
X31479Y25140D01*
X31521Y25140D01*
M02*
