G04 EAGLE Gerber RS-274X export*
G75*
%MOIN*%
%FSLAX34Y34*%
%LPD*%
%INSilkscreen Top*%
%IPPOS*%
%AMOC8*
5,1,8,0,0,1.08239X$1,22.5*%
G01*
%ADD10R,0.009000X0.000500*%
%ADD11R,0.044000X0.000500*%
%ADD12R,0.129500X0.000500*%
%ADD13R,0.138500X0.000500*%
%ADD14R,0.145500X0.000500*%
%ADD15R,0.151000X0.000500*%
%ADD16R,0.155500X0.000500*%
%ADD17R,0.159500X0.000500*%
%ADD18R,0.163000X0.000500*%
%ADD19R,0.167000X0.000500*%
%ADD20R,0.170500X0.000500*%
%ADD21R,0.173500X0.000500*%
%ADD22R,0.176500X0.000500*%
%ADD23R,0.179500X0.000500*%
%ADD24R,0.181500X0.000500*%
%ADD25R,0.184500X0.000500*%
%ADD26R,0.187000X0.000500*%
%ADD27R,0.189000X0.000500*%
%ADD28R,0.191500X0.000500*%
%ADD29R,0.193500X0.000500*%
%ADD30R,0.195500X0.000500*%
%ADD31R,0.198000X0.000500*%
%ADD32R,0.200000X0.000500*%
%ADD33R,0.201500X0.000500*%
%ADD34R,0.203500X0.000500*%
%ADD35R,0.205500X0.000500*%
%ADD36R,0.207000X0.000500*%
%ADD37R,0.209000X0.000500*%
%ADD38R,0.210500X0.000500*%
%ADD39R,0.212000X0.000500*%
%ADD40R,0.214000X0.000500*%
%ADD41R,0.215500X0.000500*%
%ADD42R,0.217000X0.000500*%
%ADD43R,0.218500X0.000500*%
%ADD44R,0.220000X0.000500*%
%ADD45R,0.221500X0.000500*%
%ADD46R,0.223000X0.000500*%
%ADD47R,0.224000X0.000500*%
%ADD48R,0.225500X0.000500*%
%ADD49R,0.227000X0.000500*%
%ADD50R,0.228000X0.000500*%
%ADD51R,0.229500X0.000500*%
%ADD52R,0.230500X0.000500*%
%ADD53R,0.232000X0.000500*%
%ADD54R,0.233500X0.000500*%
%ADD55R,0.234500X0.000500*%
%ADD56R,0.235500X0.000500*%
%ADD57R,0.236500X0.000500*%
%ADD58R,0.237500X0.000500*%
%ADD59R,0.238500X0.000500*%
%ADD60R,0.240000X0.000500*%
%ADD61R,0.241500X0.000500*%
%ADD62R,0.242500X0.000500*%
%ADD63R,0.243500X0.000500*%
%ADD64R,0.244500X0.000500*%
%ADD65R,0.245500X0.000500*%
%ADD66R,0.246500X0.000500*%
%ADD67R,0.247500X0.000500*%
%ADD68R,0.248500X0.000500*%
%ADD69R,0.249500X0.000500*%
%ADD70R,0.250500X0.000500*%
%ADD71R,0.251500X0.000500*%
%ADD72R,0.252500X0.000500*%
%ADD73R,0.253000X0.000500*%
%ADD74R,0.070000X0.000500*%
%ADD75R,0.171000X0.000500*%
%ADD76R,0.065000X0.000500*%
%ADD77R,0.143000X0.000500*%
%ADD78R,0.062500X0.000500*%
%ADD79R,0.065500X0.000500*%
%ADD80R,0.060500X0.000500*%
%ADD81R,0.061500X0.000500*%
%ADD82R,0.058500X0.000500*%
%ADD83R,0.059000X0.000500*%
%ADD84R,0.057000X0.000500*%
%ADD85R,0.056000X0.000500*%
%ADD86R,0.055500X0.000500*%
%ADD87R,0.054500X0.000500*%
%ADD88R,0.054000X0.000500*%
%ADD89R,0.053500X0.000500*%
%ADD90R,0.053000X0.000500*%
%ADD91R,0.052500X0.000500*%
%ADD92R,0.052000X0.000500*%
%ADD93R,0.051000X0.000500*%
%ADD94R,0.050000X0.000500*%
%ADD95R,0.049000X0.000500*%
%ADD96R,0.049500X0.000500*%
%ADD97R,0.048500X0.000500*%
%ADD98R,0.048000X0.000500*%
%ADD99R,0.047500X0.000500*%
%ADD100R,0.046500X0.000500*%
%ADD101R,0.047000X0.000500*%
%ADD102R,0.046000X0.000500*%
%ADD103R,0.045500X0.000500*%
%ADD104R,0.045000X0.000500*%
%ADD105R,0.044500X0.000500*%
%ADD106R,0.043500X0.000500*%
%ADD107R,0.043000X0.000500*%
%ADD108R,0.042500X0.000500*%
%ADD109R,0.042000X0.000500*%
%ADD110R,0.041500X0.000500*%
%ADD111R,0.041000X0.000500*%
%ADD112R,0.040000X0.000500*%
%ADD113R,0.040500X0.000500*%
%ADD114R,0.039500X0.000500*%
%ADD115R,0.039000X0.000500*%
%ADD116R,0.038500X0.000500*%
%ADD117R,0.038000X0.000500*%
%ADD118R,0.037500X0.000500*%
%ADD119R,0.007500X0.000500*%
%ADD120R,0.037000X0.000500*%
%ADD121R,0.015000X0.000500*%
%ADD122R,0.020000X0.000500*%
%ADD123R,0.036500X0.000500*%
%ADD124R,0.024500X0.000500*%
%ADD125R,0.027500X0.000500*%
%ADD126R,0.064000X0.000500*%
%ADD127R,0.030500X0.000500*%
%ADD128R,0.066000X0.000500*%
%ADD129R,0.036000X0.000500*%
%ADD130R,0.033000X0.000500*%
%ADD131R,0.068000X0.000500*%
%ADD132R,0.069500X0.000500*%
%ADD133R,0.070500X0.000500*%
%ADD134R,0.071500X0.000500*%
%ADD135R,0.035500X0.000500*%
%ADD136R,0.073000X0.000500*%
%ADD137R,0.035000X0.000500*%
%ADD138R,0.073500X0.000500*%
%ADD139R,0.074500X0.000500*%
%ADD140R,0.075500X0.000500*%
%ADD141R,0.076500X0.000500*%
%ADD142R,0.077000X0.000500*%
%ADD143R,0.034500X0.000500*%
%ADD144R,0.077500X0.000500*%
%ADD145R,0.078500X0.000500*%
%ADD146R,0.079000X0.000500*%
%ADD147R,0.055000X0.000500*%
%ADD148R,0.079500X0.000500*%
%ADD149R,0.034000X0.000500*%
%ADD150R,0.056500X0.000500*%
%ADD151R,0.080000X0.000500*%
%ADD152R,0.058000X0.000500*%
%ADD153R,0.081000X0.000500*%
%ADD154R,0.081500X0.000500*%
%ADD155R,0.033500X0.000500*%
%ADD156R,0.060000X0.000500*%
%ADD157R,0.082000X0.000500*%
%ADD158R,0.061000X0.000500*%
%ADD159R,0.082500X0.000500*%
%ADD160R,0.062000X0.000500*%
%ADD161R,0.083000X0.000500*%
%ADD162R,0.063000X0.000500*%
%ADD163R,0.083500X0.000500*%
%ADD164R,0.084000X0.000500*%
%ADD165R,0.084500X0.000500*%
%ADD166R,0.066500X0.000500*%
%ADD167R,0.085000X0.000500*%
%ADD168R,0.067500X0.000500*%
%ADD169R,0.085500X0.000500*%
%ADD170R,0.068500X0.000500*%
%ADD171R,0.086000X0.000500*%
%ADD172R,0.032500X0.000500*%
%ADD173R,0.086500X0.000500*%
%ADD174R,0.087000X0.000500*%
%ADD175R,0.087500X0.000500*%
%ADD176R,0.032000X0.000500*%
%ADD177R,0.088000X0.000500*%
%ADD178R,0.072500X0.000500*%
%ADD179R,0.088500X0.000500*%
%ADD180R,0.074000X0.000500*%
%ADD181R,0.089000X0.000500*%
%ADD182R,0.076000X0.000500*%
%ADD183R,0.089500X0.000500*%
%ADD184R,0.090000X0.000500*%
%ADD185R,0.078000X0.000500*%
%ADD186R,0.090500X0.000500*%
%ADD187R,0.091000X0.000500*%
%ADD188R,0.091500X0.000500*%
%ADD189R,0.075000X0.000500*%
%ADD190R,0.092000X0.000500*%
%ADD191R,0.092500X0.000500*%
%ADD192R,0.031500X0.000500*%
%ADD193R,0.072000X0.000500*%
%ADD194R,0.093000X0.000500*%
%ADD195R,0.071000X0.000500*%
%ADD196R,0.028000X0.000500*%
%ADD197R,0.022500X0.000500*%
%ADD198R,0.021000X0.000500*%
%ADD199R,0.019500X0.000500*%
%ADD200R,0.018000X0.000500*%
%ADD201R,0.016500X0.000500*%
%ADD202R,0.014000X0.000500*%
%ADD203R,0.013000X0.000500*%
%ADD204R,0.011500X0.000500*%
%ADD205R,0.011000X0.000500*%
%ADD206R,0.009500X0.000500*%
%ADD207R,0.008500X0.000500*%
%ADD208R,0.008000X0.000500*%
%ADD209R,0.006500X0.000500*%
%ADD210R,0.005500X0.000500*%
%ADD211R,0.004500X0.000500*%
%ADD212R,0.031000X0.000500*%
%ADD213R,0.003500X0.000500*%
%ADD214R,0.002500X0.000500*%
%ADD215R,0.001000X0.000500*%
%ADD216R,0.050500X0.000500*%
%ADD217R,0.057500X0.000500*%
%ADD218R,0.051500X0.000500*%
%ADD219R,0.080500X0.000500*%
%ADD220R,0.069000X0.000500*%
%ADD221R,0.216500X0.000500*%
%ADD222R,0.215000X0.000500*%
%ADD223R,0.213500X0.000500*%
%ADD224R,0.212500X0.000500*%
%ADD225R,0.211500X0.000500*%
%ADD226R,0.210000X0.000500*%
%ADD227R,0.209500X0.000500*%
%ADD228R,0.208500X0.000500*%
%ADD229R,0.207500X0.000500*%
%ADD230R,0.206000X0.000500*%
%ADD231R,0.205000X0.000500*%
%ADD232R,0.204500X0.000500*%
%ADD233R,0.202500X0.000500*%
%ADD234R,0.201000X0.000500*%
%ADD235R,0.200500X0.000500*%
%ADD236R,0.199500X0.000500*%
%ADD237R,0.198500X0.000500*%
%ADD238R,0.197000X0.000500*%
%ADD239R,0.196000X0.000500*%
%ADD240R,0.195000X0.000500*%
%ADD241R,0.193000X0.000500*%
%ADD242R,0.192000X0.000500*%
%ADD243R,0.190500X0.000500*%
%ADD244R,0.189500X0.000500*%
%ADD245R,0.188000X0.000500*%
%ADD246R,0.186500X0.000500*%
%ADD247R,0.185000X0.000500*%
%ADD248R,0.183500X0.000500*%
%ADD249R,0.182500X0.000500*%
%ADD250R,0.181000X0.000500*%
%ADD251R,0.178000X0.000500*%
%ADD252R,0.176000X0.000500*%
%ADD253R,0.175000X0.000500*%
%ADD254R,0.171500X0.000500*%
%ADD255R,0.169500X0.000500*%
%ADD256R,0.167500X0.000500*%
%ADD257R,0.166000X0.000500*%
%ADD258R,0.164000X0.000500*%
%ADD259R,0.161500X0.000500*%
%ADD260R,0.160000X0.000500*%
%ADD261R,0.157500X0.000500*%
%ADD262R,0.155000X0.000500*%
%ADD263R,0.152500X0.000500*%
%ADD264R,0.150000X0.000500*%
%ADD265R,0.147500X0.000500*%
%ADD266R,0.144500X0.000500*%
%ADD267R,0.141500X0.000500*%
%ADD268R,0.138000X0.000500*%
%ADD269R,0.134500X0.000500*%
%ADD270R,0.130500X0.000500*%
%ADD271R,0.125500X0.000500*%
%ADD272R,0.119500X0.000500*%
%ADD273R,0.113000X0.000500*%
%ADD274R,0.100500X0.000500*%
%ADD275C,0.005000*%
%ADD276C,0.008000*%
%ADD277C,0.011811*%
%ADD278C,0.007874*%


D10*
X23023Y28415D03*
D11*
X23128Y28420D03*
D12*
X23515Y28425D03*
D13*
X23530Y28430D03*
D14*
X23535Y28435D03*
D15*
X23538Y28440D03*
D16*
X23540Y28445D03*
D17*
X23540Y28450D03*
D18*
X23543Y28455D03*
D19*
X23543Y28460D03*
D20*
X23545Y28465D03*
D21*
X23545Y28470D03*
D22*
X23545Y28475D03*
D23*
X23545Y28480D03*
D24*
X23545Y28485D03*
D25*
X23545Y28490D03*
D26*
X23548Y28495D03*
D27*
X23548Y28500D03*
D28*
X23545Y28505D03*
D29*
X23545Y28510D03*
D30*
X23545Y28515D03*
D31*
X23548Y28520D03*
D32*
X23548Y28525D03*
D33*
X23545Y28530D03*
D34*
X23545Y28535D03*
D35*
X23545Y28540D03*
D36*
X23548Y28545D03*
D37*
X23548Y28550D03*
D38*
X23545Y28555D03*
D39*
X23548Y28560D03*
D40*
X23548Y28565D03*
D41*
X23545Y28570D03*
D42*
X23548Y28575D03*
D43*
X23545Y28580D03*
D44*
X23548Y28585D03*
D45*
X23545Y28590D03*
D46*
X23548Y28595D03*
D47*
X23548Y28600D03*
D48*
X23545Y28605D03*
D49*
X23548Y28610D03*
D50*
X23548Y28615D03*
D51*
X23545Y28620D03*
D52*
X23545Y28625D03*
D53*
X23548Y28630D03*
D54*
X23545Y28635D03*
D55*
X23545Y28640D03*
D56*
X23545Y28645D03*
D57*
X23545Y28650D03*
D58*
X23545Y28655D03*
D59*
X23545Y28660D03*
D60*
X23548Y28665D03*
D61*
X23545Y28670D03*
D62*
X23545Y28675D03*
D63*
X23545Y28680D03*
D64*
X23545Y28685D03*
D65*
X23545Y28690D03*
D66*
X23545Y28695D03*
D67*
X23545Y28700D03*
D68*
X23545Y28705D03*
D69*
X23545Y28710D03*
D70*
X23545Y28715D03*
D71*
X23545Y28720D03*
D72*
X23545Y28725D03*
D73*
X23543Y28730D03*
D74*
X22628Y28735D03*
D75*
X23958Y28735D03*
D76*
X22598Y28740D03*
D77*
X24103Y28740D03*
D78*
X22580Y28745D03*
D79*
X24495Y28745D03*
D80*
X22565Y28750D03*
D81*
X24520Y28750D03*
D82*
X22550Y28755D03*
D83*
X24538Y28755D03*
D84*
X22538Y28760D03*
X24553Y28760D03*
D85*
X22528Y28765D03*
D86*
X24565Y28765D03*
D87*
X22520Y28770D03*
D88*
X24573Y28770D03*
D89*
X22510Y28775D03*
D90*
X24583Y28775D03*
D91*
X22500Y28780D03*
D92*
X24593Y28780D03*
X22493Y28785D03*
D93*
X24603Y28785D03*
X22483Y28790D03*
D94*
X24613Y28790D03*
X22478Y28795D03*
D95*
X24618Y28795D03*
D96*
X22470Y28800D03*
D97*
X24625Y28800D03*
D95*
X22463Y28805D03*
D98*
X24633Y28805D03*
D97*
X22455Y28810D03*
D99*
X24640Y28810D03*
X22450Y28815D03*
D100*
X24645Y28815D03*
D101*
X22443Y28820D03*
D102*
X24653Y28820D03*
D100*
X22435Y28825D03*
D103*
X24660Y28825D03*
D102*
X22428Y28830D03*
D104*
X24663Y28830D03*
D103*
X22425Y28835D03*
D105*
X24670Y28835D03*
D104*
X22418Y28840D03*
D105*
X24675Y28840D03*
D104*
X22413Y28845D03*
D106*
X24680Y28845D03*
D11*
X22408Y28850D03*
D106*
X24685Y28850D03*
D11*
X22403Y28855D03*
D107*
X24693Y28855D03*
D106*
X22395Y28860D03*
D108*
X24695Y28860D03*
D107*
X22393Y28865D03*
D108*
X24700Y28865D03*
D107*
X22388Y28870D03*
D109*
X24708Y28870D03*
D108*
X22380Y28875D03*
D110*
X24710Y28875D03*
D109*
X22378Y28880D03*
D110*
X24715Y28880D03*
D109*
X22373Y28885D03*
D111*
X24718Y28885D03*
D109*
X22368Y28890D03*
D111*
X24723Y28890D03*
X22363Y28895D03*
D112*
X24728Y28895D03*
D111*
X22358Y28900D03*
D112*
X24733Y28900D03*
D111*
X22353Y28905D03*
D112*
X24738Y28905D03*
D113*
X22350Y28910D03*
D114*
X24740Y28910D03*
D113*
X22345Y28915D03*
D114*
X24745Y28915D03*
D113*
X22340Y28920D03*
D115*
X24748Y28920D03*
D112*
X22338Y28925D03*
D115*
X24753Y28925D03*
D112*
X22333Y28930D03*
D116*
X24755Y28930D03*
D114*
X22330Y28935D03*
D116*
X24760Y28935D03*
D114*
X22325Y28940D03*
D117*
X24763Y28940D03*
D115*
X22323Y28945D03*
D117*
X24768Y28945D03*
D115*
X22318Y28950D03*
D118*
X24770Y28950D03*
D115*
X22313Y28955D03*
D117*
X24773Y28955D03*
D116*
X22310Y28960D03*
D118*
X24775Y28960D03*
D116*
X22305Y28965D03*
D118*
X24780Y28965D03*
D116*
X22305Y28970D03*
D119*
X23045Y28970D03*
D120*
X24783Y28970D03*
D116*
X22300Y28975D03*
D121*
X23043Y28975D03*
D120*
X24788Y28975D03*
D117*
X22298Y28980D03*
D122*
X23043Y28980D03*
D123*
X24790Y28980D03*
D118*
X22295Y28985D03*
D124*
X23040Y28985D03*
D81*
X23895Y28985D03*
D123*
X24790Y28985D03*
D118*
X22290Y28990D03*
D125*
X23040Y28990D03*
D126*
X23908Y28990D03*
D123*
X24795Y28990D03*
D118*
X22290Y28995D03*
D127*
X23040Y28995D03*
D128*
X23918Y28995D03*
D129*
X24798Y28995D03*
D118*
X22285Y29000D03*
D130*
X23038Y29000D03*
D131*
X23928Y29000D03*
D129*
X24803Y29000D03*
D120*
X22283Y29005D03*
D129*
X23038Y29005D03*
D132*
X23935Y29005D03*
D129*
X24803Y29005D03*
D120*
X22278Y29010D03*
D117*
X23038Y29010D03*
D133*
X23940Y29010D03*
D129*
X24808Y29010D03*
D120*
X22278Y29015D03*
D112*
X23038Y29015D03*
D134*
X23945Y29015D03*
D135*
X24810Y29015D03*
D123*
X22275Y29020D03*
D109*
X23038Y29020D03*
D136*
X23953Y29020D03*
D137*
X24813Y29020D03*
D123*
X22270Y29025D03*
D106*
X23035Y29025D03*
D138*
X23955Y29025D03*
D135*
X24815Y29025D03*
D123*
X22270Y29030D03*
D104*
X23038Y29030D03*
D139*
X23960Y29030D03*
D137*
X24818Y29030D03*
D129*
X22268Y29035D03*
D101*
X23038Y29035D03*
D140*
X23965Y29035D03*
D137*
X24818Y29035D03*
D129*
X22263Y29040D03*
D97*
X23035Y29040D03*
D141*
X23970Y29040D03*
D137*
X24823Y29040D03*
D129*
X22263Y29045D03*
D94*
X23038Y29045D03*
D142*
X23973Y29045D03*
D143*
X24825Y29045D03*
D135*
X22260Y29050D03*
D93*
X23038Y29050D03*
D144*
X23975Y29050D03*
D137*
X24828Y29050D03*
D135*
X22255Y29055D03*
D90*
X23038Y29055D03*
D145*
X23980Y29055D03*
D143*
X24830Y29055D03*
D135*
X22255Y29060D03*
D88*
X23038Y29060D03*
D146*
X23983Y29060D03*
D143*
X24830Y29060D03*
D137*
X22253Y29065D03*
D147*
X23038Y29065D03*
D148*
X23985Y29065D03*
D149*
X24833Y29065D03*
D143*
X22250Y29070D03*
D150*
X23040Y29070D03*
D151*
X23988Y29070D03*
D149*
X24838Y29070D03*
D137*
X22248Y29075D03*
D152*
X23038Y29075D03*
D153*
X23993Y29075D03*
D149*
X24838Y29075D03*
D143*
X22245Y29080D03*
D83*
X23038Y29080D03*
D154*
X23995Y29080D03*
D155*
X24840Y29080D03*
D149*
X22243Y29085D03*
D156*
X23038Y29085D03*
D157*
X23998Y29085D03*
D149*
X24843Y29085D03*
X22243Y29090D03*
D158*
X23038Y29090D03*
D159*
X24000Y29090D03*
D155*
X24845Y29090D03*
D149*
X22238Y29095D03*
D160*
X23038Y29095D03*
D161*
X24003Y29095D03*
D155*
X24845Y29095D03*
D149*
X22238Y29100D03*
D162*
X23038Y29100D03*
D163*
X24005Y29100D03*
D155*
X24850Y29100D03*
X22235Y29105D03*
D126*
X23038Y29105D03*
D164*
X24008Y29105D03*
D155*
X24850Y29105D03*
X22235Y29110D03*
D76*
X23038Y29110D03*
D165*
X24010Y29110D03*
D155*
X24850Y29110D03*
D130*
X22233Y29115D03*
D79*
X23040Y29115D03*
D165*
X24010Y29115D03*
D130*
X24853Y29115D03*
D155*
X22230Y29120D03*
D166*
X23040Y29120D03*
D167*
X24013Y29120D03*
D155*
X24855Y29120D03*
D130*
X22228Y29125D03*
D168*
X23040Y29125D03*
D169*
X24015Y29125D03*
D130*
X24858Y29125D03*
X22228Y29130D03*
D170*
X23040Y29130D03*
D171*
X24018Y29130D03*
D130*
X24858Y29130D03*
D172*
X22225Y29135D03*
D132*
X23040Y29135D03*
D173*
X24020Y29135D03*
D172*
X24860Y29135D03*
X22225Y29140D03*
D132*
X23040Y29140D03*
D173*
X24020Y29140D03*
D130*
X24863Y29140D03*
D172*
X22225Y29145D03*
D133*
X23040Y29145D03*
D174*
X24023Y29145D03*
D130*
X24863Y29145D03*
D172*
X22225Y29150D03*
D134*
X23040Y29150D03*
D175*
X24025Y29150D03*
D172*
X24865Y29150D03*
D176*
X22223Y29155D03*
D134*
X23040Y29155D03*
D177*
X24028Y29155D03*
D172*
X24865Y29155D03*
X22220Y29160D03*
D178*
X23040Y29160D03*
D177*
X24028Y29160D03*
D130*
X24868Y29160D03*
D172*
X22220Y29165D03*
D138*
X23040Y29165D03*
D179*
X24030Y29165D03*
D172*
X24870Y29165D03*
X22220Y29170D03*
D180*
X23038Y29170D03*
D179*
X24030Y29170D03*
D172*
X24870Y29170D03*
X22220Y29175D03*
D139*
X23040Y29175D03*
D181*
X24033Y29175D03*
D172*
X24870Y29175D03*
D176*
X22218Y29180D03*
D140*
X23040Y29180D03*
D181*
X24033Y29180D03*
D176*
X24873Y29180D03*
X22218Y29185D03*
D182*
X23038Y29185D03*
D183*
X24035Y29185D03*
D172*
X24875Y29185D03*
D176*
X22218Y29190D03*
D141*
X23040Y29190D03*
D184*
X24038Y29190D03*
D172*
X24875Y29190D03*
D176*
X22218Y29195D03*
D142*
X23038Y29195D03*
D184*
X24038Y29195D03*
D176*
X24878Y29195D03*
X22218Y29200D03*
D185*
X23038Y29200D03*
D184*
X24038Y29200D03*
D176*
X24878Y29200D03*
X22218Y29205D03*
D185*
X23038Y29205D03*
D186*
X24040Y29205D03*
D176*
X24878Y29205D03*
X22218Y29210D03*
D145*
X23040Y29210D03*
D186*
X24040Y29210D03*
D172*
X24880Y29210D03*
D176*
X22218Y29215D03*
D144*
X23045Y29215D03*
D187*
X24043Y29215D03*
D176*
X24883Y29215D03*
X22218Y29220D03*
D144*
X23050Y29220D03*
D187*
X24043Y29220D03*
D176*
X24883Y29220D03*
X22218Y29225D03*
D142*
X23053Y29225D03*
D188*
X24045Y29225D03*
D176*
X24883Y29225D03*
X22218Y29230D03*
D141*
X23060Y29230D03*
D188*
X24045Y29230D03*
D176*
X24883Y29230D03*
X22218Y29235D03*
D182*
X23063Y29235D03*
D188*
X24045Y29235D03*
D176*
X24883Y29235D03*
X22218Y29240D03*
D189*
X23068Y29240D03*
D190*
X24048Y29240D03*
D176*
X24888Y29240D03*
X22218Y29245D03*
D189*
X23073Y29245D03*
D190*
X24048Y29245D03*
D176*
X24888Y29245D03*
D172*
X22220Y29250D03*
D139*
X23075Y29250D03*
D190*
X24048Y29250D03*
D176*
X24888Y29250D03*
D172*
X22220Y29255D03*
D138*
X23080Y29255D03*
D191*
X24050Y29255D03*
D176*
X24888Y29255D03*
D172*
X22220Y29260D03*
D138*
X23085Y29260D03*
D191*
X24050Y29260D03*
D176*
X24888Y29260D03*
X22223Y29265D03*
D136*
X23088Y29265D03*
D191*
X24050Y29265D03*
D192*
X24890Y29265D03*
D176*
X22223Y29270D03*
D193*
X23093Y29270D03*
D191*
X24050Y29270D03*
D192*
X24890Y29270D03*
D172*
X22225Y29275D03*
D193*
X23098Y29275D03*
D194*
X24053Y29275D03*
D192*
X24890Y29275D03*
D172*
X22225Y29280D03*
D195*
X23103Y29280D03*
D194*
X24053Y29280D03*
D192*
X24890Y29280D03*
D172*
X22225Y29285D03*
D196*
X22893Y29285D03*
D110*
X23250Y29285D03*
D194*
X24053Y29285D03*
D176*
X24893Y29285D03*
D130*
X22228Y29290D03*
D124*
X22880Y29290D03*
D115*
X23268Y29290D03*
D192*
X23745Y29290D03*
D117*
X24328Y29290D03*
D176*
X24893Y29290D03*
D130*
X22228Y29295D03*
D197*
X22880Y29295D03*
D118*
X23275Y29295D03*
D192*
X23745Y29295D03*
D129*
X24338Y29295D03*
D176*
X24893Y29295D03*
D130*
X22228Y29300D03*
D198*
X22878Y29300D03*
D123*
X23280Y29300D03*
D192*
X23745Y29300D03*
D135*
X24345Y29300D03*
D192*
X24895Y29300D03*
D130*
X22233Y29305D03*
D199*
X22875Y29305D03*
D129*
X23283Y29305D03*
D192*
X23745Y29305D03*
D143*
X24350Y29305D03*
D192*
X24895Y29305D03*
D130*
X22233Y29310D03*
D200*
X22878Y29310D03*
D137*
X23288Y29310D03*
D192*
X23745Y29310D03*
D149*
X24353Y29310D03*
D192*
X24895Y29310D03*
D155*
X22235Y29315D03*
D201*
X22875Y29315D03*
D137*
X23293Y29315D03*
D192*
X23745Y29315D03*
D155*
X24355Y29315D03*
D192*
X24895Y29315D03*
D155*
X22235Y29320D03*
D121*
X22878Y29320D03*
D143*
X23295Y29320D03*
D192*
X23745Y29320D03*
D130*
X24358Y29320D03*
D192*
X24895Y29320D03*
D149*
X22238Y29325D03*
D202*
X22878Y29325D03*
D149*
X23298Y29325D03*
D192*
X23745Y29325D03*
D172*
X24360Y29325D03*
D192*
X24895Y29325D03*
D155*
X22240Y29330D03*
D203*
X22878Y29330D03*
D155*
X23300Y29330D03*
D192*
X23745Y29330D03*
D172*
X24360Y29330D03*
D192*
X24895Y29330D03*
D149*
X22243Y29335D03*
D204*
X22880Y29335D03*
D130*
X23303Y29335D03*
D192*
X23745Y29335D03*
D172*
X24365Y29335D03*
D192*
X24895Y29335D03*
D149*
X22243Y29340D03*
D205*
X22883Y29340D03*
D172*
X23305Y29340D03*
D192*
X23745Y29340D03*
D176*
X24368Y29340D03*
D192*
X24895Y29340D03*
D143*
X22245Y29345D03*
D206*
X22885Y29345D03*
D130*
X23308Y29345D03*
D192*
X23745Y29345D03*
D176*
X24368Y29345D03*
D192*
X24895Y29345D03*
D143*
X22250Y29350D03*
D207*
X22885Y29350D03*
D172*
X23310Y29350D03*
D192*
X23745Y29350D03*
X24370Y29350D03*
X24895Y29350D03*
D137*
X22253Y29355D03*
D208*
X22888Y29355D03*
D172*
X23310Y29355D03*
D192*
X23745Y29355D03*
X24370Y29355D03*
X24900Y29355D03*
D137*
X22253Y29360D03*
D209*
X22890Y29360D03*
D176*
X23313Y29360D03*
D192*
X23745Y29360D03*
X24370Y29360D03*
X24900Y29360D03*
D135*
X22255Y29365D03*
D210*
X22890Y29365D03*
D176*
X23313Y29365D03*
D192*
X23745Y29365D03*
X24370Y29365D03*
X24900Y29365D03*
D135*
X22260Y29370D03*
D211*
X22890Y29370D03*
D176*
X23313Y29370D03*
D192*
X23745Y29370D03*
D212*
X24373Y29370D03*
D192*
X24900Y29370D03*
D129*
X22263Y29375D03*
D213*
X22895Y29375D03*
D192*
X23315Y29375D03*
X23745Y29375D03*
D212*
X24373Y29375D03*
D192*
X24900Y29375D03*
D123*
X22265Y29380D03*
D214*
X22895Y29380D03*
D192*
X23315Y29380D03*
X23745Y29380D03*
D212*
X24373Y29380D03*
D192*
X24900Y29380D03*
D123*
X22270Y29385D03*
D215*
X22898Y29385D03*
D192*
X23315Y29385D03*
X23745Y29385D03*
D212*
X24373Y29385D03*
D192*
X24900Y29385D03*
D120*
X22273Y29390D03*
D192*
X23315Y29390D03*
X23745Y29390D03*
D212*
X24373Y29390D03*
D192*
X24900Y29390D03*
D118*
X22275Y29395D03*
D212*
X23318Y29395D03*
D192*
X23745Y29395D03*
D212*
X24373Y29395D03*
D192*
X24900Y29395D03*
D117*
X22283Y29400D03*
D212*
X23318Y29400D03*
D192*
X23745Y29400D03*
D212*
X24373Y29400D03*
D192*
X24900Y29400D03*
D116*
X22285Y29405D03*
D212*
X23318Y29405D03*
D192*
X23745Y29405D03*
D212*
X24373Y29405D03*
D192*
X24900Y29405D03*
D115*
X22288Y29410D03*
D192*
X23320Y29410D03*
X23745Y29410D03*
D212*
X24373Y29410D03*
D192*
X24900Y29410D03*
D114*
X22295Y29415D03*
D192*
X23320Y29415D03*
X23745Y29415D03*
D212*
X24373Y29415D03*
D192*
X24900Y29415D03*
D112*
X22298Y29420D03*
D192*
X23320Y29420D03*
X23745Y29420D03*
D212*
X24373Y29420D03*
D176*
X24898Y29420D03*
D112*
X22303Y29425D03*
D192*
X23320Y29425D03*
X23745Y29425D03*
X24370Y29425D03*
X24895Y29425D03*
D111*
X22308Y29430D03*
D192*
X23320Y29430D03*
X23745Y29430D03*
X24370Y29430D03*
X24895Y29430D03*
D110*
X22310Y29435D03*
D192*
X23320Y29435D03*
X23745Y29435D03*
X24370Y29435D03*
X24895Y29435D03*
D109*
X22318Y29440D03*
D192*
X23320Y29440D03*
X23745Y29440D03*
D212*
X24368Y29440D03*
D192*
X24895Y29440D03*
D108*
X22320Y29445D03*
D192*
X23320Y29445D03*
X23745Y29445D03*
X24365Y29445D03*
X24895Y29445D03*
D108*
X22325Y29450D03*
D192*
X23320Y29450D03*
X23745Y29450D03*
X24365Y29450D03*
X24895Y29450D03*
D106*
X22330Y29455D03*
D192*
X23320Y29455D03*
X23745Y29455D03*
D176*
X24363Y29455D03*
D192*
X24895Y29455D03*
D106*
X22335Y29460D03*
D192*
X23320Y29460D03*
X23745Y29460D03*
D176*
X24363Y29460D03*
D192*
X24895Y29460D03*
D11*
X22338Y29465D03*
D192*
X23320Y29465D03*
X23745Y29465D03*
D172*
X24360Y29465D03*
D192*
X24895Y29465D03*
D105*
X22345Y29470D03*
D192*
X23320Y29470D03*
X23745Y29470D03*
D172*
X24355Y29470D03*
D192*
X24895Y29470D03*
D104*
X22348Y29475D03*
D192*
X23320Y29475D03*
X23745Y29475D03*
D130*
X24353Y29475D03*
D192*
X24895Y29475D03*
D103*
X22355Y29480D03*
D192*
X23320Y29480D03*
X23745Y29480D03*
D130*
X24353Y29480D03*
D192*
X24895Y29480D03*
D103*
X22360Y29485D03*
D192*
X23320Y29485D03*
X23745Y29485D03*
D149*
X24348Y29485D03*
D192*
X24895Y29485D03*
D102*
X22363Y29490D03*
D192*
X23320Y29490D03*
X23745Y29490D03*
D143*
X24345Y29490D03*
D192*
X24895Y29490D03*
D100*
X22370Y29495D03*
D192*
X23320Y29495D03*
X23745Y29495D03*
D135*
X24335Y29495D03*
D192*
X24895Y29495D03*
D101*
X22373Y29500D03*
D192*
X23320Y29500D03*
X23745Y29500D03*
D120*
X24328Y29500D03*
D192*
X24895Y29500D03*
D99*
X22380Y29505D03*
D192*
X23320Y29505D03*
D191*
X24050Y29505D03*
D192*
X24895Y29505D03*
D99*
X22385Y29510D03*
D192*
X23320Y29510D03*
D190*
X24048Y29510D03*
D192*
X24895Y29510D03*
D98*
X22388Y29515D03*
D192*
X23320Y29515D03*
D190*
X24048Y29515D03*
D192*
X24895Y29515D03*
D97*
X22395Y29520D03*
D192*
X23320Y29520D03*
D190*
X24048Y29520D03*
D192*
X24895Y29520D03*
D97*
X22400Y29525D03*
D192*
X23320Y29525D03*
D188*
X24045Y29525D03*
D192*
X24895Y29525D03*
D95*
X22403Y29530D03*
D192*
X23320Y29530D03*
D188*
X24045Y29530D03*
D192*
X24895Y29530D03*
D96*
X22410Y29535D03*
D192*
X23320Y29535D03*
D188*
X24045Y29535D03*
D192*
X24895Y29535D03*
D96*
X22415Y29540D03*
D192*
X23320Y29540D03*
D187*
X24043Y29540D03*
D192*
X24895Y29540D03*
D94*
X22418Y29545D03*
D192*
X23320Y29545D03*
D187*
X24043Y29545D03*
D192*
X24895Y29545D03*
D216*
X22425Y29550D03*
D192*
X23320Y29550D03*
D186*
X24040Y29550D03*
D192*
X24895Y29550D03*
D216*
X22430Y29555D03*
D192*
X23320Y29555D03*
D186*
X24040Y29555D03*
D192*
X24895Y29555D03*
D93*
X22438Y29560D03*
D192*
X23320Y29560D03*
D184*
X24038Y29560D03*
D192*
X24895Y29560D03*
D93*
X22443Y29565D03*
D192*
X23320Y29565D03*
D184*
X24038Y29565D03*
D176*
X24893Y29565D03*
D93*
X22448Y29570D03*
D192*
X23320Y29570D03*
D184*
X24038Y29570D03*
D192*
X24890Y29570D03*
D92*
X22453Y29575D03*
D192*
X23320Y29575D03*
D183*
X24035Y29575D03*
D192*
X24890Y29575D03*
D92*
X22458Y29580D03*
D192*
X23320Y29580D03*
D181*
X24033Y29580D03*
D192*
X24890Y29580D03*
D91*
X22465Y29585D03*
D192*
X23320Y29585D03*
D181*
X24033Y29585D03*
D192*
X24890Y29585D03*
D91*
X22470Y29590D03*
D192*
X23320Y29590D03*
D179*
X24030Y29590D03*
D192*
X24890Y29590D03*
D91*
X22475Y29595D03*
D192*
X23320Y29595D03*
D179*
X24030Y29595D03*
D192*
X24890Y29595D03*
D90*
X22483Y29600D03*
D192*
X23320Y29600D03*
D177*
X24028Y29600D03*
D192*
X24890Y29600D03*
D89*
X22490Y29605D03*
D192*
X23320Y29605D03*
D177*
X24028Y29605D03*
D192*
X24890Y29605D03*
D88*
X22498Y29610D03*
D192*
X23320Y29610D03*
D175*
X24025Y29610D03*
D192*
X24890Y29610D03*
D87*
X22505Y29615D03*
D192*
X23320Y29615D03*
D174*
X24023Y29615D03*
D192*
X24890Y29615D03*
D86*
X22515Y29620D03*
D192*
X23320Y29620D03*
D173*
X24020Y29620D03*
D192*
X24890Y29620D03*
D85*
X22523Y29625D03*
D192*
X23320Y29625D03*
D171*
X24018Y29625D03*
D192*
X24890Y29625D03*
D84*
X22533Y29630D03*
D192*
X23320Y29630D03*
D171*
X24018Y29630D03*
D192*
X24890Y29630D03*
D217*
X22545Y29635D03*
D192*
X23320Y29635D03*
D169*
X24015Y29635D03*
D192*
X24890Y29635D03*
D152*
X22553Y29640D03*
D192*
X23320Y29640D03*
D167*
X24013Y29640D03*
D192*
X24890Y29640D03*
D152*
X22558Y29645D03*
D192*
X23320Y29645D03*
D165*
X24010Y29645D03*
D192*
X24890Y29645D03*
D82*
X22565Y29650D03*
D192*
X23320Y29650D03*
D164*
X24008Y29650D03*
D192*
X24890Y29650D03*
D152*
X22573Y29655D03*
D192*
X23320Y29655D03*
D163*
X24005Y29655D03*
D192*
X24890Y29655D03*
D152*
X22578Y29660D03*
D192*
X23320Y29660D03*
D161*
X24003Y29660D03*
D192*
X24890Y29660D03*
D217*
X22580Y29665D03*
D192*
X23320Y29665D03*
D157*
X23998Y29665D03*
D192*
X24890Y29665D03*
D84*
X22588Y29670D03*
D192*
X23320Y29670D03*
D157*
X23998Y29670D03*
D192*
X24890Y29670D03*
D84*
X22593Y29675D03*
D192*
X23320Y29675D03*
D161*
X24003Y29675D03*
D192*
X24890Y29675D03*
D150*
X22600Y29680D03*
D192*
X23320Y29680D03*
D163*
X24005Y29680D03*
D192*
X24890Y29680D03*
D85*
X22603Y29685D03*
D192*
X23320Y29685D03*
D164*
X24008Y29685D03*
D192*
X24890Y29685D03*
D85*
X22608Y29690D03*
D192*
X23320Y29690D03*
D165*
X24010Y29690D03*
D192*
X24890Y29690D03*
D147*
X22613Y29695D03*
D192*
X23320Y29695D03*
D165*
X24010Y29695D03*
D192*
X24890Y29695D03*
D147*
X22618Y29700D03*
D192*
X23320Y29700D03*
D167*
X24013Y29700D03*
D192*
X24890Y29700D03*
D87*
X22620Y29705D03*
D192*
X23320Y29705D03*
D169*
X24015Y29705D03*
D192*
X24890Y29705D03*
D89*
X22625Y29710D03*
D192*
X23320Y29710D03*
D171*
X24018Y29710D03*
D176*
X24888Y29710D03*
D89*
X22630Y29715D03*
D192*
X23320Y29715D03*
D173*
X24020Y29715D03*
D192*
X24885Y29715D03*
D91*
X22635Y29720D03*
D192*
X23320Y29720D03*
D173*
X24020Y29720D03*
D192*
X24885Y29720D03*
D92*
X22638Y29725D03*
D192*
X23320Y29725D03*
D174*
X24023Y29725D03*
D192*
X24885Y29725D03*
D218*
X22640Y29730D03*
D192*
X23320Y29730D03*
D175*
X24025Y29730D03*
D192*
X24885Y29730D03*
D216*
X22645Y29735D03*
D192*
X23320Y29735D03*
D175*
X24025Y29735D03*
D192*
X24885Y29735D03*
D94*
X22648Y29740D03*
D192*
X23320Y29740D03*
D177*
X24028Y29740D03*
D192*
X24885Y29740D03*
D95*
X22653Y29745D03*
D192*
X23320Y29745D03*
D179*
X24030Y29745D03*
D192*
X24885Y29745D03*
D97*
X22655Y29750D03*
D192*
X23320Y29750D03*
D179*
X24030Y29750D03*
D192*
X24885Y29750D03*
D98*
X22658Y29755D03*
D192*
X23320Y29755D03*
D181*
X24033Y29755D03*
D192*
X24885Y29755D03*
D101*
X22663Y29760D03*
D192*
X23320Y29760D03*
D181*
X24033Y29760D03*
D192*
X24885Y29760D03*
D100*
X22665Y29765D03*
D192*
X23320Y29765D03*
D181*
X24033Y29765D03*
D192*
X24885Y29765D03*
D102*
X22668Y29770D03*
D192*
X23320Y29770D03*
D183*
X24035Y29770D03*
D192*
X24885Y29770D03*
D104*
X22673Y29775D03*
D192*
X23320Y29775D03*
D183*
X24035Y29775D03*
D192*
X24885Y29775D03*
D105*
X22675Y29780D03*
D192*
X23320Y29780D03*
D184*
X24038Y29780D03*
D192*
X24885Y29780D03*
D106*
X22680Y29785D03*
D192*
X23320Y29785D03*
D184*
X24038Y29785D03*
D192*
X24885Y29785D03*
D107*
X22683Y29790D03*
D192*
X23320Y29790D03*
D184*
X24038Y29790D03*
D192*
X24885Y29790D03*
D108*
X22685Y29795D03*
D192*
X23320Y29795D03*
D186*
X24040Y29795D03*
D192*
X24885Y29795D03*
D110*
X22690Y29800D03*
D192*
X23320Y29800D03*
D186*
X24040Y29800D03*
D192*
X24885Y29800D03*
D111*
X22693Y29805D03*
D192*
X23320Y29805D03*
X23745Y29805D03*
D120*
X24308Y29805D03*
D192*
X24885Y29805D03*
D112*
X22698Y29810D03*
D192*
X23320Y29810D03*
X23745Y29810D03*
D135*
X24320Y29810D03*
D192*
X24885Y29810D03*
D114*
X22700Y29815D03*
D192*
X23320Y29815D03*
X23745Y29815D03*
D143*
X24325Y29815D03*
D192*
X24885Y29815D03*
D115*
X22703Y29820D03*
D192*
X23320Y29820D03*
X23745Y29820D03*
D155*
X24330Y29820D03*
D192*
X24885Y29820D03*
D117*
X22708Y29825D03*
D192*
X23320Y29825D03*
X23745Y29825D03*
D155*
X24335Y29825D03*
D192*
X24885Y29825D03*
D118*
X22710Y29830D03*
D192*
X23320Y29830D03*
X23745Y29830D03*
D130*
X24338Y29830D03*
D192*
X24885Y29830D03*
D120*
X22713Y29835D03*
D192*
X23320Y29835D03*
X23745Y29835D03*
D172*
X24340Y29835D03*
D192*
X24885Y29835D03*
D129*
X22718Y29840D03*
D192*
X23320Y29840D03*
X23745Y29840D03*
D176*
X24343Y29840D03*
D192*
X24885Y29840D03*
D135*
X22720Y29845D03*
D192*
X23320Y29845D03*
X23745Y29845D03*
D176*
X24343Y29845D03*
D192*
X24885Y29845D03*
D143*
X22725Y29850D03*
D192*
X23320Y29850D03*
X23745Y29850D03*
D176*
X24348Y29850D03*
D192*
X24885Y29850D03*
D149*
X22728Y29855D03*
D192*
X23320Y29855D03*
X23745Y29855D03*
X24350Y29855D03*
X24885Y29855D03*
D130*
X22733Y29860D03*
D192*
X23320Y29860D03*
X23745Y29860D03*
X24350Y29860D03*
X24880Y29860D03*
D172*
X22735Y29865D03*
D192*
X23320Y29865D03*
X23745Y29865D03*
X24350Y29865D03*
X24880Y29865D03*
D176*
X22738Y29870D03*
D192*
X23320Y29870D03*
X23745Y29870D03*
D212*
X24353Y29870D03*
D192*
X24880Y29870D03*
D176*
X22738Y29875D03*
D192*
X23320Y29875D03*
X23745Y29875D03*
D212*
X24353Y29875D03*
D192*
X24880Y29875D03*
D176*
X22738Y29880D03*
D192*
X23320Y29880D03*
X23745Y29880D03*
D212*
X24353Y29880D03*
D192*
X24880Y29880D03*
D176*
X22738Y29885D03*
D192*
X23320Y29885D03*
X23745Y29885D03*
D212*
X24353Y29885D03*
D192*
X24880Y29885D03*
D176*
X22738Y29890D03*
D192*
X23320Y29890D03*
X23745Y29890D03*
D127*
X24355Y29890D03*
D192*
X24880Y29890D03*
D176*
X22738Y29895D03*
D192*
X23320Y29895D03*
X23745Y29895D03*
D212*
X24358Y29895D03*
D192*
X24880Y29895D03*
D176*
X22738Y29900D03*
D192*
X23320Y29900D03*
X23745Y29900D03*
D212*
X24358Y29900D03*
D192*
X24880Y29900D03*
D176*
X22738Y29905D03*
D192*
X23320Y29905D03*
X23745Y29905D03*
D212*
X24358Y29905D03*
D192*
X24880Y29905D03*
D176*
X22738Y29910D03*
D192*
X23320Y29910D03*
X23745Y29910D03*
D212*
X24358Y29910D03*
D192*
X24880Y29910D03*
D176*
X22738Y29915D03*
D192*
X23320Y29915D03*
X23745Y29915D03*
D212*
X24358Y29915D03*
D192*
X24880Y29915D03*
D176*
X22738Y29920D03*
D192*
X23320Y29920D03*
X23745Y29920D03*
X24355Y29920D03*
X24880Y29920D03*
D176*
X22738Y29925D03*
D192*
X23320Y29925D03*
X23745Y29925D03*
X24355Y29925D03*
X24880Y29925D03*
D176*
X22738Y29930D03*
D192*
X23320Y29930D03*
X23745Y29930D03*
D212*
X24353Y29930D03*
D192*
X24880Y29930D03*
D176*
X22738Y29935D03*
D192*
X23320Y29935D03*
X23745Y29935D03*
D212*
X24353Y29935D03*
D192*
X24880Y29935D03*
D176*
X22738Y29940D03*
D192*
X23320Y29940D03*
X23745Y29940D03*
D212*
X24353Y29940D03*
D192*
X24880Y29940D03*
D176*
X22738Y29945D03*
D192*
X23320Y29945D03*
X23745Y29945D03*
X24350Y29945D03*
X24880Y29945D03*
D176*
X22738Y29950D03*
D192*
X23320Y29950D03*
X23745Y29950D03*
X24350Y29950D03*
X24880Y29950D03*
D176*
X22738Y29955D03*
D192*
X23320Y29955D03*
X23745Y29955D03*
D176*
X24348Y29955D03*
D192*
X24880Y29955D03*
D176*
X22738Y29960D03*
D192*
X23320Y29960D03*
X23745Y29960D03*
D176*
X24348Y29960D03*
D192*
X24880Y29960D03*
D176*
X22738Y29965D03*
D192*
X23320Y29965D03*
X23745Y29965D03*
D172*
X24345Y29965D03*
D192*
X24880Y29965D03*
D176*
X22738Y29970D03*
D192*
X23320Y29970D03*
X23745Y29970D03*
D130*
X24343Y29970D03*
D192*
X24880Y29970D03*
D176*
X22738Y29975D03*
D192*
X23320Y29975D03*
X23745Y29975D03*
D155*
X24340Y29975D03*
D192*
X24880Y29975D03*
D176*
X22738Y29980D03*
D192*
X23320Y29980D03*
X23745Y29980D03*
D149*
X24338Y29980D03*
D176*
X24878Y29980D03*
X22738Y29985D03*
D192*
X23320Y29985D03*
X23745Y29985D03*
D143*
X24335Y29985D03*
D176*
X24878Y29985D03*
X22738Y29990D03*
D192*
X23320Y29990D03*
X23745Y29990D03*
D137*
X24328Y29990D03*
D176*
X24878Y29990D03*
X22738Y29995D03*
D192*
X23320Y29995D03*
X23745Y29995D03*
D129*
X24323Y29995D03*
D192*
X24875Y29995D03*
D176*
X22738Y30000D03*
D192*
X23320Y30000D03*
X23745Y30000D03*
D117*
X24313Y30000D03*
D192*
X24875Y30000D03*
D176*
X22738Y30005D03*
D192*
X23320Y30005D03*
D188*
X24045Y30005D03*
D192*
X24875Y30005D03*
D176*
X22738Y30010D03*
D192*
X23320Y30010D03*
D188*
X24045Y30010D03*
D192*
X24875Y30010D03*
D176*
X22738Y30015D03*
D192*
X23320Y30015D03*
D187*
X24043Y30015D03*
D192*
X24875Y30015D03*
D176*
X22738Y30020D03*
D192*
X23320Y30020D03*
D187*
X24043Y30020D03*
D192*
X24875Y30020D03*
D176*
X22738Y30025D03*
D192*
X23320Y30025D03*
D187*
X24043Y30025D03*
D176*
X24873Y30025D03*
X22738Y30030D03*
D192*
X23320Y30030D03*
D187*
X24043Y30030D03*
D176*
X24873Y30030D03*
X22738Y30035D03*
D192*
X23320Y30035D03*
D186*
X24040Y30035D03*
D176*
X24873Y30035D03*
X22738Y30040D03*
D192*
X23320Y30040D03*
D186*
X24040Y30040D03*
D176*
X24873Y30040D03*
X22738Y30045D03*
D192*
X23320Y30045D03*
D186*
X24040Y30045D03*
D192*
X24870Y30045D03*
D176*
X22738Y30050D03*
D192*
X23320Y30050D03*
D186*
X24040Y30050D03*
D192*
X24870Y30050D03*
D176*
X22738Y30055D03*
D192*
X23320Y30055D03*
D184*
X24038Y30055D03*
D176*
X24868Y30055D03*
X22738Y30060D03*
D192*
X23320Y30060D03*
D184*
X24038Y30060D03*
D176*
X24868Y30060D03*
X22738Y30065D03*
D192*
X23320Y30065D03*
D183*
X24035Y30065D03*
D176*
X24868Y30065D03*
X22738Y30070D03*
D192*
X23320Y30070D03*
D183*
X24035Y30070D03*
D176*
X24868Y30070D03*
X22738Y30075D03*
D192*
X23320Y30075D03*
D183*
X24035Y30075D03*
D172*
X24865Y30075D03*
D176*
X22738Y30080D03*
D192*
X23320Y30080D03*
D181*
X24033Y30080D03*
D176*
X24863Y30080D03*
X22738Y30085D03*
D192*
X23320Y30085D03*
D181*
X24033Y30085D03*
D176*
X24863Y30085D03*
X22738Y30090D03*
D192*
X23320Y30090D03*
D179*
X24030Y30090D03*
D176*
X24863Y30090D03*
X22738Y30095D03*
D192*
X23320Y30095D03*
D179*
X24030Y30095D03*
D172*
X24860Y30095D03*
D176*
X22738Y30100D03*
D192*
X23320Y30100D03*
D177*
X24028Y30100D03*
D172*
X24860Y30100D03*
D176*
X22738Y30105D03*
D192*
X23320Y30105D03*
D177*
X24028Y30105D03*
D172*
X24860Y30105D03*
D176*
X22738Y30110D03*
D192*
X23320Y30110D03*
D175*
X24025Y30110D03*
D176*
X24858Y30110D03*
X22738Y30115D03*
D192*
X23320Y30115D03*
D175*
X24025Y30115D03*
D172*
X24855Y30115D03*
D176*
X22738Y30120D03*
D192*
X23320Y30120D03*
D174*
X24023Y30120D03*
D172*
X24855Y30120D03*
D176*
X22738Y30125D03*
D192*
X23320Y30125D03*
D174*
X24023Y30125D03*
D172*
X24855Y30125D03*
D176*
X22738Y30130D03*
D192*
X23320Y30130D03*
D173*
X24020Y30130D03*
D130*
X24853Y30130D03*
D176*
X22738Y30135D03*
D192*
X23320Y30135D03*
D173*
X24020Y30135D03*
D172*
X24850Y30135D03*
D176*
X22738Y30140D03*
D192*
X23320Y30140D03*
D171*
X24018Y30140D03*
D172*
X24850Y30140D03*
D176*
X22738Y30145D03*
D192*
X23320Y30145D03*
D169*
X24015Y30145D03*
D130*
X24848Y30145D03*
D176*
X22738Y30150D03*
D192*
X23320Y30150D03*
D167*
X24013Y30150D03*
D130*
X24848Y30150D03*
D176*
X22738Y30155D03*
D192*
X23320Y30155D03*
D167*
X24013Y30155D03*
D172*
X24845Y30155D03*
D176*
X22738Y30160D03*
D192*
X23320Y30160D03*
D165*
X24010Y30160D03*
D130*
X24843Y30160D03*
D176*
X22738Y30165D03*
D192*
X23320Y30165D03*
D164*
X24008Y30165D03*
D130*
X24843Y30165D03*
D176*
X22738Y30170D03*
D192*
X23320Y30170D03*
D163*
X24005Y30170D03*
D155*
X24840Y30170D03*
D176*
X22738Y30175D03*
D192*
X23320Y30175D03*
D163*
X24005Y30175D03*
D130*
X24838Y30175D03*
D176*
X22738Y30180D03*
D192*
X23320Y30180D03*
D161*
X24003Y30180D03*
D130*
X24838Y30180D03*
D176*
X22738Y30185D03*
D192*
X23320Y30185D03*
D159*
X24000Y30185D03*
D155*
X24835Y30185D03*
D176*
X22738Y30190D03*
D192*
X23320Y30190D03*
D157*
X23998Y30190D03*
D155*
X24835Y30190D03*
D176*
X22738Y30195D03*
D192*
X23320Y30195D03*
D154*
X23995Y30195D03*
D155*
X24830Y30195D03*
D176*
X22738Y30200D03*
D192*
X23320Y30200D03*
D153*
X23993Y30200D03*
D155*
X24830Y30200D03*
D176*
X22738Y30205D03*
D192*
X23320Y30205D03*
D219*
X23990Y30205D03*
D149*
X24828Y30205D03*
D176*
X22738Y30210D03*
D192*
X23320Y30210D03*
D151*
X23988Y30210D03*
D155*
X24825Y30210D03*
D176*
X22738Y30215D03*
D192*
X23320Y30215D03*
D146*
X23983Y30215D03*
D149*
X24823Y30215D03*
D176*
X22738Y30220D03*
D192*
X23320Y30220D03*
D145*
X23980Y30220D03*
D149*
X24823Y30220D03*
D176*
X22738Y30225D03*
D192*
X23320Y30225D03*
D185*
X23978Y30225D03*
D143*
X24820Y30225D03*
D176*
X22738Y30230D03*
D192*
X23320Y30230D03*
D142*
X23973Y30230D03*
D149*
X24818Y30230D03*
D176*
X22738Y30235D03*
D192*
X23320Y30235D03*
D141*
X23970Y30235D03*
D143*
X24815Y30235D03*
D176*
X22738Y30240D03*
D192*
X23320Y30240D03*
D140*
X23965Y30240D03*
D143*
X24815Y30240D03*
D176*
X22738Y30245D03*
D192*
X23320Y30245D03*
D139*
X23960Y30245D03*
D143*
X24810Y30245D03*
D176*
X22738Y30250D03*
D192*
X23320Y30250D03*
D180*
X23958Y30250D03*
D137*
X24808Y30250D03*
D176*
X22738Y30255D03*
D192*
X23320Y30255D03*
D136*
X23953Y30255D03*
D143*
X24805Y30255D03*
D176*
X22738Y30260D03*
D192*
X23320Y30260D03*
D193*
X23948Y30260D03*
D137*
X24803Y30260D03*
D176*
X22738Y30265D03*
D192*
X23320Y30265D03*
D133*
X23940Y30265D03*
D137*
X24803Y30265D03*
D176*
X22738Y30270D03*
D192*
X23320Y30270D03*
D220*
X23933Y30270D03*
D137*
X24798Y30270D03*
D176*
X22738Y30275D03*
D192*
X23320Y30275D03*
D131*
X23928Y30275D03*
D135*
X24795Y30275D03*
D176*
X22738Y30280D03*
D192*
X23320Y30280D03*
D128*
X23918Y30280D03*
D135*
X24795Y30280D03*
D176*
X22738Y30285D03*
D192*
X23320Y30285D03*
D126*
X23908Y30285D03*
D135*
X24790Y30285D03*
D176*
X22738Y30290D03*
D192*
X23320Y30290D03*
D81*
X23895Y30290D03*
D129*
X24788Y30290D03*
D176*
X22738Y30295D03*
D192*
X23320Y30295D03*
D152*
X23878Y30295D03*
D135*
X24785Y30295D03*
D176*
X22738Y30300D03*
D129*
X24783Y30300D03*
D176*
X22738Y30305D03*
D129*
X24778Y30305D03*
D176*
X22738Y30310D03*
D123*
X24775Y30310D03*
D176*
X22738Y30315D03*
D120*
X24773Y30315D03*
D176*
X22738Y30320D03*
D123*
X24770Y30320D03*
D172*
X22740Y30325D03*
D120*
X24768Y30325D03*
D172*
X22740Y30330D03*
D120*
X24763Y30330D03*
D172*
X22740Y30335D03*
D118*
X24760Y30335D03*
D176*
X22743Y30340D03*
D118*
X24755Y30340D03*
D176*
X22743Y30345D03*
D117*
X24753Y30345D03*
D176*
X22743Y30350D03*
D117*
X24748Y30350D03*
D172*
X22745Y30355D03*
D116*
X24745Y30355D03*
D172*
X22745Y30360D03*
D117*
X24743Y30360D03*
D172*
X22745Y30365D03*
D116*
X24740Y30365D03*
D172*
X22745Y30370D03*
D115*
X24733Y30370D03*
D130*
X22748Y30375D03*
D114*
X24730Y30375D03*
D130*
X22748Y30380D03*
D114*
X24725Y30380D03*
D172*
X22750Y30385D03*
D112*
X24723Y30385D03*
D130*
X22753Y30390D03*
D112*
X24718Y30390D03*
D130*
X22753Y30395D03*
D112*
X24713Y30395D03*
D155*
X22755Y30400D03*
D113*
X24710Y30400D03*
D155*
X22755Y30405D03*
D111*
X24703Y30405D03*
D149*
X22758Y30410D03*
D110*
X24700Y30410D03*
D155*
X22760Y30415D03*
D110*
X24695Y30415D03*
D149*
X22763Y30420D03*
D110*
X24690Y30420D03*
D149*
X22763Y30425D03*
D108*
X24685Y30425D03*
D143*
X22765Y30430D03*
D108*
X24680Y30430D03*
D143*
X22770Y30435D03*
D106*
X24675Y30435D03*
D143*
X22770Y30440D03*
D106*
X24670Y30440D03*
D137*
X22773Y30445D03*
D11*
X24663Y30445D03*
D135*
X22775Y30450D03*
D104*
X24658Y30450D03*
D135*
X22780Y30455D03*
D103*
X24650Y30455D03*
D135*
X22780Y30460D03*
D103*
X24645Y30460D03*
D129*
X22783Y30465D03*
D100*
X24640Y30465D03*
D129*
X22788Y30470D03*
D101*
X24633Y30470D03*
D123*
X22790Y30475D03*
D99*
X24625Y30475D03*
D120*
X22793Y30480D03*
D98*
X24618Y30480D03*
D118*
X22800Y30485D03*
D96*
X24610Y30485D03*
D117*
X22803Y30490D03*
D94*
X24603Y30490D03*
D116*
X22805Y30495D03*
D93*
X24593Y30495D03*
D115*
X22813Y30500D03*
D92*
X24583Y30500D03*
D114*
X22815Y30505D03*
D89*
X24575Y30505D03*
D112*
X22823Y30510D03*
D87*
X24565Y30510D03*
D111*
X22828Y30515D03*
D85*
X24553Y30515D03*
D109*
X22833Y30520D03*
D217*
X24540Y30520D03*
D108*
X22840Y30525D03*
D83*
X24528Y30525D03*
D11*
X22848Y30530D03*
D160*
X24513Y30530D03*
D103*
X22860Y30535D03*
D76*
X24493Y30535D03*
D95*
X22878Y30540D03*
D134*
X24455Y30540D03*
D42*
X23723Y30545D03*
D221*
X23720Y30550D03*
D41*
X23720Y30555D03*
D222*
X23718Y30560D03*
D40*
X23718Y30565D03*
D223*
X23715Y30570D03*
D224*
X23715Y30575D03*
D39*
X23713Y30580D03*
D225*
X23715Y30585D03*
D226*
X23713Y30590D03*
D227*
X23710Y30595D03*
D228*
X23710Y30600D03*
D229*
X23710Y30605D03*
D36*
X23708Y30610D03*
D230*
X23708Y30615D03*
D231*
X23708Y30620D03*
D232*
X23705Y30625D03*
D34*
X23705Y30630D03*
D233*
X23705Y30635D03*
D234*
X23703Y30640D03*
D235*
X23700Y30645D03*
D236*
X23700Y30650D03*
D237*
X23700Y30655D03*
D238*
X23698Y30660D03*
D239*
X23698Y30665D03*
D240*
X23698Y30670D03*
D29*
X23695Y30675D03*
D241*
X23693Y30680D03*
D242*
X23693Y30685D03*
D243*
X23690Y30690D03*
D244*
X23690Y30695D03*
D245*
X23688Y30700D03*
D246*
X23690Y30705D03*
D247*
X23688Y30710D03*
D248*
X23685Y30715D03*
D249*
X23685Y30720D03*
D250*
X23683Y30725D03*
D23*
X23680Y30730D03*
D251*
X23678Y30735D03*
D252*
X23678Y30740D03*
D253*
X23678Y30745D03*
D21*
X23675Y30750D03*
D254*
X23675Y30755D03*
D255*
X23670Y30760D03*
D256*
X23670Y30765D03*
D257*
X23668Y30770D03*
D258*
X23668Y30775D03*
D259*
X23665Y30780D03*
D260*
X23663Y30785D03*
D261*
X23660Y30790D03*
D262*
X23658Y30795D03*
D263*
X23655Y30800D03*
D264*
X23653Y30805D03*
D265*
X23650Y30810D03*
D266*
X23650Y30815D03*
D267*
X23645Y30820D03*
D268*
X23643Y30825D03*
D269*
X23640Y30830D03*
D270*
X23635Y30835D03*
D271*
X23630Y30840D03*
D272*
X23625Y30845D03*
D273*
X23618Y30850D03*
D274*
X23605Y30855D03*
D275*
X22775Y28152D02*
X22817Y28025D01*
X22859Y28152D01*
X22959Y28173D02*
X23012Y28215D01*
X23012Y28025D01*
X23064Y28025D02*
X22959Y28025D01*
X23158Y28025D02*
X23158Y28036D01*
X23168Y28036D01*
X23168Y28025D01*
X23158Y28025D01*
X23261Y28120D02*
X23263Y28144D01*
X23268Y28167D01*
X23277Y28189D01*
X23283Y28199D01*
X23291Y28208D01*
X23302Y28213D01*
X23314Y28215D01*
X23326Y28213D01*
X23337Y28208D01*
X23345Y28199D01*
X23351Y28189D01*
X23360Y28167D01*
X23365Y28144D01*
X23367Y28120D01*
X23261Y28120D02*
X23263Y28096D01*
X23268Y28073D01*
X23277Y28051D01*
X23283Y28041D01*
X23291Y28032D01*
X23302Y28027D01*
X23314Y28025D01*
X23351Y28051D02*
X23360Y28073D01*
X23365Y28096D01*
X23367Y28120D01*
X23351Y28051D02*
X23345Y28041D01*
X23337Y28032D01*
X23326Y28027D01*
X23314Y28025D01*
X23272Y28067D02*
X23356Y28173D01*
X23650Y28215D02*
X23662Y28213D01*
X23674Y28209D01*
X23684Y28201D01*
X23692Y28191D01*
X23696Y28179D01*
X23698Y28167D01*
X23650Y28215D02*
X23637Y28214D01*
X23625Y28210D01*
X23614Y28203D01*
X23605Y28195D01*
X23597Y28184D01*
X23592Y28173D01*
X23682Y28130D02*
X23691Y28141D01*
X23696Y28153D01*
X23698Y28167D01*
X23682Y28131D02*
X23592Y28025D01*
X23698Y28025D01*
X23808Y28120D02*
X23810Y28144D01*
X23815Y28167D01*
X23824Y28189D01*
X23830Y28199D01*
X23838Y28208D01*
X23849Y28213D01*
X23861Y28215D01*
X23873Y28213D01*
X23884Y28208D01*
X23892Y28199D01*
X23898Y28189D01*
X23907Y28167D01*
X23912Y28144D01*
X23914Y28120D01*
X23808Y28120D02*
X23810Y28096D01*
X23815Y28073D01*
X23824Y28051D01*
X23830Y28041D01*
X23838Y28032D01*
X23849Y28027D01*
X23861Y28025D01*
X23898Y28051D02*
X23907Y28073D01*
X23912Y28096D01*
X23914Y28120D01*
X23898Y28051D02*
X23892Y28041D01*
X23884Y28032D01*
X23873Y28027D01*
X23861Y28025D01*
X23819Y28067D02*
X23903Y28173D01*
X24082Y28215D02*
X24094Y28213D01*
X24106Y28209D01*
X24116Y28201D01*
X24124Y28191D01*
X24128Y28179D01*
X24130Y28167D01*
X24082Y28215D02*
X24069Y28214D01*
X24057Y28210D01*
X24046Y28203D01*
X24037Y28195D01*
X24029Y28184D01*
X24024Y28173D01*
X24114Y28130D02*
X24123Y28141D01*
X24128Y28153D01*
X24130Y28167D01*
X24114Y28131D02*
X24024Y28025D01*
X24130Y28025D01*
X24240Y28025D02*
X24293Y28025D01*
X24307Y28027D01*
X24320Y28032D01*
X24330Y28041D01*
X24339Y28052D01*
X24344Y28064D01*
X24346Y28078D01*
X24344Y28092D01*
X24339Y28105D01*
X24330Y28115D01*
X24320Y28124D01*
X24307Y28129D01*
X24293Y28131D01*
X24304Y28215D02*
X24240Y28215D01*
X24304Y28215D02*
X24316Y28213D01*
X24327Y28208D01*
X24336Y28201D01*
X24342Y28190D01*
X24346Y28179D01*
X24346Y28167D01*
X24342Y28156D01*
X24336Y28145D01*
X24327Y28138D01*
X24316Y28133D01*
X24304Y28131D01*
X24262Y28131D01*
X22765Y20441D02*
X22765Y20399D01*
X22764Y20388D01*
X22759Y20378D01*
X22753Y20369D01*
X22744Y20363D01*
X22734Y20358D01*
X22723Y20357D01*
X22617Y20357D01*
X22606Y20358D01*
X22596Y20363D01*
X22587Y20369D01*
X22581Y20378D01*
X22576Y20388D01*
X22575Y20399D01*
X22575Y20441D01*
X22765Y20538D02*
X22765Y20591D01*
X22763Y20605D01*
X22758Y20618D01*
X22749Y20628D01*
X22739Y20637D01*
X22726Y20642D01*
X22712Y20644D01*
X22698Y20642D01*
X22686Y20637D01*
X22675Y20628D01*
X22666Y20618D01*
X22661Y20605D01*
X22659Y20591D01*
X22575Y20601D02*
X22575Y20538D01*
X22575Y20601D02*
X22577Y20613D01*
X22582Y20624D01*
X22589Y20633D01*
X22600Y20639D01*
X22611Y20643D01*
X22623Y20643D01*
X22634Y20639D01*
X22645Y20633D01*
X22652Y20624D01*
X22657Y20613D01*
X22659Y20601D01*
X22659Y20559D01*
X21830Y20093D02*
X21806Y20095D01*
X21783Y20100D01*
X21761Y20109D01*
X21761Y20110D02*
X21751Y20116D01*
X21742Y20124D01*
X21737Y20135D01*
X21735Y20147D01*
X21737Y20159D01*
X21742Y20170D01*
X21751Y20178D01*
X21761Y20184D01*
X21783Y20193D01*
X21806Y20198D01*
X21830Y20200D01*
X21830Y20093D02*
X21854Y20095D01*
X21877Y20100D01*
X21899Y20109D01*
X21899Y20110D02*
X21909Y20116D01*
X21918Y20124D01*
X21923Y20135D01*
X21925Y20147D01*
X21899Y20184D02*
X21877Y20193D01*
X21854Y20198D01*
X21830Y20200D01*
X21899Y20184D02*
X21909Y20178D01*
X21918Y20170D01*
X21923Y20159D01*
X21925Y20147D01*
X21883Y20104D02*
X21777Y20189D01*
X21914Y20292D02*
X21925Y20292D01*
X21914Y20292D02*
X21914Y20303D01*
X21925Y20303D01*
X21925Y20292D01*
X21777Y20396D02*
X21735Y20449D01*
X21925Y20449D01*
X21925Y20396D02*
X21925Y20502D01*
X21893Y20616D02*
X21798Y20616D01*
X21893Y20615D02*
X21903Y20617D01*
X21912Y20621D01*
X21919Y20628D01*
X21923Y20637D01*
X21925Y20647D01*
X21925Y20700D01*
X21798Y20700D01*
X21735Y20822D02*
X21925Y20822D01*
X21735Y20822D02*
X21735Y20906D01*
X21819Y20906D02*
X21819Y20822D01*
X23399Y22325D02*
X23441Y22325D01*
X23399Y22325D02*
X23388Y22326D01*
X23378Y22331D01*
X23369Y22337D01*
X23363Y22346D01*
X23358Y22356D01*
X23357Y22367D01*
X23357Y22473D01*
X23358Y22484D01*
X23363Y22494D01*
X23369Y22503D01*
X23378Y22509D01*
X23388Y22514D01*
X23399Y22515D01*
X23441Y22515D01*
X23580Y22515D02*
X23538Y22367D01*
X23643Y22367D01*
X23612Y22409D02*
X23612Y22325D01*
X23109Y21649D02*
X23100Y21627D01*
X23095Y21604D01*
X23093Y21580D01*
X23110Y21649D02*
X23116Y21659D01*
X23124Y21668D01*
X23135Y21673D01*
X23147Y21675D01*
X23159Y21673D01*
X23170Y21668D01*
X23178Y21659D01*
X23184Y21649D01*
X23193Y21627D01*
X23198Y21604D01*
X23200Y21580D01*
X23093Y21580D02*
X23095Y21556D01*
X23100Y21533D01*
X23109Y21511D01*
X23110Y21511D02*
X23116Y21501D01*
X23124Y21492D01*
X23135Y21487D01*
X23147Y21485D01*
X23184Y21511D02*
X23193Y21533D01*
X23198Y21556D01*
X23200Y21580D01*
X23184Y21511D02*
X23178Y21501D01*
X23170Y21492D01*
X23159Y21487D01*
X23147Y21485D01*
X23104Y21527D02*
X23189Y21633D01*
X23292Y21496D02*
X23292Y21485D01*
X23292Y21496D02*
X23303Y21496D01*
X23303Y21485D01*
X23292Y21485D01*
X23396Y21633D02*
X23449Y21675D01*
X23449Y21485D01*
X23396Y21485D02*
X23502Y21485D01*
X23616Y21517D02*
X23616Y21612D01*
X23615Y21517D02*
X23617Y21507D01*
X23621Y21498D01*
X23628Y21491D01*
X23637Y21487D01*
X23647Y21485D01*
X23700Y21485D01*
X23700Y21612D01*
X23822Y21675D02*
X23822Y21485D01*
X23822Y21675D02*
X23906Y21675D01*
X23906Y21591D02*
X23822Y21591D01*
D276*
X27400Y30950D02*
X33550Y30950D01*
X27400Y30950D02*
X27400Y25550D01*
X33550Y25550D01*
X33550Y30950D01*
D275*
X27233Y26318D02*
X27085Y26318D01*
X27233Y26318D02*
X27244Y26317D01*
X27254Y26312D01*
X27263Y26306D01*
X27269Y26297D01*
X27274Y26287D01*
X27275Y26276D01*
X27275Y26255D01*
X27127Y26434D02*
X27085Y26487D01*
X27275Y26487D01*
X27275Y26434D02*
X27275Y26540D01*
X33135Y27625D02*
X33325Y27625D01*
X33135Y27625D02*
X33135Y27678D01*
X33137Y27692D01*
X33142Y27705D01*
X33151Y27715D01*
X33162Y27724D01*
X33174Y27729D01*
X33188Y27731D01*
X33202Y27729D01*
X33215Y27724D01*
X33225Y27715D01*
X33234Y27705D01*
X33239Y27692D01*
X33241Y27678D01*
X33241Y27625D01*
X33241Y27688D02*
X33325Y27731D01*
X33283Y27874D02*
X33135Y27874D01*
X33283Y27873D02*
X33294Y27872D01*
X33304Y27867D01*
X33313Y27861D01*
X33319Y27852D01*
X33324Y27842D01*
X33325Y27831D01*
X33325Y27810D01*
X33177Y27990D02*
X33135Y28042D01*
X33325Y28042D01*
X33325Y27990D02*
X33325Y28095D01*
X33177Y28206D02*
X33135Y28258D01*
X33325Y28258D01*
X33325Y28206D02*
X33325Y28311D01*
D276*
X33550Y25200D02*
X27400Y25200D01*
X27400Y19800D01*
X33550Y19800D01*
X33550Y25200D01*
D275*
X27233Y20568D02*
X27085Y20568D01*
X27233Y20568D02*
X27244Y20567D01*
X27254Y20562D01*
X27263Y20556D01*
X27269Y20547D01*
X27274Y20537D01*
X27275Y20526D01*
X27275Y20505D01*
X27085Y20742D02*
X27087Y20754D01*
X27091Y20766D01*
X27099Y20776D01*
X27109Y20784D01*
X27121Y20788D01*
X27133Y20790D01*
X27085Y20742D02*
X27086Y20729D01*
X27090Y20717D01*
X27097Y20706D01*
X27105Y20697D01*
X27116Y20689D01*
X27127Y20684D01*
X27170Y20774D02*
X27159Y20783D01*
X27147Y20788D01*
X27133Y20790D01*
X27169Y20774D02*
X27275Y20684D01*
X27275Y20790D01*
X33135Y21875D02*
X33325Y21875D01*
X33135Y21875D02*
X33135Y21928D01*
X33137Y21942D01*
X33142Y21955D01*
X33151Y21965D01*
X33162Y21974D01*
X33174Y21979D01*
X33188Y21981D01*
X33202Y21979D01*
X33215Y21974D01*
X33225Y21965D01*
X33234Y21955D01*
X33239Y21942D01*
X33241Y21928D01*
X33241Y21875D01*
X33241Y21938D02*
X33325Y21981D01*
X33283Y22124D02*
X33135Y22124D01*
X33283Y22123D02*
X33294Y22122D01*
X33304Y22117D01*
X33313Y22111D01*
X33319Y22102D01*
X33324Y22092D01*
X33325Y22081D01*
X33325Y22060D01*
X33177Y22240D02*
X33135Y22292D01*
X33325Y22292D01*
X33325Y22240D02*
X33325Y22345D01*
X33177Y22456D02*
X33135Y22508D01*
X33325Y22508D01*
X33325Y22456D02*
X33325Y22561D01*
D276*
X29500Y10000D02*
X29250Y9750D01*
X29500Y10000D02*
X30000Y10000D01*
X30250Y9750D01*
X30250Y9250D02*
X30000Y9000D01*
X29500Y9000D01*
X29250Y9250D01*
X28000Y10000D02*
X27500Y10000D01*
X28000Y10000D02*
X28250Y9750D01*
X28250Y9250D02*
X28000Y9000D01*
X28250Y9750D02*
X28500Y10000D01*
X29000Y10000D01*
X29250Y9750D01*
X29250Y9250D02*
X29000Y9000D01*
X28500Y9000D01*
X28250Y9250D01*
X26500Y10000D02*
X26250Y9750D01*
X26500Y10000D02*
X27000Y10000D01*
X27250Y9750D01*
X27250Y9250D02*
X27000Y9000D01*
X26500Y9000D01*
X26250Y9250D01*
X27250Y9750D02*
X27500Y10000D01*
X27250Y9250D02*
X27500Y9000D01*
X28000Y9000D01*
X25000Y10000D02*
X24500Y10000D01*
X25000Y10000D02*
X25250Y9750D01*
X25250Y9250D02*
X25000Y9000D01*
X25250Y9750D02*
X25500Y10000D01*
X26000Y10000D01*
X26250Y9750D01*
X26250Y9250D02*
X26000Y9000D01*
X25500Y9000D01*
X25250Y9250D01*
X24250Y9250D02*
X24250Y9750D01*
X24500Y10000D01*
X24250Y9250D02*
X24500Y9000D01*
X25000Y9000D01*
X30250Y9250D02*
X30250Y9750D01*
D275*
X24338Y10117D02*
X24338Y10265D01*
X24338Y10117D02*
X24337Y10106D01*
X24332Y10096D01*
X24326Y10087D01*
X24317Y10081D01*
X24307Y10076D01*
X24296Y10075D01*
X24275Y10075D01*
X24454Y10117D02*
X24497Y10265D01*
X24454Y10117D02*
X24560Y10117D01*
X24528Y10159D02*
X24528Y10075D01*
D276*
X23750Y9000D02*
X23250Y9000D01*
X23000Y9250D01*
X23000Y9750D02*
X23250Y10000D01*
X23000Y9250D02*
X22750Y9000D01*
X22250Y9000D01*
X22000Y9250D01*
X22000Y9750D02*
X22250Y10000D01*
X22750Y10000D01*
X23000Y9750D01*
X24000Y9750D02*
X24000Y9250D01*
X23750Y9000D01*
X24000Y9750D02*
X23750Y10000D01*
X23250Y10000D01*
X22000Y9750D02*
X22000Y9250D01*
D275*
X22088Y10117D02*
X22088Y10265D01*
X22088Y10117D02*
X22087Y10106D01*
X22082Y10096D01*
X22076Y10087D01*
X22067Y10081D01*
X22057Y10076D01*
X22046Y10075D01*
X22025Y10075D01*
X22204Y10075D02*
X22257Y10075D01*
X22271Y10077D01*
X22284Y10082D01*
X22294Y10091D01*
X22303Y10102D01*
X22308Y10114D01*
X22310Y10128D01*
X22308Y10142D01*
X22303Y10155D01*
X22294Y10165D01*
X22284Y10174D01*
X22271Y10179D01*
X22257Y10181D01*
X22268Y10265D02*
X22204Y10265D01*
X22268Y10265D02*
X22280Y10263D01*
X22291Y10258D01*
X22300Y10251D01*
X22306Y10240D01*
X22310Y10229D01*
X22310Y10217D01*
X22306Y10206D01*
X22300Y10195D01*
X22291Y10188D01*
X22280Y10183D01*
X22268Y10181D01*
X22226Y10181D01*
D276*
X32500Y9750D02*
X32750Y10000D01*
X33250Y10000D01*
X33500Y9750D01*
X33500Y9250D02*
X33250Y9000D01*
X32750Y9000D01*
X32500Y9250D01*
X31250Y10000D02*
X30750Y10000D01*
X31250Y10000D02*
X31500Y9750D01*
X31500Y9250D02*
X31250Y9000D01*
X31500Y9750D02*
X31750Y10000D01*
X32250Y10000D01*
X32500Y9750D01*
X32500Y9250D02*
X32250Y9000D01*
X31750Y9000D01*
X31500Y9250D01*
X30500Y9250D02*
X30500Y9750D01*
X30750Y10000D01*
X30500Y9250D02*
X30750Y9000D01*
X31250Y9000D01*
X33500Y9250D02*
X33500Y9750D01*
D275*
X30588Y10117D02*
X30588Y10265D01*
X30588Y10117D02*
X30587Y10106D01*
X30582Y10096D01*
X30576Y10087D01*
X30567Y10081D01*
X30557Y10076D01*
X30546Y10075D01*
X30525Y10075D01*
X30704Y10075D02*
X30768Y10075D01*
X30779Y10076D01*
X30789Y10081D01*
X30798Y10087D01*
X30804Y10096D01*
X30809Y10106D01*
X30810Y10117D01*
X30810Y10138D01*
X30809Y10149D01*
X30804Y10159D01*
X30798Y10168D01*
X30789Y10174D01*
X30779Y10179D01*
X30768Y10180D01*
X30768Y10181D02*
X30704Y10181D01*
X30704Y10265D01*
X30810Y10265D01*
X26090Y27735D02*
X26090Y27925D01*
X26143Y27925D01*
X26157Y27923D01*
X26170Y27918D01*
X26180Y27909D01*
X26189Y27899D01*
X26194Y27886D01*
X26196Y27872D01*
X26194Y27858D01*
X26189Y27846D01*
X26180Y27835D01*
X26170Y27826D01*
X26157Y27821D01*
X26143Y27819D01*
X26090Y27819D01*
X26154Y27819D02*
X26196Y27735D01*
X26304Y27883D02*
X26357Y27925D01*
X26357Y27735D01*
X26304Y27735D02*
X26410Y27735D01*
X26087Y28717D02*
X26085Y28729D01*
X26081Y28741D01*
X26073Y28751D01*
X26063Y28759D01*
X26051Y28763D01*
X26039Y28765D01*
X26026Y28764D01*
X26014Y28760D01*
X26003Y28753D01*
X25994Y28745D01*
X25986Y28734D01*
X25981Y28723D01*
X26071Y28680D02*
X26080Y28691D01*
X26085Y28703D01*
X26087Y28717D01*
X26071Y28681D02*
X25981Y28575D01*
X26087Y28575D01*
X26197Y28617D02*
X26239Y28765D01*
X26197Y28617D02*
X26303Y28617D01*
X26271Y28659D02*
X26271Y28575D01*
X26413Y28670D02*
X26415Y28694D01*
X26420Y28717D01*
X26429Y28739D01*
X26435Y28749D01*
X26443Y28758D01*
X26454Y28763D01*
X26466Y28765D01*
X26478Y28763D01*
X26489Y28758D01*
X26497Y28749D01*
X26503Y28739D01*
X26512Y28717D01*
X26517Y28694D01*
X26519Y28670D01*
X26413Y28670D02*
X26415Y28646D01*
X26420Y28623D01*
X26429Y28601D01*
X26435Y28591D01*
X26443Y28582D01*
X26454Y28577D01*
X26466Y28575D01*
X26503Y28601D02*
X26512Y28623D01*
X26517Y28646D01*
X26519Y28670D01*
X26503Y28601D02*
X26497Y28591D01*
X26489Y28582D01*
X26478Y28577D01*
X26466Y28575D01*
X26424Y28617D02*
X26508Y28723D01*
X25515Y23982D02*
X25325Y23982D01*
X25325Y24035D01*
X25327Y24049D01*
X25332Y24062D01*
X25341Y24072D01*
X25352Y24081D01*
X25364Y24086D01*
X25378Y24088D01*
X25392Y24086D01*
X25405Y24081D01*
X25415Y24072D01*
X25424Y24062D01*
X25429Y24049D01*
X25431Y24035D01*
X25431Y23982D01*
X25431Y24046D02*
X25515Y24088D01*
X25367Y24196D02*
X25325Y24249D01*
X25515Y24249D01*
X25515Y24196D02*
X25515Y24302D01*
X25420Y24412D02*
X25396Y24414D01*
X25373Y24419D01*
X25351Y24428D01*
X25341Y24434D01*
X25332Y24442D01*
X25327Y24453D01*
X25325Y24465D01*
X25327Y24477D01*
X25332Y24488D01*
X25341Y24496D01*
X25351Y24502D01*
X25373Y24511D01*
X25396Y24516D01*
X25420Y24518D01*
X25420Y24412D02*
X25444Y24414D01*
X25467Y24419D01*
X25489Y24428D01*
X25499Y24434D01*
X25508Y24442D01*
X25513Y24453D01*
X25515Y24465D01*
X25489Y24502D02*
X25467Y24511D01*
X25444Y24516D01*
X25420Y24518D01*
X25489Y24502D02*
X25499Y24496D01*
X25508Y24488D01*
X25513Y24477D01*
X25515Y24465D01*
X25473Y24423D02*
X25367Y24507D01*
X24533Y24087D02*
X24521Y24085D01*
X24509Y24081D01*
X24499Y24073D01*
X24491Y24063D01*
X24487Y24051D01*
X24485Y24039D01*
X24486Y24026D01*
X24490Y24014D01*
X24497Y24003D01*
X24505Y23994D01*
X24516Y23986D01*
X24527Y23981D01*
X24570Y24071D02*
X24559Y24080D01*
X24547Y24085D01*
X24533Y24087D01*
X24569Y24071D02*
X24675Y23981D01*
X24675Y24087D01*
X24633Y24197D02*
X24485Y24239D01*
X24633Y24197D02*
X24633Y24303D01*
X24591Y24271D02*
X24675Y24271D01*
X24580Y24413D02*
X24556Y24415D01*
X24533Y24420D01*
X24511Y24429D01*
X24501Y24435D01*
X24492Y24443D01*
X24487Y24454D01*
X24485Y24466D01*
X24487Y24478D01*
X24492Y24489D01*
X24501Y24497D01*
X24511Y24503D01*
X24533Y24512D01*
X24556Y24517D01*
X24580Y24519D01*
X24580Y24413D02*
X24604Y24415D01*
X24627Y24420D01*
X24649Y24429D01*
X24659Y24435D01*
X24668Y24443D01*
X24673Y24454D01*
X24675Y24466D01*
X24649Y24503D02*
X24627Y24512D01*
X24604Y24517D01*
X24580Y24519D01*
X24649Y24503D02*
X24659Y24497D01*
X24668Y24489D01*
X24673Y24478D01*
X24675Y24466D01*
X24633Y24424D02*
X24527Y24508D01*
X23982Y14015D02*
X23982Y13825D01*
X23982Y14015D02*
X24035Y14015D01*
X24049Y14013D01*
X24062Y14008D01*
X24072Y13999D01*
X24081Y13989D01*
X24086Y13976D01*
X24088Y13962D01*
X24086Y13948D01*
X24081Y13936D01*
X24072Y13925D01*
X24062Y13916D01*
X24049Y13911D01*
X24035Y13909D01*
X23982Y13909D01*
X24046Y13909D02*
X24088Y13825D01*
X24196Y13973D02*
X24249Y14015D01*
X24249Y13825D01*
X24196Y13825D02*
X24302Y13825D01*
X24412Y13973D02*
X24465Y14015D01*
X24465Y13825D01*
X24412Y13825D02*
X24518Y13825D01*
X23933Y13175D02*
X23880Y13133D01*
X23933Y13175D02*
X23933Y12985D01*
X23985Y12985D02*
X23880Y12985D01*
X24095Y13080D02*
X24097Y13104D01*
X24102Y13127D01*
X24111Y13149D01*
X24112Y13149D02*
X24118Y13159D01*
X24126Y13168D01*
X24137Y13173D01*
X24149Y13175D01*
X24161Y13173D01*
X24172Y13168D01*
X24180Y13159D01*
X24186Y13149D01*
X24195Y13127D01*
X24200Y13104D01*
X24202Y13080D01*
X24095Y13080D02*
X24097Y13056D01*
X24102Y13033D01*
X24111Y13011D01*
X24112Y13011D02*
X24118Y13001D01*
X24126Y12992D01*
X24137Y12987D01*
X24149Y12985D01*
X24186Y13011D02*
X24195Y13033D01*
X24200Y13056D01*
X24202Y13080D01*
X24186Y13011D02*
X24180Y13001D01*
X24172Y12992D01*
X24161Y12987D01*
X24149Y12985D01*
X24106Y13027D02*
X24191Y13133D01*
X24311Y13080D02*
X24313Y13104D01*
X24318Y13127D01*
X24327Y13149D01*
X24328Y13149D02*
X24334Y13159D01*
X24342Y13168D01*
X24353Y13173D01*
X24365Y13175D01*
X24377Y13173D01*
X24388Y13168D01*
X24396Y13159D01*
X24402Y13149D01*
X24411Y13127D01*
X24416Y13104D01*
X24418Y13080D01*
X24311Y13080D02*
X24313Y13056D01*
X24318Y13033D01*
X24327Y13011D01*
X24328Y13011D02*
X24334Y13001D01*
X24342Y12992D01*
X24353Y12987D01*
X24365Y12985D01*
X24402Y13011D02*
X24411Y13033D01*
X24416Y13056D01*
X24418Y13080D01*
X24402Y13011D02*
X24396Y13001D01*
X24388Y12992D01*
X24377Y12987D01*
X24365Y12985D01*
X24322Y13027D02*
X24407Y13133D01*
X24536Y13175D02*
X24536Y12985D01*
X24536Y13048D02*
X24620Y13112D01*
X24573Y13075D02*
X24620Y12985D01*
X26090Y22985D02*
X26090Y23175D01*
X26143Y23175D01*
X26157Y23173D01*
X26170Y23168D01*
X26180Y23159D01*
X26189Y23149D01*
X26194Y23136D01*
X26196Y23122D01*
X26194Y23108D01*
X26189Y23096D01*
X26180Y23085D01*
X26170Y23076D01*
X26157Y23071D01*
X26143Y23069D01*
X26090Y23069D01*
X26154Y23069D02*
X26196Y22985D01*
X26362Y23175D02*
X26374Y23173D01*
X26386Y23169D01*
X26396Y23161D01*
X26404Y23151D01*
X26408Y23139D01*
X26410Y23127D01*
X26362Y23175D02*
X26349Y23174D01*
X26337Y23170D01*
X26326Y23163D01*
X26317Y23155D01*
X26309Y23144D01*
X26304Y23133D01*
X26394Y23090D02*
X26403Y23101D01*
X26408Y23113D01*
X26410Y23127D01*
X26394Y23091D02*
X26304Y22985D01*
X26410Y22985D01*
X26087Y23967D02*
X26085Y23979D01*
X26081Y23991D01*
X26073Y24001D01*
X26063Y24009D01*
X26051Y24013D01*
X26039Y24015D01*
X26026Y24014D01*
X26014Y24010D01*
X26003Y24003D01*
X25994Y23995D01*
X25986Y23984D01*
X25981Y23973D01*
X26071Y23930D02*
X26080Y23941D01*
X26085Y23953D01*
X26087Y23967D01*
X26071Y23931D02*
X25981Y23825D01*
X26087Y23825D01*
X26197Y23867D02*
X26239Y24015D01*
X26197Y23867D02*
X26303Y23867D01*
X26271Y23909D02*
X26271Y23825D01*
X26413Y23920D02*
X26415Y23944D01*
X26420Y23967D01*
X26429Y23989D01*
X26435Y23999D01*
X26443Y24008D01*
X26454Y24013D01*
X26466Y24015D01*
X26478Y24013D01*
X26489Y24008D01*
X26497Y23999D01*
X26503Y23989D01*
X26512Y23967D01*
X26517Y23944D01*
X26519Y23920D01*
X26413Y23920D02*
X26415Y23896D01*
X26420Y23873D01*
X26429Y23851D01*
X26435Y23841D01*
X26443Y23832D01*
X26454Y23827D01*
X26466Y23825D01*
X26503Y23851D02*
X26512Y23873D01*
X26517Y23896D01*
X26519Y23920D01*
X26503Y23851D02*
X26497Y23841D01*
X26489Y23832D01*
X26478Y23827D01*
X26466Y23825D01*
X26424Y23867D02*
X26508Y23973D01*
X26090Y22765D02*
X26090Y22575D01*
X26090Y22765D02*
X26143Y22765D01*
X26157Y22763D01*
X26170Y22758D01*
X26180Y22749D01*
X26189Y22739D01*
X26194Y22726D01*
X26196Y22712D01*
X26194Y22698D01*
X26189Y22686D01*
X26180Y22675D01*
X26170Y22666D01*
X26157Y22661D01*
X26143Y22659D01*
X26090Y22659D01*
X26154Y22659D02*
X26196Y22575D01*
X26304Y22575D02*
X26357Y22575D01*
X26371Y22577D01*
X26384Y22582D01*
X26394Y22591D01*
X26403Y22602D01*
X26408Y22614D01*
X26410Y22628D01*
X26408Y22642D01*
X26403Y22655D01*
X26394Y22665D01*
X26384Y22674D01*
X26371Y22679D01*
X26357Y22681D01*
X26367Y22765D02*
X26304Y22765D01*
X26367Y22765D02*
X26379Y22763D01*
X26390Y22758D01*
X26399Y22751D01*
X26405Y22740D01*
X26409Y22729D01*
X26409Y22717D01*
X26405Y22706D01*
X26399Y22695D01*
X26390Y22688D01*
X26379Y22683D01*
X26367Y22681D01*
X26325Y22681D01*
X26039Y21925D02*
X26051Y21923D01*
X26063Y21919D01*
X26073Y21911D01*
X26081Y21901D01*
X26085Y21889D01*
X26087Y21877D01*
X26039Y21925D02*
X26026Y21924D01*
X26014Y21920D01*
X26003Y21913D01*
X25994Y21905D01*
X25986Y21894D01*
X25981Y21883D01*
X26071Y21840D02*
X26080Y21851D01*
X26085Y21863D01*
X26087Y21877D01*
X26071Y21841D02*
X25981Y21735D01*
X26087Y21735D01*
X26197Y21777D02*
X26239Y21925D01*
X26197Y21777D02*
X26303Y21777D01*
X26271Y21819D02*
X26271Y21735D01*
X26413Y21830D02*
X26415Y21854D01*
X26420Y21877D01*
X26429Y21899D01*
X26435Y21909D01*
X26443Y21918D01*
X26454Y21923D01*
X26466Y21925D01*
X26478Y21923D01*
X26489Y21918D01*
X26497Y21909D01*
X26503Y21899D01*
X26512Y21877D01*
X26517Y21854D01*
X26519Y21830D01*
X26413Y21830D02*
X26415Y21806D01*
X26420Y21783D01*
X26429Y21761D01*
X26435Y21751D01*
X26443Y21742D01*
X26454Y21737D01*
X26466Y21735D01*
X26503Y21761D02*
X26512Y21783D01*
X26517Y21806D01*
X26519Y21830D01*
X26503Y21761D02*
X26497Y21751D01*
X26489Y21742D01*
X26478Y21737D01*
X26466Y21735D01*
X26424Y21777D02*
X26508Y21883D01*
X23340Y18675D02*
X23340Y18485D01*
X23340Y18675D02*
X23393Y18675D01*
X23407Y18673D01*
X23420Y18668D01*
X23430Y18659D01*
X23439Y18649D01*
X23444Y18636D01*
X23446Y18622D01*
X23444Y18608D01*
X23439Y18596D01*
X23430Y18585D01*
X23420Y18576D01*
X23407Y18571D01*
X23393Y18569D01*
X23340Y18569D01*
X23404Y18569D02*
X23446Y18485D01*
X23554Y18527D02*
X23596Y18675D01*
X23554Y18527D02*
X23660Y18527D01*
X23628Y18569D02*
X23628Y18485D01*
X23195Y19367D02*
X23237Y19515D01*
X23195Y19367D02*
X23300Y19367D01*
X23268Y19409D02*
X23268Y19325D01*
X23393Y19325D02*
X23393Y19336D01*
X23404Y19336D01*
X23404Y19325D01*
X23393Y19325D01*
X23497Y19494D02*
X23497Y19515D01*
X23603Y19515D01*
X23550Y19325D01*
X23721Y19325D02*
X23721Y19515D01*
X23805Y19452D02*
X23721Y19388D01*
X23758Y19415D02*
X23805Y19325D01*
X24235Y20340D02*
X24425Y20340D01*
X24235Y20340D02*
X24235Y20393D01*
X24237Y20407D01*
X24242Y20420D01*
X24251Y20430D01*
X24262Y20439D01*
X24274Y20444D01*
X24288Y20446D01*
X24302Y20444D01*
X24315Y20439D01*
X24325Y20430D01*
X24334Y20420D01*
X24339Y20407D01*
X24341Y20393D01*
X24341Y20340D01*
X24341Y20404D02*
X24425Y20446D01*
X24425Y20554D02*
X24425Y20617D01*
X24424Y20628D01*
X24419Y20638D01*
X24413Y20647D01*
X24404Y20653D01*
X24394Y20658D01*
X24383Y20659D01*
X24383Y20660D02*
X24362Y20660D01*
X24362Y20659D02*
X24351Y20658D01*
X24341Y20653D01*
X24332Y20647D01*
X24326Y20638D01*
X24321Y20628D01*
X24320Y20617D01*
X24319Y20617D02*
X24319Y20554D01*
X24235Y20554D01*
X24235Y20660D01*
X25075Y20237D02*
X25223Y20195D01*
X25223Y20300D01*
X25181Y20268D02*
X25265Y20268D01*
X25265Y20393D02*
X25254Y20393D01*
X25254Y20404D01*
X25265Y20404D01*
X25265Y20393D01*
X25096Y20497D02*
X25075Y20497D01*
X25075Y20603D01*
X25265Y20550D01*
X25265Y20721D02*
X25075Y20721D01*
X25138Y20805D02*
X25202Y20721D01*
X25175Y20758D02*
X25265Y20805D01*
X26090Y26485D02*
X26090Y26675D01*
X26143Y26675D01*
X26157Y26673D01*
X26170Y26668D01*
X26180Y26659D01*
X26189Y26649D01*
X26194Y26636D01*
X26196Y26622D01*
X26194Y26608D01*
X26189Y26596D01*
X26180Y26585D01*
X26170Y26576D01*
X26157Y26571D01*
X26143Y26569D01*
X26090Y26569D01*
X26154Y26569D02*
X26196Y26485D01*
X26304Y26591D02*
X26367Y26591D01*
X26367Y26590D02*
X26378Y26589D01*
X26388Y26584D01*
X26397Y26578D01*
X26403Y26569D01*
X26408Y26559D01*
X26409Y26548D01*
X26410Y26548D02*
X26410Y26538D01*
X26408Y26524D01*
X26403Y26512D01*
X26394Y26501D01*
X26384Y26492D01*
X26371Y26487D01*
X26357Y26485D01*
X26343Y26487D01*
X26331Y26492D01*
X26320Y26501D01*
X26311Y26512D01*
X26306Y26524D01*
X26304Y26538D01*
X26304Y26591D01*
X26306Y26607D01*
X26310Y26623D01*
X26318Y26638D01*
X26329Y26650D01*
X26341Y26661D01*
X26356Y26669D01*
X26372Y26673D01*
X26388Y26675D01*
X26087Y27467D02*
X26085Y27479D01*
X26081Y27491D01*
X26073Y27501D01*
X26063Y27509D01*
X26051Y27513D01*
X26039Y27515D01*
X26026Y27514D01*
X26014Y27510D01*
X26003Y27503D01*
X25994Y27495D01*
X25986Y27484D01*
X25981Y27473D01*
X26071Y27430D02*
X26080Y27441D01*
X26085Y27453D01*
X26087Y27467D01*
X26071Y27431D02*
X25981Y27325D01*
X26087Y27325D01*
X26197Y27367D02*
X26239Y27515D01*
X26197Y27367D02*
X26303Y27367D01*
X26271Y27409D02*
X26271Y27325D01*
X26413Y27420D02*
X26415Y27444D01*
X26420Y27467D01*
X26429Y27489D01*
X26435Y27499D01*
X26443Y27508D01*
X26454Y27513D01*
X26466Y27515D01*
X26478Y27513D01*
X26489Y27508D01*
X26497Y27499D01*
X26503Y27489D01*
X26512Y27467D01*
X26517Y27444D01*
X26519Y27420D01*
X26413Y27420D02*
X26415Y27396D01*
X26420Y27373D01*
X26429Y27351D01*
X26435Y27341D01*
X26443Y27332D01*
X26454Y27327D01*
X26466Y27325D01*
X26503Y27351D02*
X26512Y27373D01*
X26517Y27396D01*
X26519Y27420D01*
X26503Y27351D02*
X26497Y27341D01*
X26489Y27332D01*
X26478Y27327D01*
X26466Y27325D01*
X26424Y27367D02*
X26508Y27473D01*
X24090Y18015D02*
X24090Y17825D01*
X24090Y18015D02*
X24143Y18015D01*
X24157Y18013D01*
X24170Y18008D01*
X24180Y17999D01*
X24189Y17989D01*
X24194Y17976D01*
X24196Y17962D01*
X24194Y17948D01*
X24189Y17936D01*
X24180Y17925D01*
X24170Y17916D01*
X24157Y17911D01*
X24143Y17909D01*
X24090Y17909D01*
X24154Y17909D02*
X24196Y17825D01*
X24304Y17994D02*
X24304Y18015D01*
X24410Y18015D01*
X24357Y17825D01*
X23933Y17175D02*
X23880Y17133D01*
X23933Y17175D02*
X23933Y16985D01*
X23985Y16985D02*
X23880Y16985D01*
X24095Y17080D02*
X24097Y17104D01*
X24102Y17127D01*
X24111Y17149D01*
X24112Y17149D02*
X24118Y17159D01*
X24126Y17168D01*
X24137Y17173D01*
X24149Y17175D01*
X24161Y17173D01*
X24172Y17168D01*
X24180Y17159D01*
X24186Y17149D01*
X24195Y17127D01*
X24200Y17104D01*
X24202Y17080D01*
X24095Y17080D02*
X24097Y17056D01*
X24102Y17033D01*
X24111Y17011D01*
X24112Y17011D02*
X24118Y17001D01*
X24126Y16992D01*
X24137Y16987D01*
X24149Y16985D01*
X24186Y17011D02*
X24195Y17033D01*
X24200Y17056D01*
X24202Y17080D01*
X24186Y17011D02*
X24180Y17001D01*
X24172Y16992D01*
X24161Y16987D01*
X24149Y16985D01*
X24106Y17027D02*
X24191Y17133D01*
X24311Y17080D02*
X24313Y17104D01*
X24318Y17127D01*
X24327Y17149D01*
X24328Y17149D02*
X24334Y17159D01*
X24342Y17168D01*
X24353Y17173D01*
X24365Y17175D01*
X24377Y17173D01*
X24388Y17168D01*
X24396Y17159D01*
X24402Y17149D01*
X24411Y17127D01*
X24416Y17104D01*
X24418Y17080D01*
X24311Y17080D02*
X24313Y17056D01*
X24318Y17033D01*
X24327Y17011D01*
X24328Y17011D02*
X24334Y17001D01*
X24342Y16992D01*
X24353Y16987D01*
X24365Y16985D01*
X24402Y17011D02*
X24411Y17033D01*
X24416Y17056D01*
X24418Y17080D01*
X24402Y17011D02*
X24396Y17001D01*
X24388Y16992D01*
X24377Y16987D01*
X24365Y16985D01*
X24322Y17027D02*
X24407Y17133D01*
X24536Y17175D02*
X24536Y16985D01*
X24536Y17048D02*
X24620Y17112D01*
X24573Y17075D02*
X24620Y16985D01*
X24090Y16015D02*
X24090Y15825D01*
X24090Y16015D02*
X24143Y16015D01*
X24157Y16013D01*
X24170Y16008D01*
X24180Y15999D01*
X24189Y15989D01*
X24194Y15976D01*
X24196Y15962D01*
X24194Y15948D01*
X24189Y15936D01*
X24180Y15925D01*
X24170Y15916D01*
X24157Y15911D01*
X24143Y15909D01*
X24090Y15909D01*
X24154Y15909D02*
X24196Y15825D01*
X24304Y15878D02*
X24306Y15892D01*
X24311Y15905D01*
X24320Y15915D01*
X24331Y15924D01*
X24343Y15929D01*
X24357Y15931D01*
X24371Y15929D01*
X24384Y15924D01*
X24394Y15915D01*
X24403Y15905D01*
X24408Y15892D01*
X24410Y15878D01*
X24408Y15864D01*
X24403Y15852D01*
X24394Y15841D01*
X24384Y15832D01*
X24371Y15827D01*
X24357Y15825D01*
X24343Y15827D01*
X24331Y15832D01*
X24320Y15841D01*
X24311Y15852D01*
X24306Y15864D01*
X24304Y15878D01*
X24315Y15973D02*
X24317Y15985D01*
X24322Y15996D01*
X24329Y16005D01*
X24340Y16011D01*
X24351Y16015D01*
X24363Y16015D01*
X24374Y16011D01*
X24385Y16005D01*
X24392Y15996D01*
X24397Y15985D01*
X24399Y15973D01*
X24397Y15961D01*
X24392Y15950D01*
X24385Y15941D01*
X24374Y15935D01*
X24363Y15931D01*
X24351Y15931D01*
X24340Y15935D01*
X24329Y15941D01*
X24322Y15950D01*
X24317Y15961D01*
X24315Y15973D01*
X23933Y15175D02*
X23880Y15133D01*
X23933Y15175D02*
X23933Y14985D01*
X23985Y14985D02*
X23880Y14985D01*
X24095Y15080D02*
X24097Y15104D01*
X24102Y15127D01*
X24111Y15149D01*
X24112Y15149D02*
X24118Y15159D01*
X24126Y15168D01*
X24137Y15173D01*
X24149Y15175D01*
X24161Y15173D01*
X24172Y15168D01*
X24180Y15159D01*
X24186Y15149D01*
X24195Y15127D01*
X24200Y15104D01*
X24202Y15080D01*
X24095Y15080D02*
X24097Y15056D01*
X24102Y15033D01*
X24111Y15011D01*
X24112Y15011D02*
X24118Y15001D01*
X24126Y14992D01*
X24137Y14987D01*
X24149Y14985D01*
X24186Y15011D02*
X24195Y15033D01*
X24200Y15056D01*
X24202Y15080D01*
X24186Y15011D02*
X24180Y15001D01*
X24172Y14992D01*
X24161Y14987D01*
X24149Y14985D01*
X24106Y15027D02*
X24191Y15133D01*
X24311Y15080D02*
X24313Y15104D01*
X24318Y15127D01*
X24327Y15149D01*
X24328Y15149D02*
X24334Y15159D01*
X24342Y15168D01*
X24353Y15173D01*
X24365Y15175D01*
X24377Y15173D01*
X24388Y15168D01*
X24396Y15159D01*
X24402Y15149D01*
X24411Y15127D01*
X24416Y15104D01*
X24418Y15080D01*
X24311Y15080D02*
X24313Y15056D01*
X24318Y15033D01*
X24327Y15011D01*
X24328Y15011D02*
X24334Y15001D01*
X24342Y14992D01*
X24353Y14987D01*
X24365Y14985D01*
X24402Y15011D02*
X24411Y15033D01*
X24416Y15056D01*
X24418Y15080D01*
X24402Y15011D02*
X24396Y15001D01*
X24388Y14992D01*
X24377Y14987D01*
X24365Y14985D01*
X24322Y15027D02*
X24407Y15133D01*
X24536Y15175D02*
X24536Y14985D01*
X24536Y15048D02*
X24620Y15112D01*
X24573Y15075D02*
X24620Y14985D01*
X24675Y25840D02*
X24485Y25840D01*
X24485Y25893D01*
X24487Y25907D01*
X24492Y25920D01*
X24501Y25930D01*
X24512Y25939D01*
X24524Y25944D01*
X24538Y25946D01*
X24552Y25944D01*
X24565Y25939D01*
X24575Y25930D01*
X24584Y25920D01*
X24589Y25907D01*
X24591Y25893D01*
X24591Y25840D01*
X24591Y25904D02*
X24675Y25946D01*
X24591Y26096D02*
X24591Y26160D01*
X24590Y26096D02*
X24589Y26085D01*
X24584Y26075D01*
X24578Y26066D01*
X24569Y26060D01*
X24559Y26055D01*
X24548Y26054D01*
X24538Y26054D01*
X24524Y26056D01*
X24512Y26061D01*
X24501Y26070D01*
X24492Y26081D01*
X24487Y26093D01*
X24485Y26107D01*
X24487Y26121D01*
X24492Y26134D01*
X24501Y26144D01*
X24512Y26153D01*
X24524Y26158D01*
X24538Y26160D01*
X24591Y26160D01*
X24591Y26159D02*
X24607Y26157D01*
X24623Y26153D01*
X24638Y26145D01*
X24650Y26134D01*
X24661Y26122D01*
X24669Y26107D01*
X24673Y26091D01*
X24675Y26075D01*
X25325Y25789D02*
X25327Y25801D01*
X25331Y25813D01*
X25339Y25823D01*
X25349Y25831D01*
X25361Y25835D01*
X25373Y25837D01*
X25325Y25789D02*
X25326Y25776D01*
X25330Y25764D01*
X25337Y25753D01*
X25345Y25744D01*
X25356Y25736D01*
X25367Y25731D01*
X25410Y25821D02*
X25399Y25830D01*
X25387Y25835D01*
X25373Y25837D01*
X25409Y25821D02*
X25515Y25731D01*
X25515Y25837D01*
X25473Y25947D02*
X25325Y25989D01*
X25473Y25947D02*
X25473Y26053D01*
X25431Y26021D02*
X25515Y26021D01*
X25420Y26163D02*
X25396Y26165D01*
X25373Y26170D01*
X25351Y26179D01*
X25341Y26185D01*
X25332Y26193D01*
X25327Y26204D01*
X25325Y26216D01*
X25327Y26228D01*
X25332Y26239D01*
X25341Y26247D01*
X25351Y26253D01*
X25373Y26262D01*
X25396Y26267D01*
X25420Y26269D01*
X25420Y26163D02*
X25444Y26165D01*
X25467Y26170D01*
X25489Y26179D01*
X25499Y26185D01*
X25508Y26193D01*
X25513Y26204D01*
X25515Y26216D01*
X25489Y26253D02*
X25467Y26262D01*
X25444Y26267D01*
X25420Y26269D01*
X25489Y26253D02*
X25499Y26247D01*
X25508Y26239D01*
X25513Y26228D01*
X25515Y26216D01*
X25473Y26174D02*
X25367Y26258D01*
D276*
X26644Y25467D02*
X26644Y25033D01*
X25856Y25033D02*
X25856Y25467D01*
D277*
X25974Y25152D03*
D275*
X25895Y25846D02*
X25895Y26036D01*
X25947Y26036D02*
X25842Y26036D01*
X26033Y26036D02*
X26096Y25846D01*
X26160Y26036D01*
X26316Y25846D02*
X26327Y25847D01*
X26337Y25852D01*
X26346Y25858D01*
X26352Y25867D01*
X26357Y25877D01*
X26358Y25888D01*
X26316Y25846D02*
X26299Y25848D01*
X26282Y25853D01*
X26266Y25861D01*
X26253Y25872D01*
X26258Y25994D02*
X26259Y26005D01*
X26264Y26015D01*
X26270Y26024D01*
X26279Y26030D01*
X26289Y26035D01*
X26300Y26036D01*
X26317Y26034D01*
X26333Y26029D01*
X26347Y26020D01*
X26257Y25994D02*
X26258Y25983D01*
X26263Y25973D01*
X26269Y25964D01*
X26278Y25957D01*
X26337Y25925D02*
X26346Y25918D01*
X26352Y25909D01*
X26357Y25899D01*
X26358Y25888D01*
X26337Y25925D02*
X26279Y25957D01*
X26461Y25994D02*
X26514Y26036D01*
X26514Y25846D01*
X26461Y25846D02*
X26567Y25846D01*
X24012Y19955D02*
X22988Y19955D01*
X22988Y21045D02*
X24012Y21045D01*
D278*
X24110Y20894D02*
X24112Y20902D01*
X24117Y20909D01*
X24124Y20913D01*
X24132Y20914D01*
X24140Y20911D01*
X24146Y20906D01*
X24150Y20898D01*
X24150Y20890D01*
X24146Y20882D01*
X24140Y20877D01*
X24132Y20874D01*
X24124Y20875D01*
X24117Y20879D01*
X24112Y20886D01*
X24110Y20894D01*
D275*
X23030Y21232D02*
X23030Y21370D01*
X23030Y21232D02*
X23032Y21218D01*
X23037Y21206D01*
X23046Y21195D01*
X23057Y21186D01*
X23069Y21181D01*
X23083Y21179D01*
X23097Y21181D01*
X23110Y21186D01*
X23120Y21195D01*
X23129Y21206D01*
X23134Y21218D01*
X23136Y21232D01*
X23136Y21370D01*
X23311Y21370D02*
X23323Y21368D01*
X23335Y21364D01*
X23345Y21356D01*
X23353Y21346D01*
X23357Y21334D01*
X23359Y21322D01*
X23311Y21369D02*
X23298Y21368D01*
X23286Y21364D01*
X23275Y21357D01*
X23266Y21349D01*
X23258Y21338D01*
X23253Y21327D01*
X23343Y21285D02*
X23352Y21296D01*
X23357Y21308D01*
X23359Y21322D01*
X23343Y21285D02*
X23253Y21180D01*
X23359Y21180D01*
X31300Y17272D02*
X34194Y17272D01*
X31300Y17272D02*
X31300Y13728D01*
X34194Y13728D01*
X34194Y17272D01*
X25363Y19000D02*
X25363Y12000D01*
X25363Y19000D02*
X33631Y19000D01*
X33631Y12000D01*
X25363Y12000D01*
X32825Y19228D02*
X32825Y19365D01*
X32825Y19228D02*
X32827Y19214D01*
X32832Y19202D01*
X32841Y19191D01*
X32852Y19182D01*
X32864Y19177D01*
X32878Y19175D01*
X32892Y19177D01*
X32905Y19182D01*
X32915Y19191D01*
X32924Y19202D01*
X32929Y19214D01*
X32931Y19228D01*
X32931Y19365D01*
X33048Y19323D02*
X33101Y19365D01*
X33101Y19175D01*
X33048Y19175D02*
X33154Y19175D01*
M02*
